STARTFONT 2.1
COMMENT
COMMENT Converted from OpenType font "ibmplex.ttf" by "otf2bdf 3.0".
COMMENT
FONT -FreeType-IBM Plex Sans Thin-Medium-R-Normal--55-400-100-100-P-244-ISO10646-1
SIZE 40 100 100
FONTBOUNDINGBOX 74 73 -9 -12
STARTPROPERTIES 19
FOUNDRY "FreeType"
FAMILY_NAME "IBM Plex Sans Thin"
WEIGHT_NAME "Medium"
SLANT "R"
SETWIDTH_NAME "Normal"
ADD_STYLE_NAME ""
PIXEL_SIZE 55
POINT_SIZE 400
RESOLUTION_X 100
RESOLUTION_Y 100
SPACING "P"
AVERAGE_WIDTH 244
CHARSET_REGISTRY "ISO10646"
CHARSET_ENCODING "1"
FONT_ASCENT 57
FONT_DESCENT 15
COPYRIGHT "Copyright 2018 IBM Corp. All rights reserved."
_OTF_FONTFILE "ibmplex.ttf"
_OTF_PSNAME "IBMPlexSans-Thin"
ENDPROPERTIES
CHARS 826
STARTCHAR 0000
ENCODING 0
SWIDTH 0 0
DWIDTH 0 0
BBX 0 0 0 0
BITMAP
ENDCHAR
STARTCHAR 000D
ENCODING 13
SWIDTH 234 0
DWIDTH 13 0
BBX 0 0 0 0
BITMAP
ENDCHAR
STARTCHAR 0020
ENCODING 32
SWIDTH 234 0
DWIDTH 13 0
BBX 0 0 0 0
BITMAP
ENDCHAR
STARTCHAR 0021
ENCODING 33
SWIDTH 252 0
DWIDTH 14 0
BBX 4 39 5 0
BITMAP
60
60
60
60
60
60
60
60
60
60
60
60
60
60
60
60
60
60
60
60
60
20
40
40
40
40
40
40
40
00
00
00
00
00
00
00
60
F0
60
ENDCHAR
STARTCHAR 0022
ENCODING 34
SWIDTH 360 0
DWIDTH 20 0
BBX 9 14 6 27
BITMAP
8080
8080
8080
8080
8080
8080
8080
8080
8080
8080
8080
8080
8080
8080
ENDCHAR
STARTCHAR 0023
ENCODING 35
SWIDTH 702 0
DWIDTH 39 0
BBX 32 39 4 0
BITMAP
00040080
00040080
000C0080
00080080
00080080
00080180
00080100
00080100
00180100
00100100
00100300
00100300
3FFFFFFF
3FFFFFFF
00300200
00200200
00200600
00200400
00200400
00600400
00400400
00400400
00400C00
00400800
00400800
00C00800
FFFFFFFC
00800800
00801800
00801000
00801000
01801000
01001000
01001000
01003000
01002000
01002000
03002000
02002000
ENDCHAR
STARTCHAR 0024
ENCODING 36
SWIDTH 540 0
DWIDTH 30 0
BBX 24 48 3 -5
BITMAP
000800
000800
000800
000800
007F00
078BE0
1C0838
30080C
200806
400803
400800
C00800
800800
800800
800800
C00800
400800
400800
600800
300800
180800
070800
01F800
000F80
000870
000818
000804
000806
000802
000803
000801
000801
000801
000801
000801
000801
800803
C00802
600806
30080C
1C0818
0788E0
00FF80
000800
000800
000800
000800
000800
ENDCHAR
STARTCHAR 0025
ENCODING 37
SWIDTH 882 0
DWIDTH 49 0
BBX 41 40 4 -1
BITMAP
0FF000004000
18180000C000
200400008000
200600010000
400200030000
400200020000
C00300040000
8001000C0000
800100080000
800100100000
800100200000
800100600000
800100400000
C00100800000
400201800000
400201000000
400202000000
200406000000
100C0401E000
0C3008061800
07C018080400
000010100200
000020300300
000040200100
0000C0200100
000080400180
000100400080
000300400080
000200400080
000400400080
000C00400080
000800400080
001000400180
003000200100
006000200100
004000200300
008000100200
018000080400
010000061800
00000001E000
ENDCHAR
STARTCHAR 0026
ENCODING 38
SWIDTH 666 0
DWIDTH 37 0
BBX 31 40 4 -1
BITMAP
00FFC000
01806000
02001000
04000800
0C000C00
08000400
08000400
08000400
08000400
08000400
08000800
0C000800
04001000
06002000
03004000
01018000
00860000
00D80000
00600000
01B0007E
0618007E
0C0C0040
10060040
20030040
60018040
4000C040
C0006040
80003080
80001880
80000C80
80000780
80000100
80000380
40000240
40000420
20000810
30001018
0C00600C
07CF8006
00780000
ENDCHAR
STARTCHAR 0027
ENCODING 39
SWIDTH 216 0
DWIDTH 12 0
BBX 1 14 6 27
BITMAP
80
80
80
80
80
80
80
80
80
80
80
80
80
80
ENDCHAR
STARTCHAR 0028
ENCODING 40
SWIDTH 324 0
DWIDTH 18 0
BBX 11 50 6 -8
BITMAP
0060
00C0
0180
0100
0200
0600
0400
0800
0800
1000
1000
2000
2000
2000
4000
4000
4000
4000
8000
8000
8000
8000
8000
8000
8000
8000
8000
8000
8000
8000
8000
C000
4000
4000
4000
6000
2000
2000
1000
1000
1800
0800
0C00
0400
0200
0300
0100
0080
0040
0020
ENDCHAR
STARTCHAR 0029
ENCODING 41
SWIDTH 324 0
DWIDTH 18 0
BBX 12 50 1 -8
BITMAP
4000
2000
1000
1800
0800
0400
0200
0200
0100
0100
0080
0080
0080
0040
0040
0040
0020
0020
0020
0020
0020
0020
0030
0030
0030
0030
0030
0030
0020
0020
0020
0020
0020
0060
0040
0040
0040
0080
0080
0100
0100
0300
0200
0400
0400
0800
1000
2000
6000
C000
ENDCHAR
STARTCHAR 002A
ENCODING 42
SWIDTH 360 0
DWIDTH 20 0
BBX 18 18 1 24
BITMAP
00C000
004000
004000
004000
004000
004000
004000
E041C0
1C4E00
03F000
00C000
012000
033000
021000
040800
0C0400
080600
000200
ENDCHAR
STARTCHAR 002B
ENCODING 43
SWIDTH 594 0
DWIDTH 33 0
BBX 27 28 3 3
BITMAP
00040000
00040000
00040000
00040000
00040000
00040000
00040000
00040000
00040000
00040000
00040000
00040000
00040000
FFFFFFE0
FFFFFFE0
00040000
00040000
00040000
00040000
00040000
00040000
00040000
00040000
00040000
00040000
00040000
00040000
00040000
ENDCHAR
STARTCHAR 002C
ENCODING 44
SWIDTH 234 0
DWIDTH 13 0
BBX 5 11 3 -8
BITMAP
18
38
38
08
08
18
10
10
20
40
C0
ENDCHAR
STARTCHAR 002D
ENCODING 45
SWIDTH 378 0
DWIDTH 21 0
BBX 12 2 5 16
BITMAP
FFF0
FFF0
ENDCHAR
STARTCHAR 002E
ENCODING 46
SWIDTH 234 0
DWIDTH 13 0
BBX 3 3 5 0
BITMAP
E0
E0
E0
ENDCHAR
STARTCHAR 002F
ENCODING 47
SWIDTH 306 0
DWIDTH 17 0
BBX 14 49 1 -8
BITMAP
0004
0004
0008
0008
0008
0018
0010
0010
0010
0030
0020
0020
0020
0040
0040
0040
00C0
0080
0080
0080
0180
0100
0100
0100
0300
0200
0200
0200
0400
0400
0400
0C00
0800
0800
0800
1800
1000
1000
1000
2000
2000
2000
2000
4000
4000
4000
C000
8000
8000
ENDCHAR
STARTCHAR 0030
ENCODING 48
SWIDTH 594 0
DWIDTH 33 0
BBX 25 40 4 -1
BITMAP
00FFC000
03006000
04001800
08000C00
10000400
30000600
20000200
20000300
40000100
40000100
40000180
40000080
C0000080
80000080
80000080
80000080
80000080
80000080
80000080
80000080
80000080
80000080
80000080
80000080
80000080
80000080
C0000080
40000080
40000180
40000100
40000100
20000100
20000200
30000200
10000400
08000C00
0C001800
03003000
01F7C000
001C0000
ENDCHAR
STARTCHAR 0031
ENCODING 49
SWIDTH 594 0
DWIDTH 33 0
BBX 25 39 5 0
BITMAP
001C0000
003C0000
006C0000
008C0000
030C0000
060C0000
0C0C0000
180C0000
200C0000
C00C0000
800C0000
000C0000
000C0000
000C0000
000C0000
000C0000
000C0000
000C0000
000C0000
000C0000
000C0000
000C0000
000C0000
000C0000
000C0000
000C0000
000C0000
000C0000
000C0000
000C0000
000C0000
000C0000
000C0000
000C0000
000C0000
000C0000
000C0000
000C0000
FFFFFF80
ENDCHAR
STARTCHAR 0032
ENCODING 50
SWIDTH 594 0
DWIDTH 33 0
BBX 24 39 5 0
BITMAP
03FF80
0E00C0
180020
300010
600018
400008
C0000C
80000C
000004
000004
000004
000004
000004
00000C
000008
000008
000018
000010
000030
000020
000040
000080
000180
000300
000600
000C00
001800
003000
006000
00C000
018000
030000
060000
0C0000
180000
300000
600000
C00000
FFFFFF
ENDCHAR
STARTCHAR 0033
ENCODING 51
SWIDTH 594 0
DWIDTH 33 0
BBX 23 40 4 -1
BITMAP
01FF80
0600E0
080030
100018
200008
60000C
000004
000004
000004
000004
000004
000004
000004
00000C
000008
000010
000020
0001C0
03FE00
0003C0
000060
000018
000008
000004
000006
000002
000002
000002
000002
000002
000002
000002
000006
800004
C0000C
600008
300010
1C0060
07E7C0
003C00
ENDCHAR
STARTCHAR 0034
ENCODING 52
SWIDTH 594 0
DWIDTH 33 0
BBX 28 39 3 0
BITMAP
00001800
00001800
00002800
00006800
00004800
00008800
00018800
00010800
00020800
00040800
000C0800
00080800
00100800
00300800
00200800
00400800
00C00800
00800800
01000800
02000800
06000800
04000800
08000800
18000800
10000800
20000800
60000800
40000800
80000800
FFFFFFF0
00000800
00000800
00000800
00000800
00000800
00000800
00000800
00000800
00000800
ENDCHAR
STARTCHAR 0035
ENCODING 53
SWIDTH 594 0
DWIDTH 33 0
BBX 23 40 5 -1
BITMAP
1FFFFC
100000
100000
100000
300000
200000
200000
200000
200000
200000
200000
200000
200000
200000
200000
200000
20FF00
2701C0
6C0060
500010
600008
00000C
000004
000006
000006
000002
000002
000002
000002
000002
000002
000006
000004
800004
C00008
600018
300030
1C00E0
07EF80
003C00
ENDCHAR
STARTCHAR 0036
ENCODING 54
SWIDTH 594 0
DWIDTH 33 0
BBX 23 40 5 -1
BITMAP
000100
000600
000800
003000
006000
00C000
018000
030000
020000
040000
0C0000
080000
100000
100000
200000
200000
61FF00
4701C0
4C0030
500018
E00008
A00004
C00004
C00002
800002
800002
800002
800002
800002
800002
800002
C00002
400006
400004
20000C
300018
180030
0E0060
03EF80
003C00
ENDCHAR
STARTCHAR 0037
ENCODING 55
SWIDTH 594 0
DWIDTH 33 0
BBX 24 39 4 0
BITMAP
FFFFFF
C00001
C00001
C00003
C00002
C00006
C00004
C0000C
C00008
C00008
C00010
000010
000030
000020
000060
000040
0000C0
000080
000080
000100
000100
000300
000200
000600
000400
000C00
000800
001800
001000
001000
003000
002000
006000
004000
00C000
008000
018000
010000
010000
ENDCHAR
STARTCHAR 0038
ENCODING 56
SWIDTH 594 0
DWIDTH 33 0
BBX 25 40 4 -1
BITMAP
01FFC000
07003000
0C001800
18000400
30000600
20000200
20000300
60000100
60000100
60000100
60000100
60000100
20000300
20000200
10000600
18000C00
0C001800
03007000
00FF8000
03C0E000
0C001800
18000400
30000200
60000100
40000180
C0000080
80000080
80000080
80000080
80000080
80000080
C0000080
40000180
40000100
60000300
30000200
18000C00
0E003800
03F3E000
003E0000
ENDCHAR
STARTCHAR 0039
ENCODING 57
SWIDTH 594 0
DWIDTH 33 0
BBX 24 39 5 0
BITMAP
01FF80
0600E0
080030
100018
20000C
600004
400006
400002
C00002
800002
800003
800003
800003
800003
C00003
400003
400002
600006
20000A
10001A
0C0032
0700E6
01FF84
000004
000008
000008
000010
000010
000020
000060
000040
000080
000100
000200
000400
000800
003000
006000
008000
ENDCHAR
STARTCHAR 003A
ENCODING 58
SWIDTH 252 0
DWIDTH 14 0
BBX 3 28 6 0
BITMAP
E0
E0
C0
00
00
00
00
00
00
00
00
00
00
00
00
00
00
00
00
00
00
00
00
00
00
C0
E0
E0
ENDCHAR
STARTCHAR 003B
ENCODING 59
SWIDTH 252 0
DWIDTH 14 0
BBX 5 36 4 -8
BITMAP
38
38
30
00
00
00
00
00
00
00
00
00
00
00
00
00
00
00
00
00
00
00
00
00
00
30
38
38
18
10
10
10
20
20
40
80
ENDCHAR
STARTCHAR 003C
ENCODING 60
SWIDTH 594 0
DWIDTH 33 0
BBX 24 30 5 2
BITMAP
000001
000007
00000C
000030
0000E0
000180
000600
001C00
003000
00C000
038000
060000
180000
700000
C00000
C00000
600000
180000
060000
030000
00C000
003000
001800
000600
000180
0000C0
000030
00000C
000006
000001
ENDCHAR
STARTCHAR 003D
ENCODING 61
SWIDTH 594 0
DWIDTH 33 0
BBX 27 11 3 11
BITMAP
FFFFFFE0
00000000
00000000
00000000
00000000
00000000
00000000
00000000
00000000
FFFFFFE0
FFFFFFE0
ENDCHAR
STARTCHAR 003E
ENCODING 62
SWIDTH 594 0
DWIDTH 33 0
BBX 24 28 5 3
BITMAP
C00000
700000
180000
060000
038000
00C000
003000
001C00
000600
000180
0000E0
000030
00000C
000007
000003
00000C
000030
000060
000180
000600
000C00
003000
00C000
018000
060000
180000
300000
C00000
ENDCHAR
STARTCHAR 003F
ENCODING 63
SWIDTH 450 0
DWIDTH 25 0
BBX 21 39 2 0
BITMAP
03FF00
0C00C0
180060
300030
600010
400018
400008
800008
000008
000008
000008
000008
000008
000008
000010
000010
000020
000040
000180
003E00
006000
004000
004000
004000
004000
004000
004000
004000
004000
000000
000000
000000
000000
000000
000000
000000
00E000
00E000
00E000
ENDCHAR
STARTCHAR 0040
ENCODING 64
SWIDTH 864 0
DWIDTH 48 0
BBX 41 46 4 -7
BITMAP
0003FFE00000
000C001C0000
003000070000
00C000018000
018000004000
020000002000
040000001000
0C0000000800
080000000400
100000000400
300000000200
2000FF080200
200180C80100
400600680100
400400280100
400800180180
C00800180080
801000080080
801000080080
801000080080
801000080080
801000080080
801000080080
801000080080
801000080080
801000080080
801000080180
801000080100
C01000080100
400800180100
400800180200
400400280200
2006006C0400
200180C60800
3000FF03F000
100000000000
180000000000
080000000000
040000000000
020000000000
010000000000
00C000000000
006000000000
001800000000
0007C0000000
00003FFFC000
ENDCHAR
STARTCHAR 0041
ENCODING 65
SWIDTH 594 0
DWIDTH 33 0
BBX 29 39 2 0
BITMAP
00030000
00070000
00050000
00058000
000C8000
00088000
00084000
00104000
00106000
00302000
00202000
00203000
00601000
00401000
00401800
00C00800
00800800
00800C00
01000400
01000400
03000200
02000200
02000300
06000100
04000100
07FFFF80
0C000080
08000080
080000C0
18000040
10000040
30000020
20000020
20000030
60000010
40000010
40000018
C0000008
80000008
ENDCHAR
STARTCHAR 0042
ENCODING 66
SWIDTH 612 0
DWIDTH 34 0
BBX 25 39 6 0
BITMAP
FFFF0000
8000E000
80003000
80000800
80000C00
80000400
80000400
80000600
80000600
80000600
80000600
80000600
80000600
80000400
80000400
80000800
80001800
80006000
FFFF8000
80007000
80000C00
80000600
80000200
80000300
80000100
80000100
80000100
80000180
80000180
80000180
80000100
80000100
80000100
80000300
80000200
80000600
80000C00
80003800
FFFFE000
ENDCHAR
STARTCHAR 0043
ENCODING 67
SWIDTH 594 0
DWIDTH 33 0
BBX 26 40 4 -1
BITMAP
007FE000
01801800
06000600
0C000300
08000100
10000080
300000C0
20000040
60000000
40000000
40000000
40000000
C0000000
C0000000
80000000
80000000
80000000
80000000
80000000
80000000
80000000
80000000
80000000
80000000
80000000
80000000
C0000000
40000000
40000000
40000000
60000000
20000040
30000040
10000080
18000180
0C000300
06000600
03800C00
00FDF000
000F8000
ENDCHAR
STARTCHAR 0044
ENCODING 68
SWIDTH 648 0
DWIDTH 36 0
BBX 27 39 6 0
BITMAP
FFFE0000
8007C000
80003000
80001800
80000400
80000200
80000300
80000100
80000080
80000080
800000C0
80000040
80000040
80000040
80000040
80000040
80000060
80000060
80000060
80000060
80000060
80000060
80000060
80000040
80000040
80000040
80000040
80000040
800000C0
80000080
80000080
80000100
80000100
80000200
80000600
80000C00
80003000
8001E000
FFFF0000
ENDCHAR
STARTCHAR 0045
ENCODING 69
SWIDTH 558 0
DWIDTH 31 0
BBX 21 39 6 0
BITMAP
FFFFF8
800000
800000
800000
800000
800000
800000
800000
800000
800000
800000
800000
800000
800000
800000
800000
800000
800000
800000
FFFFF8
800000
800000
800000
800000
800000
800000
800000
800000
800000
800000
800000
800000
800000
800000
800000
800000
800000
800000
FFFFF8
ENDCHAR
STARTCHAR 0046
ENCODING 70
SWIDTH 522 0
DWIDTH 29 0
BBX 21 39 6 0
BITMAP
FFFFF8
800000
800000
800000
800000
800000
800000
800000
800000
800000
800000
800000
800000
800000
800000
800000
800000
800000
800000
FFFFF0
800000
800000
800000
800000
800000
800000
800000
800000
800000
800000
800000
800000
800000
800000
800000
800000
800000
800000
800000
ENDCHAR
STARTCHAR 0047
ENCODING 71
SWIDTH 666 0
DWIDTH 37 0
BBX 29 40 4 -1
BITMAP
007FF000
01C00C00
03000300
06000180
080000C0
18000040
30000020
20000030
20000000
40000000
40000000
40000000
C0000000
C0000000
80000000
80000000
80000000
80000000
80000000
80000000
80000000
80003FF8
80000018
80000018
80000018
C0000018
C0000018
40000018
40000018
40000018
60000018
20000018
30000038
10000038
08000058
0C000098
06000118
01800618
007CF818
00070000
ENDCHAR
STARTCHAR 0048
ENCODING 72
SWIDTH 684 0
DWIDTH 38 0
BBX 26 39 6 0
BITMAP
80000040
80000040
80000040
80000040
80000040
80000040
80000040
80000040
80000040
80000040
80000040
80000040
80000040
80000040
80000040
80000040
80000040
80000040
80000040
FFFFFFC0
80000040
80000040
80000040
80000040
80000040
80000040
80000040
80000040
80000040
80000040
80000040
80000040
80000040
80000040
80000040
80000040
80000040
80000040
80000040
ENDCHAR
STARTCHAR 0049
ENCODING 73
SWIDTH 360 0
DWIDTH 20 0
BBX 13 39 4 0
BITMAP
FFF8
0200
0200
0200
0200
0200
0200
0200
0200
0200
0200
0200
0200
0200
0200
0200
0200
0200
0200
0200
0200
0200
0200
0200
0200
0200
0200
0200
0200
0200
0200
0200
0200
0200
0200
0200
0200
0200
FFF8
ENDCHAR
STARTCHAR 004A
ENCODING 74
SWIDTH 450 0
DWIDTH 25 0
BBX 19 40 1 -1
BITMAP
0FFFE0
000020
000020
000020
000020
000020
000020
000020
000020
000020
000020
000020
000020
000020
000020
000020
000020
000020
000020
000020
000020
000020
000020
000020
000020
000020
000020
000020
000020
000020
000020
000020
000020
C00060
400040
6000C0
300180
180300
07BE00
00F000
ENDCHAR
STARTCHAR 004B
ENCODING 75
SWIDTH 558 0
DWIDTH 31 0
BBX 24 39 6 0
BITMAP
800001
800002
800004
80000C
800018
800030
800060
8000C0
800180
800100
800200
800400
800800
801000
803000
806000
80C000
81C000
836000
863000
8C1000
881800
900C00
A00400
C00600
800300
800100
800180
8000C0
800040
800060
800030
800010
800018
80000C
800004
800002
800003
800001
ENDCHAR
STARTCHAR 004C
ENCODING 76
SWIDTH 468 0
DWIDTH 26 0
BBX 19 39 6 0
BITMAP
800000
800000
800000
800000
800000
800000
800000
800000
800000
800000
800000
800000
800000
800000
800000
800000
800000
800000
800000
800000
800000
800000
800000
800000
800000
800000
800000
800000
800000
800000
800000
800000
800000
800000
800000
800000
800000
800000
FFFFE0
ENDCHAR
STARTCHAR 004D
ENCODING 77
SWIDTH 792 0
DWIDTH 44 0
BBX 32 39 6 0
BITMAP
C0000003
E0000003
A0000005
B000000D
90000009
88000019
8C000011
84000021
82000061
83000041
81000081
81800081
80800101
80400301
80600201
80200401
80300C01
80100801
80081801
800C1001
80042001
80066001
80024001
8001C001
80018001
80000001
80000001
80000001
80000001
80000001
80000001
80000001
80000001
80000001
80000001
80000001
80000001
80000001
80000001
ENDCHAR
STARTCHAR 004E
ENCODING 78
SWIDTH 684 0
DWIDTH 38 0
BBX 26 39 6 0
BITMAP
C0000040
E0000040
A0000040
B0000040
90000040
88000040
8C000040
84000040
82000040
83000040
81000040
81800040
80800040
80400040
80600040
80200040
80100040
80180040
80080040
800C0040
80040040
80020040
80030040
80010040
80008040
8000C040
80004040
80006040
80002040
80001040
80001840
80000840
80000440
80000640
80000240
80000340
80000140
800000C0
800000C0
ENDCHAR
STARTCHAR 004F
ENCODING 79
SWIDTH 666 0
DWIDTH 37 0
BBX 30 40 4 -1
BITMAP
007FF800
01C00E00
03000300
06000180
080000C0
18000060
30000020
20000030
20000010
40000018
40000008
40000008
C0000008
C0000008
8000000C
8000000C
8000000C
80000004
80000004
80000004
80000004
80000004
8000000C
8000000C
8000000C
C0000008
C0000008
40000008
40000008
40000018
60000010
20000010
30000020
10000060
08000040
0C000080
06000300
01800E00
007CF800
0007C000
ENDCHAR
STARTCHAR 0050
ENCODING 80
SWIDTH 594 0
DWIDTH 33 0
BBX 25 39 6 0
BITMAP
FFFFC000
80007000
80001C00
80000400
80000200
80000300
80000100
80000100
80000100
80000180
80000180
80000180
80000100
80000100
80000100
80000300
80000200
80000600
80000C00
80003800
FFFFE000
80000000
80000000
80000000
80000000
80000000
80000000
80000000
80000000
80000000
80000000
80000000
80000000
80000000
80000000
80000000
80000000
80000000
80000000
ENDCHAR
STARTCHAR 0051
ENCODING 81
SWIDTH 666 0
DWIDTH 37 0
BBX 30 47 4 -8
BITMAP
007FF800
01C00E00
03000300
06000180
080000C0
18000060
30000020
20000030
20000010
40000018
40000008
40000008
C0000008
C0000008
8000000C
8000000C
8000000C
80000004
80000004
80000004
80000004
80000004
8000000C
8000000C
8000000C
C000000C
C0000008
40000008
40000008
40000018
60000010
20000010
30000020
10000060
08000040
0C000080
02000300
01800E00
007CF800
00078000
00030000
00030000
00030000
00030000
00030000
00030000
0001F800
ENDCHAR
STARTCHAR 0052
ENCODING 82
SWIDTH 630 0
DWIDTH 35 0
BBX 25 39 6 0
BITMAP
FFFFC000
80007000
80001C00
80000400
80000200
80000300
80000100
80000100
80000100
80000180
80000180
80000180
80000100
80000100
80000100
80000300
80000200
80000600
80000C00
80003800
FFFFE000
80020000
80030000
80010000
80018000
80008000
80004000
80006000
80002000
80003000
80001000
80000800
80000C00
80000400
80000600
80000200
80000100
80000180
80000080
ENDCHAR
STARTCHAR 0053
ENCODING 83
SWIDTH 540 0
DWIDTH 30 0
BBX 25 40 2 -1
BITMAP
01FFE000
07003800
0C000C00
10000200
30000100
20000100
20000000
60000000
40000000
40000000
40000000
60000000
20000000
20000000
10000000
18000000
0C000000
03800000
00F80000
000FC000
00007000
00000C00
00000600
00000300
00000100
00000180
00000080
00000080
00000080
00000080
00000080
00000080
00000180
C0000100
60000100
30000200
18000600
06001800
01FBF000
002F0000
ENDCHAR
STARTCHAR 0054
ENCODING 84
SWIDTH 558 0
DWIDTH 31 0
BBX 29 39 1 0
BITMAP
FFFFFFF8
00020000
00020000
00020000
00020000
00020000
00020000
00020000
00020000
00020000
00020000
00020000
00020000
00020000
00020000
00020000
00020000
00020000
00020000
00020000
00020000
00020000
00020000
00020000
00020000
00020000
00020000
00020000
00020000
00020000
00020000
00020000
00020000
00020000
00020000
00020000
00020000
00020000
00020000
ENDCHAR
STARTCHAR 0055
ENCODING 85
SWIDTH 648 0
DWIDTH 36 0
BBX 25 40 6 -1
BITMAP
80000180
80000180
80000180
80000180
80000180
80000180
80000180
80000180
80000180
80000180
80000180
80000180
80000180
80000180
80000180
80000180
80000180
80000180
80000180
80000180
80000180
80000180
80000180
80000180
80000180
80000180
80000180
80000180
80000100
80000100
80000100
80000100
C0000300
40000200
60000200
20000400
10000C00
0C003000
07E7E000
007E0000
ENDCHAR
STARTCHAR 0056
ENCODING 86
SWIDTH 558 0
DWIDTH 31 0
BBX 28 39 2 0
BITMAP
80000010
80000030
C0000020
40000020
40000060
60000040
20000040
200000C0
10000080
10000080
18000100
08000100
08000100
0C000200
04000200
04000600
06000400
02000400
02000C00
03000800
01000800
01001800
01801000
00801000
00803000
00C02000
00402000
00406000
00604000
00204000
0020C000
00308000
00108000
00118000
00190000
00090000
000B0000
000E0000
00060000
ENDCHAR
STARTCHAR 0057
ENCODING 87
SWIDTH 864 0
DWIDTH 48 0
BBX 45 39 2 0
BITMAP
800006000018
800006000010
C00005000010
40000D000010
400009000030
400009800020
600008800020
200010800020
200010800060
200010400040
300030400040
1000204000C0
1000206000C0
180020200080
180060200080
080040200180
080040300100
0C00C0100100
040080100100
040080180300
040080080200
060180080200
020100080200
0201000C0600
020100040400
030200040400
010200040400
010200020C00
010600020800
018400020800
008400031800
008400011000
00C800011000
004800011000
00480000B000
00580000A000
00700000A000
00300000E000
003000006000
ENDCHAR
STARTCHAR 0058
ENCODING 88
SWIDTH 558 0
DWIDTH 31 0
BBX 27 39 2 0
BITMAP
C0000060
40000040
20000080
30000180
10000100
08000200
0C000600
04000400
02000800
03001800
01001000
00802000
00C06000
00404000
00208000
00318000
00110000
000A0000
000E0000
00060000
000A0000
001B0000
00118000
00208000
0060C000
00404000
00802000
01803000
01001000
02000800
06000C00
04000400
08000200
18000300
10000100
20000080
600000C0
40000040
80000020
ENDCHAR
STARTCHAR 0059
ENCODING 89
SWIDTH 540 0
DWIDTH 30 0
BBX 28 39 1 0
BITMAP
C0000010
40000020
20000060
30000040
100000C0
18000080
08000100
04000300
06000200
02000600
03000400
01000800
01801800
00C01000
00403000
00602000
00204000
0030C000
00108000
00098000
000D0000
00060000
00060000
00020000
00020000
00020000
00020000
00020000
00020000
00020000
00020000
00020000
00020000
00020000
00020000
00020000
00020000
00020000
00020000
ENDCHAR
STARTCHAR 005A
ENCODING 90
SWIDTH 540 0
DWIDTH 30 0
BBX 27 39 2 0
BITMAP
7FFFFFC0
00000040
00000080
00000180
00000100
00000200
00000600
00000400
00000800
00001800
00001000
00002000
00006000
00004000
00008000
00018000
00010000
00020000
00060000
000C0000
00080000
00180000
00300000
00200000
00600000
00C00000
00800000
01800000
03000000
02000000
06000000
0C000000
08000000
10000000
30000000
20000000
40000000
C0000000
FFFFFFE0
ENDCHAR
STARTCHAR 005B
ENCODING 91
SWIDTH 288 0
DWIDTH 16 0
BBX 7 50 6 -8
BITMAP
FE
80
80
80
80
80
80
80
80
80
80
80
80
80
80
80
80
80
80
80
80
80
80
80
80
80
80
80
80
80
80
80
80
80
80
80
80
80
80
80
80
80
80
80
80
80
80
80
80
FE
ENDCHAR
STARTCHAR 005C
ENCODING 92
SWIDTH 306 0
DWIDTH 17 0
BBX 14 49 2 -8
BITMAP
C000
4000
4000
4000
6000
2000
2000
2000
1000
1000
1000
1000
0800
0800
0800
0800
0400
0400
0400
0600
0200
0200
0200
0300
0100
0100
0100
0180
0080
0080
0080
0040
0040
0040
0040
0020
0020
0020
0020
0010
0010
0010
0018
0008
0008
0008
000C
0004
0004
ENDCHAR
STARTCHAR 005D
ENCODING 93
SWIDTH 288 0
DWIDTH 16 0
BBX 7 50 4 -8
BITMAP
FE
02
02
02
02
02
02
02
02
02
02
02
02
02
02
02
02
02
02
02
02
02
02
02
02
02
02
02
02
02
02
02
02
02
02
02
02
02
02
02
02
02
02
02
02
02
02
02
02
FE
ENDCHAR
STARTCHAR 005E
ENCODING 94
SWIDTH 594 0
DWIDTH 33 0
BBX 26 21 4 18
BITMAP
00080000
001C0000
00160000
00220000
00610000
00410000
00C08000
0080C000
01004000
03002000
02003000
06001000
04001800
08000800
18000400
10000600
30000200
20000300
40000100
C0000080
800000C0
ENDCHAR
STARTCHAR 005F
ENCODING 95
SWIDTH 558 0
DWIDTH 31 0
BBX 28 1 2 -8
BITMAP
FFFFFFF0
ENDCHAR
STARTCHAR 0060
ENCODING 96
SWIDTH 594 0
DWIDTH 33 0
BBX 6 8 12 34
BITMAP
80
C0
60
20
10
18
08
04
ENDCHAR
STARTCHAR 0061
ENCODING 97
SWIDTH 504 0
DWIDTH 28 0
BBX 25 30 3 -1
BITMAP
00FC0000
07870000
0C00C000
10004000
20002000
20002000
00003000
00001000
00001000
00001000
00001000
00001000
00001000
00001000
07FFF000
1C001000
30001000
60001000
40001000
40001000
C0001000
C0001000
C0001000
40003000
40003000
40005000
20009000
10011000
0F9E1F80
01E00000
ENDCHAR
STARTCHAR 0062
ENCODING 98
SWIDTH 558 0
DWIDTH 31 0
BBX 22 42 6 -1
BITMAP
800000
800000
800000
800000
800000
800000
800000
800000
800000
800000
800000
800000
80F800
870700
9801C0
B00060
A00020
C00010
800018
800008
800008
80000C
800004
800004
800004
800004
800004
800004
800004
800004
800004
800004
80000C
800008
800008
800018
C00010
A00020
B00040
980180
878F00
007000
ENDCHAR
STARTCHAR 0063
ENCODING 99
SWIDTH 486 0
DWIDTH 27 0
BBX 22 30 3 -1
BITMAP
007C00
03C380
060060
080030
100010
300008
200000
600000
400000
400000
400000
400000
C00000
C00000
C00000
C00000
C00000
C00000
400000
400000
400000
400000
600000
200000
30000C
100018
080030
060060
03E780
003C00
ENDCHAR
STARTCHAR 0064
ENCODING 100
SWIDTH 558 0
DWIDTH 31 0
BBX 23 42 3 -1
BITMAP
000006
000006
000006
000006
000006
000006
000006
000006
000006
000006
000006
000006
007C06
03C3C6
060066
080016
10000E
30000E
200006
600006
400006
400006
400006
C00006
C00006
C00006
C00006
C00006
C00006
C00006
400006
400006
400006
400006
600006
200006
30000E
10000E
0C0016
060066
01E386
003800
ENDCHAR
STARTCHAR 0065
ENCODING 101
SWIDTH 522 0
DWIDTH 29 0
BBX 23 30 3 -1
BITMAP
007E00
03C380
060060
080030
100018
300008
20000C
600004
400004
400002
400002
400002
C00002
C00002
FFFFFE
C00000
C00000
C00000
400000
400000
400000
400000
600006
200004
30000C
100008
0C0010
060060
01E7C0
003C00
ENDCHAR
STARTCHAR 0066
ENCODING 102
SWIDTH 270 0
DWIDTH 15 0
BBX 12 41 2 0
BITMAP
07F0
0400
0400
0400
0400
0400
0400
0400
0400
0400
0400
0400
0400
FFF0
0400
0400
0400
0400
0400
0400
0400
0400
0400
0400
0400
0400
0400
0400
0400
0400
0400
0400
0400
0400
0400
0400
0400
0400
0400
0400
0400
ENDCHAR
STARTCHAR 0067
ENCODING 103
SWIDTH 522 0
DWIDTH 29 0
BBX 25 43 3 -12
BITMAP
00003F80
00002000
007C2000
0383A000
06006000
08002000
10001000
10001000
30000800
20000800
20000800
20000800
20000800
20000800
30000800
10001800
10001000
08002000
04006000
03818000
03FE0000
0C000000
18000000
10000000
20000000
20000000
10000000
18000000
07FFF000
0C001C00
30000200
60000100
C0000180
80000080
80000080
80000080
80000180
80000100
C0000300
60000600
30000C00
0F01F000
00FF0000
ENDCHAR
STARTCHAR 0068
ENCODING 104
SWIDTH 540 0
DWIDTH 30 0
BBX 20 41 6 0
BITMAP
800000
800000
800000
800000
800000
800000
800000
800000
800000
800000
800000
800000
81F800
8F0E00
980180
A000C0
C00040
C00060
800020
800020
800020
800030
800030
800030
800030
800030
800030
800030
800030
800030
800030
800030
800030
800030
800030
800030
800030
800030
800030
800030
800030
ENDCHAR
STARTCHAR 0069
ENCODING 105
SWIDTH 216 0
DWIDTH 12 0
BBX 3 40 5 0
BITMAP
E0
E0
40
00
00
00
00
00
00
00
00
00
40
40
40
40
40
40
40
40
40
40
40
40
40
40
40
40
40
40
40
40
40
40
40
40
40
40
40
40
ENDCHAR
STARTCHAR 006A
ENCODING 106
SWIDTH 216 0
DWIDTH 12 0
BBX 7 51 1 -11
BITMAP
0E
0E
04
00
00
00
00
00
00
00
00
00
04
04
04
04
04
04
04
04
04
04
04
04
04
04
04
04
04
04
04
04
04
04
04
04
04
04
04
04
04
04
04
04
04
04
04
04
04
04
FC
ENDCHAR
STARTCHAR 006B
ENCODING 107
SWIDTH 486 0
DWIDTH 27 0
BBX 20 41 6 0
BITMAP
800000
800000
800000
800000
800000
800000
800000
800000
800000
800000
800000
800000
800000
8000C0
800180
800300
800600
800C00
801800
803000
806000
80C000
818000
830000
860000
8E0000
990000
B18000
E0C000
C06000
802000
801000
800800
800C00
800600
800300
800100
800080
800040
800060
800030
ENDCHAR
STARTCHAR 006C
ENCODING 108
SWIDTH 234 0
DWIDTH 13 0
BBX 6 41 6 0
BITMAP
80
80
80
80
80
80
80
80
80
80
80
80
80
80
80
80
80
80
80
80
80
80
80
80
80
80
80
80
80
80
80
80
80
80
80
80
80
80
80
80
FC
ENDCHAR
STARTCHAR 006D
ENCODING 109
SWIDTH 864 0
DWIDTH 48 0
BBX 38 29 6 0
BITMAP
01F0003E00
8F0E03C380
9803060060
A0008C0030
C000480010
C000500018
8000700008
8000200008
8000200008
800020000C
800020000C
800020000C
800020000C
800020000C
800020000C
800020000C
800020000C
800020000C
800020000C
800020000C
800020000C
800020000C
800020000C
800020000C
800020000C
800020000C
800020000C
800020000C
800020000C
ENDCHAR
STARTCHAR 006E
ENCODING 110
SWIDTH 540 0
DWIDTH 30 0
BBX 20 29 6 0
BITMAP
01F800
8F0E00
980180
A000C0
C00040
C00060
800020
800020
800020
800030
800030
800030
800030
800030
800030
800030
800030
800030
800030
800030
800030
800030
800030
800030
800030
800030
800030
800030
800030
ENDCHAR
STARTCHAR 006F
ENCODING 111
SWIDTH 540 0
DWIDTH 30 0
BBX 24 30 3 -1
BITMAP
007E00
03C3C0
060060
080010
100008
30000C
200004
600006
400002
400002
400002
400002
C00003
C00003
C00003
C00003
C00003
C00003
400002
400002
400002
400002
600006
200004
30000C
100008
080010
060060
03E7C0
003C00
ENDCHAR
STARTCHAR 0070
ENCODING 112
SWIDTH 558 0
DWIDTH 31 0
BBX 22 40 6 -11
BITMAP
00F800
870700
9801C0
B00060
A00020
C00010
800018
800008
800008
80000C
800004
800004
800004
800004
800004
800004
800004
800004
800004
800004
80000C
800008
800008
800018
C00010
A00020
B00040
980180
878F00
807000
800000
800000
800000
800000
800000
800000
800000
800000
800000
800000
ENDCHAR
STARTCHAR 0071
ENCODING 113
SWIDTH 558 0
DWIDTH 31 0
BBX 23 40 3 -11
BITMAP
007C00
03C3C6
060066
080016
10000E
30000E
200006
600006
400006
400006
400006
C00006
C00006
C00006
C00006
C00006
C00006
C00006
400006
400006
400006
400006
600006
200006
30000E
10000E
0C0016
060066
01E386
003806
000006
000006
000006
000006
000006
000006
000006
000006
000006
000006
ENDCHAR
STARTCHAR 0072
ENCODING 114
SWIDTH 324 0
DWIDTH 18 0
BBX 12 28 6 0
BITMAP
83F0
8C00
9000
A000
C000
C000
8000
8000
8000
8000
8000
8000
8000
8000
8000
8000
8000
8000
8000
8000
8000
8000
8000
8000
8000
8000
8000
8000
ENDCHAR
STARTCHAR 0073
ENCODING 115
SWIDTH 450 0
DWIDTH 25 0
BBX 19 30 3 -1
BITMAP
01F800
0F0E00
100180
2000C0
400060
400000
400000
400000
400000
400000
400000
200000
100000
0E0000
03F800
000F00
000180
0000C0
000060
000020
000020
000020
000020
000020
800020
C00060
600040
180180
0F9F00
00F000
ENDCHAR
STARTCHAR 0074
ENCODING 116
SWIDTH 306 0
DWIDTH 17 0
BBX 13 36 2 0
BITMAP
0400
0400
0400
0400
0400
0400
0400
0400
FFF8
0400
0400
0400
0400
0400
0400
0400
0400
0400
0400
0400
0400
0400
0400
0400
0400
0400
0400
0400
0400
0400
0400
0400
0400
0400
0400
07F0
ENDCHAR
STARTCHAR 0075
ENCODING 117
SWIDTH 540 0
DWIDTH 30 0
BBX 20 29 5 -1
BITMAP
800010
800010
800010
800010
800010
800010
800010
800010
800010
800010
800010
800010
800010
800010
800010
800010
800010
800010
800010
800010
C00010
400010
400010
400030
200050
3000D0
180190
079E10
01F000
ENDCHAR
STARTCHAR 0076
ENCODING 118
SWIDTH 450 0
DWIDTH 25 0
BBX 22 28 2 0
BITMAP
80000C
800008
C00008
400010
400010
600030
200020
200020
100060
100040
180040
080080
080080
0C0080
040100
040100
020300
020200
020200
010400
010400
018400
008800
008800
005800
005000
005000
002000
ENDCHAR
STARTCHAR 0077
ENCODING 119
SWIDTH 720 0
DWIDTH 40 0
BBX 36 28 2 0
BITMAP
8000600010
C000600010
4000700030
4000D00020
6000900020
2000980060
2000880040
2001080040
1001080040
1001040080
1002040080
1802040080
0802020180
0804020100
0C04020100
0404030300
040C010200
0408010200
0208018200
0218008400
0210008400
0110008400
0110004800
0120004800
01A0004800
00A0003800
00C0003000
00C0003000
ENDCHAR
STARTCHAR 0078
ENCODING 120
SWIDTH 468 0
DWIDTH 26 0
BBX 22 28 2 0
BITMAP
40000C
600018
200010
100020
080060
0C0040
040080
020100
030300
018200
008400
004C00
007800
003000
003000
004800
00CC00
008600
010200
020100
060180
040080
080040
180020
300030
200010
400008
C00004
ENDCHAR
STARTCHAR 0079
ENCODING 121
SWIDTH 450 0
DWIDTH 25 0
BBX 22 39 2 -11
BITMAP
80000C
800008
C00008
400010
400010
600030
200020
200020
100060
100040
180040
080080
080080
0C0080
040100
040100
020300
020200
020200
010400
010400
018400
008800
008800
005800
005000
005000
003000
002000
002000
004000
004000
00C000
008000
008000
018000
010000
010000
7E0000
ENDCHAR
STARTCHAR 007A
ENCODING 122
SWIDTH 414 0
DWIDTH 23 0
BBX 21 28 1 0
BITMAP
7FFFF0
000010
000020
000060
000040
000080
000180
000300
000200
000400
000C00
000800
001000
002000
006000
004000
008000
018000
010000
020000
040000
0C0000
080000
100000
200000
600000
400000
FFFFF8
ENDCHAR
STARTCHAR 007B
ENCODING 123
SWIDTH 306 0
DWIDTH 17 0
BBX 13 50 1 -8
BITMAP
03F8
0200
0200
0200
0200
0200
0200
0200
0200
0200
0200
0200
0200
0200
0200
0200
0200
0200
0200
0200
0600
0400
0C00
F000
8000
E000
1800
0400
0600
0200
0200
0200
0200
0200
0200
0200
0200
0200
0200
0200
0200
0200
0200
0200
0200
0200
0200
0200
0200
01F8
ENDCHAR
STARTCHAR 007C
ENCODING 124
SWIDTH 234 0
DWIDTH 13 0
BBX 1 50 6 -8
BITMAP
80
80
80
80
80
80
80
80
80
80
80
80
80
80
80
80
80
80
80
80
80
80
80
80
80
80
80
80
80
80
80
80
80
80
80
80
80
80
80
80
80
80
80
80
80
80
80
80
80
80
ENDCHAR
STARTCHAR 007D
ENCODING 125
SWIDTH 306 0
DWIDTH 17 0
BBX 12 50 4 -8
BITMAP
FE00
0200
0200
0200
0200
0200
0200
0200
0200
0200
0200
0200
0200
0200
0200
0200
0200
0200
0200
0200
0200
0200
0180
00F0
0010
0070
0180
0300
0200
0200
0200
0200
0200
0200
0200
0200
0200
0200
0200
0200
0200
0200
0200
0200
0200
0200
0200
0200
0200
FC00
ENDCHAR
STARTCHAR 007E
ENCODING 126
SWIDTH 594 0
DWIDTH 33 0
BBX 25 6 4 14
BITMAP
06000000
3FC00000
C0380000
800E0080
0003C700
00007C00
ENDCHAR
STARTCHAR 00A0
ENCODING 160
SWIDTH 234 0
DWIDTH 13 0
BBX 0 0 0 0
BITMAP
ENDCHAR
STARTCHAR 00A1
ENCODING 161
SWIDTH 252 0
DWIDTH 14 0
BBX 3 39 6 -11
BITMAP
C0
E0
C0
00
00
00
00
00
00
00
80
80
80
80
80
80
80
80
C0
C0
C0
C0
C0
C0
C0
C0
C0
C0
C0
C0
C0
C0
C0
C0
C0
C0
C0
C0
C0
ENDCHAR
STARTCHAR 00A2
ENCODING 162
SWIDTH 486 0
DWIDTH 27 0
BBX 22 40 3 -6
BITMAP
001000
001000
001000
001000
001000
003C00
03D380
061060
081030
101010
301008
201000
601000
401000
401000
401000
C01000
C01000
C01000
C01000
C01000
C01000
C01000
401000
401000
401000
401000
601000
201000
30100C
101018
081030
061060
01F780
003E00
001000
001000
001000
001000
001000
ENDCHAR
STARTCHAR 00A3
ENCODING 163
SWIDTH 576 0
DWIDTH 32 0
BBX 25 39 4 0
BITMAP
007FE000
01803800
06000C00
04000600
08000300
18000100
10000000
10000000
30000000
30000000
20000000
20000000
30000000
30000000
10000000
10000000
18000000
08000000
08000000
0C000000
04000000
FFFFC000
06000000
02000000
02000000
02000000
02000000
02000000
02000000
02000000
06000000
04000000
04000000
0C000000
08000000
10000000
20000000
40000000
7FFFFF80
ENDCHAR
STARTCHAR 00A4
ENCODING 164
SWIDTH 576 0
DWIDTH 32 0
BBX 30 30 1 4
BITMAP
C0000004
60000008
30038010
183CF820
0CC00C40
07800280
03000100
02000180
02000080
04000080
040000C0
04000040
04000040
04000040
04000040
04000040
04000040
04000040
040000C0
04000080
06000080
02000180
03000100
07800380
04C004C0
08383860
100FC030
20000018
4000000C
00000004
ENDCHAR
STARTCHAR 00A5
ENCODING 165
SWIDTH 576 0
DWIDTH 32 0
BBX 26 39 3 0
BITMAP
80000040
C00000C0
40000080
20000180
30000100
10000200
08000600
0C000400
04000800
06001800
02001000
01003000
01802000
00804000
0040C000
00608000
00218000
00310000
00120000
000E0000
7FFFFF80
000C0000
000C0000
000C0000
000C0000
000C0000
000C0000
000C0000
000C0000
7FFFFF80
000C0000
000C0000
000C0000
000C0000
000C0000
000C0000
000C0000
000C0000
000C0000
ENDCHAR
STARTCHAR 00A6
ENCODING 166
SWIDTH 234 0
DWIDTH 13 0
BBX 1 50 6 -8
BITMAP
80
80
80
80
80
80
80
80
80
80
80
80
80
80
80
80
80
80
80
80
00
00
00
00
00
00
00
00
00
00
80
80
80
80
80
80
80
80
80
80
80
80
80
80
80
80
80
80
80
80
ENDCHAR
STARTCHAR 00A7
ENCODING 167
SWIDTH 558 0
DWIDTH 31 0
BBX 22 48 5 -9
BITMAP
03FF80
0600C0
180030
100000
300000
200000
200000
200000
200000
200000
300000
100000
0C0000
060000
07C000
187800
300F00
6001C0
400060
800030
800018
800008
800008
80000C
80000C
80000C
400008
600008
300018
1C0010
078020
00F0C0
001D00
000300
000080
000040
000020
000020
000020
000030
000030
000020
000020
000060
6000C0
180180
0FFE00
005000
ENDCHAR
STARTCHAR 00A8
ENCODING 168
SWIDTH 594 0
DWIDTH 33 0
BBX 13 2 10 36
BITMAP
E038
E018
ENDCHAR
STARTCHAR 00A9
ENCODING 169
SWIDTH 702 0
DWIDTH 39 0
BBX 35 40 2 -1
BITMAP
000FFF0000
007001C000
00C0003000
0300001800
0600000C00
0C00000200
0800000300
1000000100
3000000080
2003F80080
6004060040
4008020040
4010010060
C020000020
8020000020
8020000020
8060000020
8040000020
8040000020
8040000020
8040000020
8040000020
8040000020
8020000020
8020000020
C020000020
4010008020
4010010040
4008020040
20070C00C0
2000E00080
1000000180
1800000100
0C00000200
0600000400
0300000800
0180003000
006000C000
001F0F0000
0000E00000
ENDCHAR
STARTCHAR 00AA
ENCODING 170
SWIDTH 342 0
DWIDTH 19 0
BBX 16 19 2 20
BITMAP
0FE0
3030
6008
4008
000C
0004
0004
0004
0004
1FFC
2004
4004
C004
8004
800C
C00C
4014
2024
1FC7
ENDCHAR
STARTCHAR 00AB
ENCODING 171
SWIDTH 468 0
DWIDTH 26 0
BBX 21 20 2 7
BITMAP
006018
00C030
018060
0300C0
060180
0C0300
180600
200800
401000
802000
C03000
601800
300C00
080200
040100
020080
010040
00C030
006018
002008
ENDCHAR
STARTCHAR 00AC
ENCODING 172
SWIDTH 594 0
DWIDTH 33 0
BBX 26 12 3 6
BITMAP
FFFFFFC0
FFFFFFC0
00000040
00000040
00000040
00000040
00000040
00000040
00000040
00000040
00000040
00000040
ENDCHAR
STARTCHAR 00AD
ENCODING 173
SWIDTH 378 0
DWIDTH 21 0
BBX 12 2 5 16
BITMAP
FFF0
FFF0
ENDCHAR
STARTCHAR 00AE
ENCODING 174
SWIDTH 450 0
DWIDTH 25 0
BBX 22 22 2 17
BITMAP
03FF00
0C0080
180060
300030
200010
41FC08
410208
810208
810204
810204
810204
81FC04
810804
810404
81040C
410208
410208
200010
300030
180060
0C0080
03FF00
ENDCHAR
STARTCHAR 00AF
ENCODING 175
SWIDTH 594 0
DWIDTH 33 0
BBX 15 1 9 37
BITMAP
FFFE
ENDCHAR
STARTCHAR 00B0
ENCODING 176
SWIDTH 450 0
DWIDTH 25 0
BBX 18 18 4 21
BITMAP
07F800
180600
300300
600100
400080
C00080
8000C0
800040
800040
800040
800040
8000C0
400080
400080
200100
300200
0C0C00
07F800
ENDCHAR
STARTCHAR 00B1
ENCODING 177
SWIDTH 594 0
DWIDTH 33 0
BBX 27 33 3 0
BITMAP
00040000
00040000
00040000
00040000
00040000
00040000
00040000
00040000
00040000
00040000
00040000
00040000
00040000
FFFFFFE0
00040000
00040000
00040000
00040000
00040000
00040000
00040000
00040000
00040000
00040000
00040000
00040000
00040000
00000000
00000000
00000000
00000000
00000000
FFFFFFE0
ENDCHAR
STARTCHAR 00B2
ENCODING 178
SWIDTH 342 0
DWIDTH 19 0
BBX 15 21 2 18
BITMAP
0FE0
1010
2008
400C
C004
0004
0004
0004
0008
0008
0010
0020
0040
0080
0100
0600
0C00
1000
2000
4000
FFFE
ENDCHAR
STARTCHAR 00B3
ENCODING 179
SWIDTH 342 0
DWIDTH 19 0
BBX 13 21 3 18
BITMAP
1FC0
6060
C010
0010
0018
0018
0010
0010
0020
01C0
1FC0
0030
0010
0008
0008
0008
0008
0018
8010
6060
1F80
ENDCHAR
STARTCHAR 00B4
ENCODING 180
SWIDTH 594 0
DWIDTH 33 0
BBX 7 8 15 34
BITMAP
06
0C
08
10
30
60
40
80
ENDCHAR
STARTCHAR 00B5
ENCODING 181
SWIDTH 558 0
DWIDTH 31 0
BBX 20 39 6 -11
BITMAP
800030
800030
800030
800030
800030
800030
800030
800030
800030
800030
800030
800030
800030
800030
800030
800030
800030
800030
800030
800030
800030
800030
C00030
C00030
E00070
A000B0
980130
8F3E30
80E000
800000
800000
800000
800000
800000
800000
800000
800000
800000
800000
ENDCHAR
STARTCHAR 00B6
ENCODING 182
SWIDTH 576 0
DWIDTH 32 0
BBX 24 47 3 -8
BITMAP
00FFFF
07F018
0FF018
3FF018
3FF018
7FF018
7FF018
FFF018
FFF018
FFF018
FFF018
FFF018
FFF018
FFF018
7FF018
7FF018
3FF018
1FF018
0FF018
07F018
007018
001018
001018
001018
001018
001018
001018
001018
001018
001018
001018
001018
001018
001018
001018
001018
001018
001018
001018
001018
001018
001018
001018
001018
001018
001018
001018
ENDCHAR
STARTCHAR 00B7
ENCODING 183
SWIDTH 288 0
DWIDTH 16 0
BBX 3 4 7 15
BITMAP
40
E0
E0
40
ENDCHAR
STARTCHAR 00B8
ENCODING 184
SWIDTH 594 0
DWIDTH 33 0
BBX 9 11 13 -11
BITMAP
1000
1000
1000
2000
3E00
0100
0180
0080
0180
8100
7E00
ENDCHAR
STARTCHAR 00B9
ENCODING 185
SWIDTH 360 0
DWIDTH 20 0
BBX 15 21 3 18
BITMAP
0380
0780
0D80
1180
2180
C180
8180
0180
0180
0180
0180
0180
0180
0180
0180
0180
0180
0180
0180
0180
FFFE
ENDCHAR
STARTCHAR 00BA
ENCODING 186
SWIDTH 360 0
DWIDTH 20 0
BBX 15 19 3 20
BITMAP
0FC0
3030
2018
4008
C004
8004
8006
8002
8002
8002
8002
8002
8006
8004
C004
4008
2018
1830
0FC0
ENDCHAR
STARTCHAR 00BB
ENCODING 187
SWIDTH 468 0
DWIDTH 26 0
BBX 21 21 3 6
BITMAP
802000
C03000
601800
300C00
180600
040100
020080
010040
00C030
006018
002008
006018
00C030
018060
0300C0
060180
080200
100400
200800
401000
802000
ENDCHAR
STARTCHAR 00BC
ENCODING 188
SWIDTH 846 0
DWIDTH 47 0
BBX 43 39 3 0
BITMAP
038000003000
078000002000
0D8000004000
11800000C000
218000008000
C18000010000
818000030000
018000020000
018000040000
018000040000
018000080000
018000180000
018000100000
018000200000
018000600000
018000400000
018000800000
018001800000
018001000600
018002000600
FFFE06000A00
000004001200
000008003200
000008002200
000010004200
000030008200
000020010200
000040030200
0000C0020200
000080040200
000100080200
000300180200
000200100200
0004003FFFE0
000400000200
000800000200
001800000200
001000000200
002000000200
ENDCHAR
STARTCHAR 00BD
ENCODING 189
SWIDTH 882 0
DWIDTH 49 0
BBX 44 39 3 0
BITMAP
038000003000
078000002000
0D8000004000
11800000C000
218000008000
C18000010000
818000030000
018000020000
018000040000
018000040000
018000080000
018000180000
018000100000
018000200000
018000600000
018000400000
018000800000
018001800000
018001003E00
01800200C180
FFFE06010040
000004020040
000008020020
000008000020
000010000020
000030000020
000020000040
000040000040
0000C0000080
000080000180
000100000300
000300000600
000200000800
000400001000
000400002000
00080000C000
001800010000
001000020000
00200007FFF0
ENDCHAR
STARTCHAR 00BE
ENCODING 190
SWIDTH 810 0
DWIDTH 45 0
BBX 41 39 3 0
BITMAP
1FC00000C000
606000008000
C01000010000
001000030000
001800020000
001800040000
0010000C0000
001000080000
002000100000
01C000100000
1FC000200000
003000600000
001000400000
000800800000
000801800000
000801000000
000802000000
001806000000
801004001800
606008001800
1F8018002800
000010004800
00002000C800
000020008800
000040010800
0000C0020800
000080040800
0001000C0800
000300080800
000200100800
000400200800
000C00600800
000800400800
001000FFFF80
001000000800
002000000800
006000000800
004000000800
008000000800
ENDCHAR
STARTCHAR 00BF
ENCODING 191
SWIDTH 450 0
DWIDTH 25 0
BBX 21 39 2 -11
BITMAP
003800
003800
001800
000000
000000
000000
000000
000000
000000
000000
001000
001000
001000
001000
001000
001000
001000
001000
007000
03C000
0C0000
180000
300000
600000
400000
C00000
800000
800000
800000
800000
800000
800008
C00018
400010
400030
200020
1000C0
0C0180
07FE00
ENDCHAR
STARTCHAR 00C0
ENCODING 192
SWIDTH 594 0
DWIDTH 33 0
BBX 29 51 2 1
BITMAP
00200000
00300000
00180000
00080000
00040000
00060000
00020000
00010000
00000000
00000000
00000000
00000000
00030000
00070000
00050000
00058000
000C8000
00088000
00084000
00104000
00106000
00302000
00202000
00203000
00601000
00401000
00401800
00C00800
00800800
00800C00
01000400
01000400
03000200
02000200
02000300
06000100
04000100
07FFFF80
0C000080
08000080
080000C0
18000040
10000040
30000020
20000020
20000030
60000010
40000010
40000018
C0000008
80000008
ENDCHAR
STARTCHAR 00C1
ENCODING 193
SWIDTH 594 0
DWIDTH 33 0
BBX 29 51 2 1
BITMAP
00003000
00006000
00004000
00008000
00018000
00030000
00020000
00040000
00000000
00000000
00000000
00000000
00030000
00070000
00050000
00058000
000C8000
00088000
00084000
00104000
00106000
00302000
00202000
00203000
00601000
00401000
00401800
00C00800
00800800
00800C00
01000400
01000400
03000200
02000200
02000300
06000100
04000100
07FFFF80
0C000080
08000080
080000C0
18000040
10000040
30000020
20000020
20000030
60000010
40000010
40000018
C0000008
80000008
ENDCHAR
STARTCHAR 00C2
ENCODING 194
SWIDTH 594 0
DWIDTH 33 0
BBX 29 51 2 0
BITMAP
00070000
000D8000
0018C000
00306000
00603000
00C01800
01800C00
01000400
00000000
00000000
00000000
00000000
00030000
00070000
00050000
00058000
000C8000
00088000
00084000
00104000
00106000
00302000
00202000
00203000
00601000
00401000
00401800
00C00800
00800800
00800C00
01000400
01000400
03000200
02000200
02000300
06000100
04000100
07FFFF80
0C000080
08000080
080000C0
18000040
10000040
30000020
20000020
20000030
60000010
40000010
40000018
C0000008
80000008
ENDCHAR
STARTCHAR 00C3
ENCODING 195
SWIDTH 594 0
DWIDTH 33 0
BBX 29 49 2 0
BITMAP
00780000
01860200
00030400
0000F800
00000000
00000000
00000000
00000000
00000000
00000000
00030000
00070000
00050000
00058000
000C8000
00088000
00084000
00104000
00106000
00302000
00202000
00203000
00601000
00401000
00401800
00C00800
00800800
00800C00
01000400
01000400
03000200
02000200
02000300
06000100
04000100
07FFFF80
0C000080
08000080
080000C0
18000040
10000040
30000020
20000020
20000030
60000010
40000010
40000018
C0000008
80000008
ENDCHAR
STARTCHAR 00C4
ENCODING 196
SWIDTH 594 0
DWIDTH 33 0
BBX 29 48 2 0
BITMAP
00E01800
00E03800
00401000
00000000
00000000
00000000
00000000
00000000
00000000
00030000
00070000
00050000
00058000
000C8000
00088000
00084000
00104000
00106000
00302000
00202000
00203000
00601000
00401000
00401800
00C00800
00800800
00800C00
01000400
01000400
03000200
02000200
02000300
06000100
04000100
07FFFF80
0C000080
08000080
080000C0
18000040
10000040
30000020
20000020
20000030
60000010
40000010
40000018
C0000008
80000008
ENDCHAR
STARTCHAR 00C5
ENCODING 197
SWIDTH 594 0
DWIDTH 33 0
BBX 29 53 2 0
BITMAP
00078000
0018C000
00302000
00202000
00201000
00201000
00203000
00202000
00106000
000FC000
00000000
00000000
00000000
00000000
00030000
00070000
00050000
00058000
000C8000
00088000
00084000
00104000
00106000
00302000
00202000
00203000
00601000
00401000
00401800
00C00800
00800800
00800C00
01000400
01000400
03000200
02000200
02000300
06000100
04000100
07FFFF80
0C000080
08000080
080000C0
18000040
10000040
30000020
20000020
20000030
60000010
40000010
40000018
C0000008
80000008
ENDCHAR
STARTCHAR 00C6
ENCODING 198
SWIDTH 846 0
DWIDTH 47 0
BBX 44 39 0 0
BITMAP
000007FFFFF0
000005000000
000009000000
000009000000
000011000000
000031000000
000021000000
000061000000
000041000000
0000C1000000
000081000000
000181000000
000101000000
000201000000
000201000000
000401000000
000C01000000
000801000000
001801000000
001001FFFFE0
003001000000
002001000000
006001000000
004001000000
008001000000
00FFFF000000
010001000000
030001000000
020001000000
060001000000
040001000000
0C0001000000
080001000000
100001000000
100001000000
200001000000
600001000000
400001000000
C00001FFFFF0
ENDCHAR
STARTCHAR 00C7
ENCODING 199
SWIDTH 594 0
DWIDTH 33 0
BBX 26 50 4 -11
BITMAP
007FE000
01801800
06000600
0C000300
08000100
10000080
300000C0
20000040
60000000
40000000
40000000
40000000
C0000000
C0000000
80000000
80000000
80000000
80000000
80000000
80000000
80000000
80000000
80000000
80000000
80000000
80000000
C0000000
40000000
40000000
40000000
60000000
20000040
30000040
10000080
18000180
0C000300
06000600
03800C00
00FDF000
000F0000
00020000
00040000
00040000
0007C000
00006000
00002000
00003000
00002000
00106000
000FC000
ENDCHAR
STARTCHAR 00C8
ENCODING 200
SWIDTH 558 0
DWIDTH 31 0
BBX 21 51 6 1
BITMAP
020000
030000
018000
008000
004000
006000
002000
001000
000000
000000
000000
000000
FFFFF8
800000
800000
800000
800000
800000
800000
800000
800000
800000
800000
800000
800000
800000
800000
800000
800000
800000
800000
FFFFF8
800000
800000
800000
800000
800000
800000
800000
800000
800000
800000
800000
800000
800000
800000
800000
800000
800000
800000
FFFFF8
ENDCHAR
STARTCHAR 00C9
ENCODING 201
SWIDTH 558 0
DWIDTH 31 0
BBX 21 51 6 1
BITMAP
000300
000600
000400
000800
001800
003000
002000
004000
000000
000000
000000
000000
FFFFF8
800000
800000
800000
800000
800000
800000
800000
800000
800000
800000
800000
800000
800000
800000
800000
800000
800000
800000
FFFFF8
800000
800000
800000
800000
800000
800000
800000
800000
800000
800000
800000
800000
800000
800000
800000
800000
800000
800000
FFFFF8
ENDCHAR
STARTCHAR 00CA
ENCODING 202
SWIDTH 558 0
DWIDTH 31 0
BBX 21 51 6 0
BITMAP
007000
00D800
018C00
030600
060300
0C0180
1800C0
100040
000000
000000
000000
000000
FFFFF8
800000
800000
800000
800000
800000
800000
800000
800000
800000
800000
800000
800000
800000
800000
800000
800000
800000
800000
FFFFF8
800000
800000
800000
800000
800000
800000
800000
800000
800000
800000
800000
800000
800000
800000
800000
800000
800000
800000
FFFFF8
ENDCHAR
STARTCHAR 00CB
ENCODING 203
SWIDTH 558 0
DWIDTH 31 0
BBX 21 48 6 0
BITMAP
0E0180
0E0380
040100
000000
000000
000000
000000
000000
000000
FFFFF8
800000
800000
800000
800000
800000
800000
800000
800000
800000
800000
800000
800000
800000
800000
800000
800000
800000
800000
FFFFF8
800000
800000
800000
800000
800000
800000
800000
800000
800000
800000
800000
800000
800000
800000
800000
800000
800000
800000
FFFFF8
ENDCHAR
STARTCHAR 00CC
ENCODING 204
SWIDTH 360 0
DWIDTH 20 0
BBX 13 51 4 1
BITMAP
6000
3000
1000
0800
0C00
0400
0200
0100
0000
0000
0000
0000
FFF8
0200
0200
0200
0200
0200
0200
0200
0200
0200
0200
0200
0200
0200
0200
0200
0200
0200
0200
0200
0200
0200
0200
0200
0200
0200
0200
0200
0200
0200
0200
0200
0200
0200
0200
0200
0200
0200
FFF8
ENDCHAR
STARTCHAR 00CD
ENCODING 205
SWIDTH 360 0
DWIDTH 20 0
BBX 13 52 4 0
BITMAP
0020
0020
0060
00C0
0080
0100
0300
0600
0400
0000
0000
0000
0000
FFF8
0200
0200
0200
0200
0200
0200
0200
0200
0200
0200
0200
0200
0200
0200
0200
0200
0200
0200
0200
0200
0200
0200
0200
0200
0200
0200
0200
0200
0200
0200
0200
0200
0200
0200
0200
0200
0200
FFF8
ENDCHAR
STARTCHAR 00CE
ENCODING 206
SWIDTH 360 0
DWIDTH 20 0
BBX 15 51 3 0
BITMAP
0380
06C0
0C60
1830
3018
600C
C006
8002
0000
0000
0000
0000
7FFC
0100
0100
0100
0100
0100
0100
0100
0100
0100
0100
0100
0100
0100
0100
0100
0100
0100
0100
0100
0100
0100
0100
0100
0100
0100
0100
0100
0100
0100
0100
0100
0100
0100
0100
0100
0100
0100
7FFC
ENDCHAR
STARTCHAR 00CF
ENCODING 207
SWIDTH 360 0
DWIDTH 20 0
BBX 13 48 4 0
BITMAP
C038
E038
0000
0000
0000
0000
0000
0000
0000
FFF8
0200
0200
0200
0200
0200
0200
0200
0200
0200
0200
0200
0200
0200
0200
0200
0200
0200
0200
0200
0200
0200
0200
0200
0200
0200
0200
0200
0200
0200
0200
0200
0200
0200
0200
0200
0200
0200
FFF8
ENDCHAR
STARTCHAR 00D0
ENCODING 208
SWIDTH 648 0
DWIDTH 36 0
BBX 31 39 2 0
BITMAP
0FFFE000
08007C00
08000300
080000C0
08000060
08000020
08000010
08000018
08000008
08000008
0800000C
08000004
08000004
08000004
08000006
08000006
08000006
08000006
FFFE0006
08000006
08000006
08000006
08000006
08000006
08000006
08000004
08000004
08000004
08000004
08000008
08000008
08000018
08000010
08000030
08000060
080000C0
08000380
08001E00
0FFFF000
ENDCHAR
STARTCHAR 00D1
ENCODING 209
SWIDTH 684 0
DWIDTH 38 0
BBX 26 49 6 0
BITMAP
01F00000
02180000
04061800
0001F000
00000000
00000000
00000000
00000000
00000000
00000000
C0000040
E0000040
A0000040
B0000040
90000040
88000040
8C000040
84000040
82000040
83000040
81000040
81800040
80800040
80400040
80600040
80200040
80100040
80180040
80080040
800C0040
80040040
80020040
80030040
80010040
80008040
8000C040
80004040
80006040
80002040
80001040
80001840
80000840
80000440
80000640
80000240
80000340
80000140
800000C0
800000C0
ENDCHAR
STARTCHAR 00D2
ENCODING 210
SWIDTH 666 0
DWIDTH 37 0
BBX 30 53 4 -1
BITMAP
00200000
00200000
00100000
00180000
000C0000
00040000
00020000
00030000
00010000
00000000
00000000
00000000
00000000
007FF800
01C00E00
03000300
06000180
080000C0
18000060
30000020
20000030
20000010
40000018
40000008
40000008
C0000008
C0000008
8000000C
8000000C
8000000C
80000004
80000004
80000004
80000004
80000004
8000000C
8000000C
8000000C
C0000008
C0000008
40000008
40000008
40000018
60000010
20000010
30000020
10000060
08000040
0C000080
06000300
01800E00
007CF800
0007C000
ENDCHAR
STARTCHAR 00D3
ENCODING 211
SWIDTH 666 0
DWIDTH 37 0
BBX 30 53 4 -1
BITMAP
00001000
00003000
00002000
00004000
0000C000
00018000
00010000
00020000
00060000
00000000
00000000
00000000
00000000
007FF800
01C00E00
03000300
06000180
080000C0
18000060
30000020
20000030
20000010
40000018
40000008
40000008
C0000008
C0000008
8000000C
8000000C
8000000C
80000004
80000004
80000004
80000004
80000004
8000000C
8000000C
8000000C
C0000008
C0000008
40000008
40000008
40000018
60000010
20000010
30000020
10000060
08000040
0C000080
06000300
01800E00
007CF800
0007C000
ENDCHAR
STARTCHAR 00D4
ENCODING 212
SWIDTH 666 0
DWIDTH 37 0
BBX 30 52 4 -1
BITMAP
00070000
000C8000
00084000
00102000
00201000
00400800
00800400
00000000
00000000
00000000
00000000
00000000
007FF800
01C00E00
03000300
06000180
080000C0
18000060
30000020
20000030
20000010
40000018
40000008
40000008
C0000008
C0000008
8000000C
8000000C
8000000C
80000004
80000004
80000004
80000004
80000004
8000000C
8000000C
8000000C
C0000008
C0000008
40000008
40000008
40000018
60000010
20000010
30000020
10000060
08000040
0C000080
06000300
01800E00
007CF800
0007C000
ENDCHAR
STARTCHAR 00D5
ENCODING 213
SWIDTH 666 0
DWIDTH 37 0
BBX 30 50 4 -1
BITMAP
00780000
01860200
01018600
0000F800
00000000
00000000
00000000
00000000
00000000
00000000
007FF800
01C00E00
03000300
06000180
080000C0
18000060
30000020
20000030
20000010
40000018
40000008
40000008
C0000008
C0000008
8000000C
8000000C
8000000C
80000004
80000004
80000004
80000004
80000004
8000000C
8000000C
8000000C
C0000008
C0000008
40000008
40000008
40000018
60000010
20000010
30000020
10000060
08000040
0C000080
06000300
01800E00
007CF800
0007C000
ENDCHAR
STARTCHAR 00D6
ENCODING 214
SWIDTH 666 0
DWIDTH 37 0
BBX 30 49 4 -1
BITMAP
00601800
00601800
00000000
00000000
00000000
00000000
00000000
00000000
00000000
007FF800
01C00E00
03000300
06000180
080000C0
18000060
30000020
20000030
20000010
40000018
40000008
40000008
C0000008
C0000008
8000000C
8000000C
8000000C
80000004
80000004
80000004
80000004
80000004
8000000C
8000000C
8000000C
C0000008
C0000008
40000008
40000008
40000018
60000010
20000010
30000020
10000060
08000040
0C000080
06000300
01800E00
007CF800
0007C000
ENDCHAR
STARTCHAR 00D7
ENCODING 215
SWIDTH 594 0
DWIDTH 33 0
BBX 21 22 6 6
BITMAP
800008
C00018
600030
300060
1800C0
0C0180
060300
030600
018C00
00D800
007000
007000
00D800
018C00
030600
060300
0C0180
1800C0
300060
600030
C00018
800008
ENDCHAR
STARTCHAR 00D8
ENCODING 216
SWIDTH 666 0
DWIDTH 37 0
BBX 30 41 4 -1
BITMAP
0000000C
007FF818
01C00E10
03000320
060001E0
080000C0
180000E0
300001A0
20000130
20000210
40000618
40000408
40000808
C0001808
C0003008
8000200C
8000400C
8000C00C
80008004
80010004
80030004
80020004
80040004
800C000C
8018000C
8010000C
C0200008
C0600008
40400008
40800008
41800018
21000010
22000010
36000020
1C000060
08000040
1C000080
36000300
21800E00
407CF800
C007C000
ENDCHAR
STARTCHAR 00D9
ENCODING 217
SWIDTH 648 0
DWIDTH 36 0
BBX 25 53 6 -1
BITMAP
01000000
01800000
00800000
00400000
00600000
00200000
00100000
00080000
000C0000
00000000
00000000
00000000
00000000
80000180
80000180
80000180
80000180
80000180
80000180
80000180
80000180
80000180
80000180
80000180
80000180
80000180
80000180
80000180
80000180
80000180
80000180
80000180
80000180
80000180
80000180
80000180
80000180
80000180
80000180
80000180
80000180
80000100
80000100
80000100
80000100
C0000300
40000200
60000200
20000400
10000C00
0C003000
07E7E000
007E0000
ENDCHAR
STARTCHAR 00DA
ENCODING 218
SWIDTH 648 0
DWIDTH 36 0
BBX 25 53 6 -1
BITMAP
00008000
00018000
00010000
00030000
00060000
00040000
00080000
00180000
00300000
00000000
00000000
00000000
00000000
80000180
80000180
80000180
80000180
80000180
80000180
80000180
80000180
80000180
80000180
80000180
80000180
80000180
80000180
80000180
80000180
80000180
80000180
80000180
80000180
80000180
80000180
80000180
80000180
80000180
80000180
80000180
80000180
80000100
80000100
80000100
80000100
C0000300
40000200
60000200
20000400
10000C00
0C003000
07E7E000
007E0000
ENDCHAR
STARTCHAR 00DB
ENCODING 219
SWIDTH 648 0
DWIDTH 36 0
BBX 25 52 6 -1
BITMAP
00180000
00240000
00420000
00810000
01008000
02004000
04002000
00000000
00000000
00000000
00000000
00000000
80000180
80000180
80000180
80000180
80000180
80000180
80000180
80000180
80000180
80000180
80000180
80000180
80000180
80000180
80000180
80000180
80000180
80000180
80000180
80000180
80000180
80000180
80000180
80000180
80000180
80000180
80000180
80000180
80000100
80000100
80000100
80000100
C0000300
40000200
60000200
20000400
10000C00
0C003000
07E7E000
007E0000
ENDCHAR
STARTCHAR 00DC
ENCODING 220
SWIDTH 648 0
DWIDTH 36 0
BBX 25 49 6 -1
BITMAP
0300C000
0300C000
00000000
00000000
00000000
00000000
00000000
00000000
00000000
80000180
80000180
80000180
80000180
80000180
80000180
80000180
80000180
80000180
80000180
80000180
80000180
80000180
80000180
80000180
80000180
80000180
80000180
80000180
80000180
80000180
80000180
80000180
80000180
80000180
80000180
80000180
80000180
80000100
80000100
80000100
80000100
C0000300
40000200
60000200
20000400
10000C00
0C003000
07E7E000
007E0000
ENDCHAR
STARTCHAR 00DD
ENCODING 221
SWIDTH 540 0
DWIDTH 30 0
BBX 28 52 1 0
BITMAP
00002000
00002000
00004000
0000C000
00018000
00010000
00020000
00060000
00040000
00000000
00000000
00000000
00000000
C0000010
40000020
20000060
30000040
100000C0
18000080
08000100
04000300
06000200
02000600
03000400
01000800
01801800
00C01000
00403000
00602000
00204000
0030C000
00108000
00098000
000D0000
00060000
00060000
00020000
00020000
00020000
00020000
00020000
00020000
00020000
00020000
00020000
00020000
00020000
00020000
00020000
00020000
00020000
00020000
ENDCHAR
STARTCHAR 00DE
ENCODING 222
SWIDTH 594 0
DWIDTH 33 0
BBX 25 39 6 0
BITMAP
80000000
80000000
80000000
80000000
80000000
80000000
80000000
80000000
80000000
FFFFE000
80003800
80000C00
80000600
80000200
80000300
80000100
80000100
80000100
80000180
80000180
80000180
80000100
80000100
80000100
80000300
80000200
80000600
80000C00
80007000
FFFFC000
80000000
80000000
80000000
80000000
80000000
80000000
80000000
80000000
80000000
ENDCHAR
STARTCHAR 00DF
ENCODING 223
SWIDTH 630 0
DWIDTH 35 0
BBX 31 43 2 -1
BITMAP
0003E000
001C1C00
00600600
00C00100
00800080
010000C0
01000040
02000040
02000060
02000020
02000020
06000020
06000020
06000020
FE0007E0
06003800
06004000
06008000
06010000
06010000
06010000
06010000
06010000
06010000
06018000
0600C000
06007000
06000F00
060001E0
06000018
0600000C
06000004
06000002
06000002
06000002
06000002
06000002
06180002
060C0004
0606000C
06038018
0600F9F0
00000F80
ENDCHAR
STARTCHAR 00E0
ENCODING 224
SWIDTH 504 0
DWIDTH 28 0
BBX 25 43 3 -1
BITMAP
02000000
02000000
01000000
01800000
00C00000
00400000
00200000
00300000
00100000
00000000
00000000
00000000
00000000
00FC0000
07870000
0C00C000
10004000
20002000
20002000
00003000
00001000
00001000
00001000
00001000
00001000
00001000
00001000
07FFF000
1C001000
30001000
60001000
40001000
40001000
C0001000
C0001000
C0001000
40003000
40003000
40005000
20009000
10011000
0F9E1F80
01E00000
ENDCHAR
STARTCHAR 00E1
ENCODING 225
SWIDTH 504 0
DWIDTH 28 0
BBX 25 43 3 -1
BITMAP
00010000
00030000
00020000
00040000
000C0000
00180000
00100000
00200000
00600000
00000000
00000000
00000000
00000000
00FC0000
07870000
0C00C000
10004000
20002000
20002000
00003000
00001000
00001000
00001000
00001000
00001000
00001000
00001000
07FFF000
1C001000
30001000
60001000
40001000
40001000
C0001000
C0001000
C0001000
40003000
40003000
40005000
20009000
10011000
0F9E1F80
01E00000
ENDCHAR
STARTCHAR 00E2
ENCODING 226
SWIDTH 504 0
DWIDTH 28 0
BBX 25 42 3 -1
BITMAP
00700000
00C80000
00840000
01020000
02010000
04008000
08004000
00000000
00000000
00000000
00000000
00000000
00FC0000
07870000
0C00C000
10004000
20002000
20002000
00003000
00001000
00001000
00001000
00001000
00001000
00001000
00001000
07FFF000
1C001000
30001000
60001000
40001000
40001000
C0001000
C0001000
C0001000
40003000
40003000
40005000
20009000
10011000
0F9E1F80
01E00000
ENDCHAR
STARTCHAR 00E3
ENCODING 227
SWIDTH 504 0
DWIDTH 28 0
BBX 25 40 3 -1
BITMAP
07800000
18602000
10186000
000F8000
00000000
00000000
00000000
00000000
00000000
00000000
00FC0000
07870000
0C00C000
10004000
20002000
20002000
00003000
00001000
00001000
00001000
00001000
00001000
00001000
00001000
07FFF000
1C001000
30001000
60001000
40001000
40001000
C0001000
C0001000
C0001000
40003000
40003000
40005000
20009000
10011000
0F9E1F80
01E00000
ENDCHAR
STARTCHAR 00E4
ENCODING 228
SWIDTH 504 0
DWIDTH 28 0
BBX 25 39 3 -1
BITMAP
06018000
06018000
00000000
00000000
00000000
00000000
00000000
00000000
00000000
00FC0000
07870000
0C00C000
10004000
20002000
20002000
00003000
00001000
00001000
00001000
00001000
00001000
00001000
00001000
07FFF000
1C001000
30001000
60001000
40001000
40001000
C0001000
C0001000
C0001000
40003000
40003000
40005000
20009000
10011000
0F9E1F80
01E00000
ENDCHAR
STARTCHAR 00E5
ENCODING 229
SWIDTH 504 0
DWIDTH 28 0
BBX 25 44 3 -1
BITMAP
00780000
01840000
01020000
02010000
02010000
02010000
02010000
02020000
01060000
00FC0000
00000000
00000000
00000000
00000000
00FC0000
07870000
0C00C000
10004000
20002000
20002000
00003000
00001000
00001000
00001000
00001000
00001000
00001000
00001000
07FFF000
1C001000
30001000
60001000
40001000
40001000
C0001000
C0001000
C0001000
40003000
40003000
40005000
20009000
10011000
0F9E1F80
01E00000
ENDCHAR
STARTCHAR 00E6
ENCODING 230
SWIDTH 846 0
DWIDTH 47 0
BBX 42 30 3 -1
BITMAP
00F8000F8000
07070070E000
180181801800
100043000C00
200066000600
600024000200
000028000100
000028000100
000018000080
000010000080
000010000080
000010000080
000010000080
000010000080
07FFFFFFFFC0
180010000000
300010000000
600010000000
400010000000
C00010000000
800010000000
800018000000
800028000080
800028000100
C00024000100
400046000200
600083000400
300301801800
0F1E0079F000
01E000070000
ENDCHAR
STARTCHAR 00E7
ENCODING 231
SWIDTH 486 0
DWIDTH 27 0
BBX 22 40 3 -11
BITMAP
007C00
03C380
060060
080030
100010
300008
200000
600000
400000
400000
400000
400000
C00000
C00000
C00000
C00000
C00000
C00000
400000
400000
400000
400000
600000
200000
30000C
100018
080030
060060
03E7C0
007E00
001000
001000
001000
001F00
000180
000080
000080
000080
00C100
007E00
ENDCHAR
STARTCHAR 00E8
ENCODING 232
SWIDTH 522 0
DWIDTH 29 0
BBX 23 43 3 -1
BITMAP
010000
010000
008000
00C000
006000
002000
001000
001800
000C00
000000
000000
000000
000000
007E00
03C380
060060
080030
100018
300008
20000C
600004
400004
400002
400002
400002
C00002
C00002
FFFFFE
C00000
C00000
C00000
400000
400000
400000
400000
600006
200004
30000C
100008
0C0010
060060
01E7C0
003C00
ENDCHAR
STARTCHAR 00E9
ENCODING 233
SWIDTH 522 0
DWIDTH 29 0
BBX 23 43 3 -1
BITMAP
000080
000180
000100
000200
000600
000C00
000800
001000
003000
000000
000000
000000
000000
007E00
03C380
060060
080030
100018
300008
20000C
600004
400004
400002
400002
400002
C00002
C00002
FFFFFE
C00000
C00000
C00000
400000
400000
400000
400000
600006
200004
30000C
100008
0C0010
060060
01E7C0
003C00
ENDCHAR
STARTCHAR 00EA
ENCODING 234
SWIDTH 522 0
DWIDTH 29 0
BBX 23 42 3 -1
BITMAP
001800
002400
004200
008100
010080
020040
040020
000000
000000
000000
000000
000000
007E00
03C380
060060
080030
100018
300008
20000C
600004
400004
400002
400002
400002
C00002
C00002
FFFFFE
C00000
C00000
C00000
400000
400000
400000
400000
600006
200004
30000C
100008
0C0010
060060
01E7C0
003C00
ENDCHAR
STARTCHAR 00EB
ENCODING 235
SWIDTH 522 0
DWIDTH 29 0
BBX 23 39 3 -1
BITMAP
0300C0
0300C0
000000
000000
000000
000000
000000
000000
000000
007E00
03C380
060060
080030
100018
300008
20000C
600004
400004
400002
400002
400002
C00002
C00002
FFFFFE
C00000
C00000
C00000
400000
400000
400000
400000
600006
200004
30000C
100008
0C0010
060060
01E7C0
003C00
ENDCHAR
STARTCHAR 00EC
ENCODING 236
SWIDTH 216 0
DWIDTH 12 0
BBX 7 41 1 1
BITMAP
C0
60
20
10
18
0C
04
02
00
00
00
00
00
04
04
04
04
04
04
04
04
04
04
04
04
04
04
04
04
04
04
04
04
04
04
04
04
04
04
04
04
ENDCHAR
STARTCHAR 00ED
ENCODING 237
SWIDTH 216 0
DWIDTH 12 0
BBX 6 41 5 1
BITMAP
04
0C
18
10
20
60
40
80
00
00
00
00
00
40
40
40
40
40
40
40
40
40
40
40
40
40
40
40
40
40
40
40
40
40
40
40
40
40
40
40
40
ENDCHAR
STARTCHAR 00EE
ENCODING 238
SWIDTH 216 0
DWIDTH 12 0
BBX 15 41 -1 0
BITMAP
0380
06C0
0C60
1830
3018
600C
C006
8002
0000
0000
0000
0000
0000
0100
0100
0100
0100
0100
0100
0100
0100
0100
0100
0100
0100
0100
0100
0100
0100
0100
0100
0100
0100
0100
0100
0100
0100
0100
0100
0100
0100
ENDCHAR
STARTCHAR 00EF
ENCODING 239
SWIDTH 216 0
DWIDTH 12 0
BBX 13 38 0 0
BITMAP
E038
E038
0000
0000
0000
0000
0000
0000
0000
0000
0200
0200
0200
0200
0200
0200
0200
0200
0200
0200
0200
0200
0200
0200
0200
0200
0200
0200
0200
0200
0200
0200
0200
0200
0200
0200
0200
0200
ENDCHAR
STARTCHAR 00F0
ENCODING 240
SWIDTH 540 0
DWIDTH 30 0
BBX 24 43 3 -1
BITMAP
000020
018060
00C080
002300
001E00
000C00
003600
004300
018100
030080
000040
000060
000020
000010
007E10
01C388
060068
0C0034
10000C
30000C
200006
600006
400002
400002
400002
C00003
C00003
C00003
C00003
C00003
C00003
400002
400002
400002
400002
200004
200004
100008
180018
0C0030
060060
01E780
003C00
ENDCHAR
STARTCHAR 00F1
ENCODING 241
SWIDTH 540 0
DWIDTH 30 0
BBX 20 39 6 0
BITMAP
0F0000
30C040
2030C0
001F00
000000
000000
000000
000000
000000
000000
01F800
8F0E00
980180
A000C0
C00040
C00060
800020
800020
800020
800030
800030
800030
800030
800030
800030
800030
800030
800030
800030
800030
800030
800030
800030
800030
800030
800030
800030
800030
800030
ENDCHAR
STARTCHAR 00F2
ENCODING 242
SWIDTH 540 0
DWIDTH 30 0
BBX 24 43 3 -1
BITMAP
010000
018000
008000
004000
006000
002000
001000
000800
000C00
000000
000000
000000
000000
007E00
03C3C0
060060
080010
100008
30000C
200004
600006
400002
400002
400002
400002
C00003
C00003
C00003
C00003
C00003
C00003
400002
400002
400002
400002
600006
200004
30000C
100008
080010
060060
03E7C0
003C00
ENDCHAR
STARTCHAR 00F3
ENCODING 243
SWIDTH 540 0
DWIDTH 30 0
BBX 24 43 3 -1
BITMAP
000080
000180
000100
000300
000600
000400
000800
001800
003000
000000
000000
000000
000000
007E00
03C3C0
060060
080010
100008
30000C
200004
600006
400002
400002
400002
400002
C00003
C00003
C00003
C00003
C00003
C00003
400002
400002
400002
400002
600006
200004
30000C
100008
080010
060060
03E7C0
003C00
ENDCHAR
STARTCHAR 00F4
ENCODING 244
SWIDTH 540 0
DWIDTH 30 0
BBX 24 42 3 -1
BITMAP
001800
002400
004200
008100
010080
020040
040020
000000
000000
000000
000000
000000
007E00
03C3C0
060060
080010
100008
30000C
200004
600006
400002
400002
400002
400002
C00003
C00003
C00003
C00003
C00003
C00003
400002
400002
400002
400002
600006
200004
30000C
100008
080010
060060
03E7C0
003C00
ENDCHAR
STARTCHAR 00F5
ENCODING 245
SWIDTH 540 0
DWIDTH 30 0
BBX 24 40 3 -1
BITMAP
03C000
0C3010
080C30
0007C0
000000
000000
000000
000000
000000
000000
007E00
03C3C0
060060
080010
100008
30000C
200004
600006
400002
400002
400002
400002
C00003
C00003
C00003
C00003
C00003
C00003
400002
400002
400002
400002
600006
200004
30000C
100008
080010
060060
03E7C0
003C00
ENDCHAR
STARTCHAR 00F6
ENCODING 246
SWIDTH 540 0
DWIDTH 30 0
BBX 24 39 3 -1
BITMAP
0300C0
0300C0
000000
000000
000000
000000
000000
000000
000000
007E00
03C3C0
060060
080010
100008
30000C
200004
600006
400002
400002
400002
400002
C00003
C00003
C00003
C00003
C00003
C00003
400002
400002
400002
400002
600006
200004
30000C
100008
080010
060060
03E7C0
003C00
ENDCHAR
STARTCHAR 00F7
ENCODING 247
SWIDTH 594 0
DWIDTH 33 0
BBX 27 25 3 4
BITMAP
000E0000
000F0000
000E0000
00000000
00000000
00000000
00000000
00000000
00000000
00000000
00000000
FFFFFFE0
FFFFFFE0
00000000
00000000
00000000
00000000
00000000
00000000
00000000
00000000
000E0000
000F0000
000E0000
00040000
ENDCHAR
STARTCHAR 00F8
ENCODING 248
SWIDTH 540 0
DWIDTH 30 0
BBX 26 31 2 -1
BITMAP
00000040
003F0080
00E1E180
03003300
04000A00
0C000400
18000E00
10001200
10003100
20002100
20004100
20008100
20010180
20030080
20060080
60040080
60080080
20100080
20300080
20600180
20400100
20800100
21000100
12000300
16000200
0C000600
0C000400
16000800
23003000
60F3E000
C01E0000
ENDCHAR
STARTCHAR 00F9
ENCODING 249
SWIDTH 540 0
DWIDTH 30 0
BBX 20 43 5 -1
BITMAP
040000
060000
020000
010000
018000
00C000
004000
002000
003000
000000
000000
000000
000000
000000
800010
800010
800010
800010
800010
800010
800010
800010
800010
800010
800010
800010
800010
800010
800010
800010
800010
800010
800010
800010
C00010
400010
400010
400030
200050
3000D0
180190
079E10
01F000
ENDCHAR
STARTCHAR 00FA
ENCODING 250
SWIDTH 540 0
DWIDTH 30 0
BBX 20 43 5 -1
BITMAP
000200
000200
000400
000C00
001800
001000
002000
006000
004000
000000
000000
000000
000000
000000
800010
800010
800010
800010
800010
800010
800010
800010
800010
800010
800010
800010
800010
800010
800010
800010
800010
800010
800010
800010
C00010
400010
400010
400030
200050
3000D0
180190
079E10
01F000
ENDCHAR
STARTCHAR 00FB
ENCODING 251
SWIDTH 540 0
DWIDTH 30 0
BBX 20 42 5 -1
BITMAP
007000
009800
010C00
020600
040200
080100
100080
000040
000000
000000
000000
000000
000000
800010
800010
800010
800010
800010
800010
800010
800010
800010
800010
800010
800010
800010
800010
800010
800010
800010
800010
800010
800010
C00010
400010
400010
400030
200050
3000D0
180190
079E10
01F000
ENDCHAR
STARTCHAR 00FC
ENCODING 252
SWIDTH 540 0
DWIDTH 30 0
BBX 20 39 5 -1
BITMAP
0C0380
0C0380
000000
000000
000000
000000
000000
000000
000000
000000
800010
800010
800010
800010
800010
800010
800010
800010
800010
800010
800010
800010
800010
800010
800010
800010
800010
800010
800010
800010
C00010
400010
400010
400030
200050
3000D0
180190
079E10
01F000
ENDCHAR
STARTCHAR 00FD
ENCODING 253
SWIDTH 450 0
DWIDTH 25 0
BBX 22 52 2 -10
BITMAP
000300
000600
000400
000800
001800
001000
002000
004000
000000
000000
000000
000000
000000
80000C
800008
C00008
400010
400010
600030
200020
200020
100060
100040
180040
080080
080080
0C0080
040100
040100
020300
020200
020200
010400
010400
018400
008800
008800
005800
005000
005000
003000
002000
002000
004000
004000
00C000
008000
008000
018000
010000
010000
7E0000
ENDCHAR
STARTCHAR 00FE
ENCODING 254
SWIDTH 558 0
DWIDTH 31 0
BBX 22 52 6 -11
BITMAP
800000
800000
800000
800000
800000
800000
800000
800000
800000
800000
800000
800000
80F800
870700
9801C0
B00060
A00020
C00010
800018
800008
800008
80000C
800004
800004
800004
800004
800004
800004
800004
800004
800004
800004
80000C
800008
800008
800018
C00010
A00020
B00040
980180
878F00
807000
800000
800000
800000
800000
800000
800000
800000
800000
800000
800000
ENDCHAR
STARTCHAR 00FF
ENCODING 255
SWIDTH 450 0
DWIDTH 25 0
BBX 22 49 2 -11
BITMAP
0E0180
0E0180
000000
000000
000000
000000
000000
000000
000000
000000
80000C
800008
C00008
400010
400010
600030
200020
200020
100060
100040
180040
080080
080080
0C0080
040100
040100
020300
020200
020200
010400
010400
018400
008800
008800
005800
005000
005000
003000
002000
002000
004000
004000
00C000
008000
008000
018000
010000
010000
7E0000
ENDCHAR
STARTCHAR 0100
ENCODING 256
SWIDTH 594 0
DWIDTH 33 0
BBX 29 48 2 0
BITMAP
01FFFC00
00000000
00000000
00000000
00000000
00000000
00000000
00000000
00000000
00030000
00070000
00050000
00058000
000C8000
00088000
00084000
00104000
00106000
00302000
00202000
00203000
00601000
00401000
00401800
00C00800
00800800
00800C00
01000400
01000400
03000200
02000200
02000300
06000100
04000100
07FFFF80
0C000080
08000080
080000C0
18000040
10000040
30000020
20000020
20000030
60000010
40000010
40000018
C0000008
80000008
ENDCHAR
STARTCHAR 0101
ENCODING 257
SWIDTH 504 0
DWIDTH 28 0
BBX 25 39 3 -1
BITMAP
0FFFC000
00000000
00000000
00000000
00000000
00000000
00000000
00000000
00000000
00FC0000
07870000
0C00C000
10004000
20002000
20002000
00003000
00001000
00001000
00001000
00001000
00001000
00001000
00001000
07FFF000
1C001000
30001000
60001000
40001000
40001000
C0001000
C0001000
C0001000
40003000
40003000
40005000
20009000
10011000
0F9E1F80
01E00000
ENDCHAR
STARTCHAR 0102
ENCODING 258
SWIDTH 594 0
DWIDTH 33 0
BBX 29 50 2 1
BITMAP
00800400
00800800
00401800
00601000
00306000
001FC000
00000000
00000000
00000000
00000000
00000000
00030000
00070000
00050000
00058000
000C8000
00088000
00084000
00104000
00106000
00302000
00202000
00203000
00601000
00401000
00401800
00C00800
00800800
00800C00
01000400
01000400
03000200
02000200
02000300
06000100
04000100
07FFFF80
0C000080
08000080
080000C0
18000040
10000040
30000020
20000020
20000030
60000010
40000010
40000018
C0000008
80000008
ENDCHAR
STARTCHAR 0103
ENCODING 259
SWIDTH 504 0
DWIDTH 28 0
BBX 25 41 3 0
BITMAP
08004000
0C008000
04008000
02010000
03020000
00FC0000
00000000
00000000
00000000
00000000
00000000
00FC0000
07870000
0C00C000
10004000
20002000
20002000
00003000
00001000
00001000
00001000
00001000
00001000
00001000
00001000
07FFF000
1C001000
30001000
60001000
40001000
40001000
C0001000
C0001000
C0001000
40003000
40003000
40005000
20009000
10011000
0F9E1F80
01E00000
ENDCHAR
STARTCHAR 0104
ENCODING 260
SWIDTH 594 0
DWIDTH 33 0
BBX 31 50 2 -11
BITMAP
00030000
00070000
00050000
00058000
000C8000
00088000
00084000
00104000
00106000
00302000
00202000
00203000
00601000
00401000
00401800
00C00800
00800800
00800400
01000400
01000400
03000200
02000200
02000300
06000100
04000100
07FFFF80
0C000080
08000080
080000C0
18000040
10000040
30000020
20000020
20000030
60000010
40000010
40000018
C0000008
80000008
00000018
00000020
00000040
00000080
00000100
00000100
00000300
00000300
00000300
00000106
000000FC
ENDCHAR
STARTCHAR 0105
ENCODING 261
SWIDTH 504 0
DWIDTH 28 0
BBX 25 40 3 -11
BITMAP
00FC0000
07070000
0C00C000
10004000
20002000
20002000
00003000
00001000
00001000
00001000
00001000
00001000
00001000
00001000
07FFF000
1C001000
30001000
60001000
40001000
40001000
C0001000
C0001000
C0001000
40003000
40003000
40005000
20009000
10011000
0F9E1F80
01E00100
00000400
00000800
00001000
00002000
00004000
00004000
00004000
00004000
00006080
00003F00
ENDCHAR
STARTCHAR 0106
ENCODING 262
SWIDTH 594 0
DWIDTH 33 0
BBX 26 53 4 -1
BITMAP
00002000
00002000
00006000
0000C000
00008000
00010000
00020000
00060000
00040000
00000000
00000000
00000000
00000000
007FE000
01801800
06000600
0C000300
08000100
10000080
300000C0
20000040
60000000
40000000
40000000
40000000
C0000000
C0000000
80000000
80000000
80000000
80000000
80000000
80000000
80000000
80000000
80000000
80000000
80000000
80000000
C0000000
40000000
40000000
40000000
60000000
20000040
30000040
10000080
18000180
0C000300
06000600
03800C00
00FDF000
000F8000
ENDCHAR
STARTCHAR 0107
ENCODING 263
SWIDTH 486 0
DWIDTH 27 0
BBX 22 43 3 -1
BITMAP
000080
000180
000100
000300
000600
000400
000800
001800
003000
000000
000000
000000
000000
007C00
03C380
060060
080030
100010
300008
200000
600000
400000
400000
400000
400000
C00000
C00000
C00000
C00000
C00000
C00000
400000
400000
400000
400000
600000
200000
30000C
100018
080030
060060
03E780
003C00
ENDCHAR
STARTCHAR 0108
ENCODING 264
SWIDTH 594 0
DWIDTH 33 0
BBX 26 52 4 -1
BITMAP
00070000
00098000
0010C000
00206000
00403000
00801800
01000800
01000400
00000000
00000000
00000000
00000000
007FE000
01801800
06000600
0C000300
08000100
10000080
300000C0
20000040
60000000
40000000
40000000
40000000
C0000000
C0000000
80000000
80000000
80000000
80000000
80000000
80000000
80000000
80000000
80000000
80000000
80000000
80000000
C0000000
40000000
40000000
40000000
60000000
20000040
30000040
10000080
18000180
0C000300
06000600
03800C00
00FDF000
000F8000
ENDCHAR
STARTCHAR 0109
ENCODING 265
SWIDTH 486 0
DWIDTH 27 0
BBX 22 42 3 -1
BITMAP
001800
002400
004200
008100
010080
020040
040020
000000
000000
000000
000000
000000
007C00
03C380
060060
080030
100010
300008
200000
600000
400000
400000
400000
400000
C00000
C00000
C00000
C00000
C00000
C00000
400000
400000
400000
400000
600000
200000
30000C
100018
080030
060060
03E780
003C00
ENDCHAR
STARTCHAR 010A
ENCODING 266
SWIDTH 594 0
DWIDTH 33 0
BBX 26 49 4 -1
BITMAP
00070000
00070000
00000000
00000000
00000000
00000000
00000000
00000000
00000000
007FE000
01801800
06000600
0C000300
08000100
10000080
300000C0
20000040
60000000
40000000
40000000
40000000
C0000000
C0000000
80000000
80000000
80000000
80000000
80000000
80000000
80000000
80000000
80000000
80000000
80000000
80000000
C0000000
40000000
40000000
40000000
60000000
20000040
30000040
10000080
18000180
0C000300
06000600
03800C00
00FDF000
000F8000
ENDCHAR
STARTCHAR 010B
ENCODING 267
SWIDTH 486 0
DWIDTH 27 0
BBX 22 39 3 -1
BITMAP
001800
001800
000000
000000
000000
000000
000000
000000
000000
007C00
03C380
060060
080030
100010
300008
200000
600000
400000
400000
400000
400000
C00000
C00000
C00000
C00000
C00000
C00000
400000
400000
400000
400000
600000
200000
30000C
100018
080030
060060
03E780
003C00
ENDCHAR
STARTCHAR 010C
ENCODING 268
SWIDTH 594 0
DWIDTH 33 0
BBX 26 52 4 0
BITMAP
01000C00
00801800
00403000
00206000
0010C000
00098000
00070000
00020000
00000000
00000000
00000000
00000000
007FE000
01801800
06000600
0C000300
08000100
10000080
300000C0
20000040
60000000
40000000
40000000
40000000
C0000000
C0000000
80000000
80000000
80000000
80000000
80000000
80000000
80000000
80000000
80000000
80000000
80000000
80000000
C0000000
40000000
40000000
40000000
60000000
20000040
30000040
10000080
18000180
0C000300
06000600
03800C00
00FDF000
000F8000
ENDCHAR
STARTCHAR 010D
ENCODING 269
SWIDTH 486 0
DWIDTH 27 0
BBX 22 42 3 0
BITMAP
040020
020060
0100C0
008180
00C300
006600
003C00
001800
000000
000000
000000
000000
007C00
03C380
060060
080030
100010
300008
200000
600000
400000
400000
400000
400000
C00000
C00000
C00000
C00000
C00000
C00000
400000
400000
400000
400000
600000
200000
30000C
100018
080030
060060
03E780
003C00
ENDCHAR
STARTCHAR 010E
ENCODING 270
SWIDTH 648 0
DWIDTH 36 0
BBX 27 51 6 1
BITMAP
18004000
0C008000
06010000
03020000
01840000
00C80000
00700000
00200000
00000000
00000000
00000000
00000000
FFFE0000
8007C000
80003000
80001800
80000400
80000200
80000300
80000100
80000080
80000080
800000C0
80000040
80000040
80000040
80000040
80000040
80000060
80000060
80000060
80000060
80000060
80000060
80000060
80000040
80000040
80000040
80000040
80000040
800000C0
80000080
80000080
80000100
80000100
80000200
80000600
80000C00
80003000
8001E000
FFFF0000
ENDCHAR
STARTCHAR 010F
ENCODING 271
SWIDTH 558 0
DWIDTH 31 0
BBX 30 42 3 -1
BITMAP
0000060C
0000060C
00000608
00000608
00000608
00000608
00000608
00000608
00000608
00000610
00000600
00000600
007C0600
03C3C600
06006600
08001600
10000E00
30000E00
20000600
60000600
40000600
40000600
40000600
C0000600
C0000600
C0000600
C0000600
C0000600
C0000600
C0000600
40000600
40000600
40000600
40000600
60000600
20000600
30000E00
10000E00
0C001600
06006600
01E38600
00380000
ENDCHAR
STARTCHAR 0110
ENCODING 272
SWIDTH 648 0
DWIDTH 36 0
BBX 31 39 2 0
BITMAP
0FFFE000
08007C00
08000300
080000C0
08000060
08000020
08000010
08000018
08000008
08000008
0800000C
08000004
08000004
08000004
08000006
08000006
08000006
08000006
FFFE0006
08000006
08000006
08000006
08000006
08000006
08000006
08000004
08000004
08000004
08000004
08000008
08000008
08000018
08000010
08000030
08000060
080000C0
08000380
08001E00
0FFFF000
ENDCHAR
STARTCHAR 0111
ENCODING 273
SWIDTH 558 0
DWIDTH 31 0
BBX 26 42 3 -1
BITMAP
00000600
00000600
00000600
00000600
00000600
000FFFC0
00000600
00000600
00000600
00000600
00000600
00000600
007C0600
03C3C600
06006600
08001600
10000E00
30000E00
20000600
60000600
40000600
40000600
40000600
C0000600
C0000600
C0000600
C0000600
C0000600
C0000600
C0000600
40000600
40000600
40000600
40000600
60000600
20000600
30000E00
10000E00
0C001600
06006600
01E38600
00380000
ENDCHAR
STARTCHAR 0112
ENCODING 274
SWIDTH 558 0
DWIDTH 31 0
BBX 21 48 6 0
BITMAP
1FFFC0
000000
000000
000000
000000
000000
000000
000000
000000
FFFFF8
800000
800000
800000
800000
800000
800000
800000
800000
800000
800000
800000
800000
800000
800000
800000
800000
800000
800000
FFFFF8
800000
800000
800000
800000
800000
800000
800000
800000
800000
800000
800000
800000
800000
800000
800000
800000
800000
800000
FFFFF8
ENDCHAR
STARTCHAR 0113
ENCODING 275
SWIDTH 522 0
DWIDTH 29 0
BBX 23 39 3 -1
BITMAP
07FFE0
000000
000000
000000
000000
000000
000000
000000
000000
007E00
03C380
060060
080030
100018
300008
20000C
600004
400004
400002
400002
400002
C00002
C00002
FFFFFE
C00000
C00000
C00000
400000
400000
400000
400000
600006
200004
30000C
100008
0C0010
060060
01E7C0
003C00
ENDCHAR
STARTCHAR 0114
ENCODING 276
SWIDTH 558 0
DWIDTH 31 0
BBX 21 50 6 1
BITMAP
080040
080080
040180
060100
030600
01FC00
000000
000000
000000
000000
000000
FFFFF8
800000
800000
800000
800000
800000
800000
800000
800000
800000
800000
800000
800000
800000
800000
800000
800000
800000
800000
FFFFF8
800000
800000
800000
800000
800000
800000
800000
800000
800000
800000
800000
800000
800000
800000
800000
800000
800000
800000
FFFFF8
ENDCHAR
STARTCHAR 0115
ENCODING 277
SWIDTH 522 0
DWIDTH 29 0
BBX 23 42 3 -1
BITMAP
040020
040020
060040
020040
010080
018100
007E00
000000
000000
000000
000000
000000
007E00
03C380
060060
080030
100018
300008
20000C
600004
400004
400002
400002
400002
C00002
C00002
FFFFFE
C00000
C00000
C00000
400000
400000
400000
400000
600006
200004
30000C
100008
0C0010
060060
01E7C0
003C00
ENDCHAR
STARTCHAR 0116
ENCODING 278
SWIDTH 558 0
DWIDTH 31 0
BBX 21 48 6 0
BITMAP
007000
007000
000000
000000
000000
000000
000000
000000
000000
FFFFF8
800000
800000
800000
800000
800000
800000
800000
800000
800000
800000
800000
800000
800000
800000
800000
800000
800000
800000
FFFFF8
800000
800000
800000
800000
800000
800000
800000
800000
800000
800000
800000
800000
800000
800000
800000
800000
800000
800000
FFFFF8
ENDCHAR
STARTCHAR 0117
ENCODING 279
SWIDTH 522 0
DWIDTH 29 0
BBX 23 39 3 -1
BITMAP
001800
001800
000000
000000
000000
000000
000000
000000
000000
007E00
03C380
060060
080030
100018
300008
20000C
600004
400004
400002
400002
400002
C00002
C00002
FFFFFE
C00000
C00000
C00000
400000
400000
400000
400000
600006
200004
30000C
100008
0C0010
060060
01E7C0
003C00
ENDCHAR
STARTCHAR 0118
ENCODING 280
SWIDTH 558 0
DWIDTH 31 0
BBX 22 50 6 -11
BITMAP
FFFFF8
800000
800000
800000
800000
800000
800000
800000
800000
800000
800000
800000
800000
800000
800000
800000
800000
800000
800000
FFFFF8
800000
800000
800000
800000
800000
800000
800000
800000
800000
800000
800000
800000
800000
800000
800000
800000
800000
800000
FFFFF8
000010
000060
0000C0
000100
000300
000200
000600
000600
000600
00020C
0001F8
ENDCHAR
STARTCHAR 0119
ENCODING 281
SWIDTH 522 0
DWIDTH 29 0
BBX 23 40 3 -11
BITMAP
007E00
03C380
060060
080030
100018
300008
20000C
600004
400004
400002
400002
400002
C00002
C00002
FFFFFE
C00000
C00000
C00000
400000
400000
400000
400000
600006
200004
30000C
100008
0C0010
060060
01E780
003D00
000600
000C00
001800
001000
002000
002000
002000
002000
001060
000F80
ENDCHAR
STARTCHAR 011A
ENCODING 282
SWIDTH 558 0
DWIDTH 31 0
BBX 21 51 6 1
BITMAP
180040
0C0080
060100
030200
018400
00C800
007000
002000
000000
000000
000000
000000
FFFFF8
800000
800000
800000
800000
800000
800000
800000
800000
800000
800000
800000
800000
800000
800000
800000
800000
800000
800000
FFFFF8
800000
800000
800000
800000
800000
800000
800000
800000
800000
800000
800000
800000
800000
800000
800000
800000
800000
800000
FFFFF8
ENDCHAR
STARTCHAR 011B
ENCODING 283
SWIDTH 522 0
DWIDTH 29 0
BBX 23 42 3 0
BITMAP
040020
060040
030080
018100
00C300
006600
003C00
001800
000000
000000
000000
000000
007E00
03C380
060060
080030
100018
300008
20000C
600004
400004
400002
400002
400002
C00002
C00002
FFFFFE
C00000
C00000
C00000
400000
400000
400000
400000
600006
200004
30000C
100008
0C0010
060060
01E7C0
003C00
ENDCHAR
STARTCHAR 011C
ENCODING 284
SWIDTH 666 0
DWIDTH 37 0
BBX 29 52 4 -1
BITMAP
00070000
000C8000
00084000
00102000
00201000
00400800
00800400
00000000
00000000
00000000
00000000
00000000
007FF000
01C00C00
03000300
06000180
080000C0
18000040
30000020
20000030
20000000
40000000
40000000
40000000
C0000000
C0000000
80000000
80000000
80000000
80000000
80000000
80000000
80000000
80003FF8
80000018
80000018
80000018
C0000018
C0000018
40000018
40000018
40000018
60000018
20000018
30000038
10000038
08000058
0C000098
06000118
01800618
007CF818
00070000
ENDCHAR
STARTCHAR 011D
ENCODING 285
SWIDTH 522 0
DWIDTH 29 0
BBX 25 53 3 -12
BITMAP
00380000
00640000
00C20000
01810000
03008000
06004000
04002000
08000000
00000000
00000000
00000000
00000000
007C0000
0383FF80
06004000
08002000
10001000
10001000
30000800
20000800
20000800
20000800
20000800
20000800
30000800
10001800
10001000
08002000
04006000
03818000
03FE0000
0C000000
18000000
10000000
20000000
20000000
10000000
18000000
07FFF000
0C001C00
30000200
60000100
C0000180
80000080
80000080
80000080
80000180
80000100
C0000300
60000600
30000C00
0F01F000
00FF0000
ENDCHAR
STARTCHAR 011E
ENCODING 286
SWIDTH 666 0
DWIDTH 37 0
BBX 29 51 4 0
BITMAP
00800400
00C00800
00400800
00201000
00302000
000FC000
00000000
00000000
00000000
00000000
00000000
007FF000
01C00C00
03000300
06000180
080000C0
18000040
30000020
20000030
20000000
40000000
40000000
40000000
C0000000
C0000000
80000000
80000000
80000000
80000000
80000000
80000000
80000000
80003FF8
80000018
80000018
80000018
C0000018
C0000018
40000018
40000018
40000018
60000018
20000018
30000038
10000038
08000058
0C000098
06000118
01800618
007CF818
00070000
ENDCHAR
STARTCHAR 011F
ENCODING 287
SWIDTH 522 0
DWIDTH 29 0
BBX 25 52 3 -11
BITMAP
04002000
04004000
0200C000
03008000
01810000
00FE0000
00000000
00000000
00000000
00000000
00000000
007C0000
0383FF80
06004000
08002000
10001000
10001000
30000800
20000800
20000800
20000800
20000800
20000800
30000800
10001800
10001000
08002000
04006000
03818000
03FE0000
0C000000
18000000
10000000
20000000
20000000
10000000
18000000
07FFF000
0C001C00
30000200
60000100
C0000180
80000080
80000080
80000080
80000180
80000100
C0000300
60000600
30000C00
0F01F000
00FF0000
ENDCHAR
STARTCHAR 0120
ENCODING 288
SWIDTH 666 0
DWIDTH 37 0
BBX 29 49 4 -1
BITMAP
00030000
00030000
00000000
00000000
00000000
00000000
00000000
00000000
00000000
007FF000
01C00C00
03000300
06000180
080000C0
18000040
30000020
20000030
20000000
40000000
40000000
40000000
C0000000
C0000000
80000000
80000000
80000000
80000000
80000000
80000000
80000000
80003FF8
80000018
80000018
80000018
C0000018
C0000018
40000018
40000018
40000018
60000018
20000018
30000038
10000038
08000058
0C000098
06000118
01800618
007CF818
00070000
ENDCHAR
STARTCHAR 0121
ENCODING 289
SWIDTH 522 0
DWIDTH 29 0
BBX 25 50 3 -12
BITMAP
00380000
00180000
00000000
00000000
00000000
00000000
00000000
00000000
00000000
007C0000
0383FF80
06004000
08002000
10001000
10001000
30000800
20000800
20000800
20000800
20000800
20000800
30000800
10001800
10001000
08002000
04006000
03818000
03FE0000
0C000000
18000000
10000000
20000000
20000000
10000000
18000000
07FFF000
0C001C00
30000200
60000100
C0000180
80000080
80000080
80000080
80000180
80000100
C0000300
60000600
30000C00
0F01F000
00FF0000
ENDCHAR
STARTCHAR 0122
ENCODING 290
SWIDTH 666 0
DWIDTH 37 0
BBX 29 51 4 -12
BITMAP
007FF000
01C00C00
03000300
06000180
080000C0
18000040
30000020
20000030
20000000
40000000
40000000
40000000
C0000000
C0000000
80000000
80000000
80000000
80000000
80000000
80000000
80000000
80003FF8
80000018
80000018
80000018
C0000018
C0000018
40000018
40000018
40000018
60000018
20000018
30000038
10000038
08000058
0C000098
06000118
01800618
007CF818
00070000
00000000
00000000
00000000
00030000
00030000
00010000
00010000
00010000
00020000
00020000
00040000
ENDCHAR
STARTCHAR 0123
ENCODING 291
SWIDTH 522 0
DWIDTH 29 0
BBX 25 53 3 -12
BITMAP
00080000
00080000
00100000
00100000
00100000
00380000
00380000
00100000
00000000
00000000
00000000
00000000
007C0000
0383FF80
06004000
08002000
10001000
10001000
30000800
20000800
20000800
20000800
20000800
20000800
30000800
10001800
10001000
08002000
04006000
03818000
03FE0000
0C000000
18000000
10000000
20000000
20000000
10000000
18000000
07FFF000
0C001C00
30000200
60000100
C0000180
80000080
80000080
80000080
80000180
80000100
C0000300
60000600
30000C00
0F01F000
00FF0000
ENDCHAR
STARTCHAR 0124
ENCODING 292
SWIDTH 684 0
DWIDTH 38 0
BBX 26 51 6 0
BITMAP
000E0000
00130000
00218000
0040C000
00804000
01002000
02001000
00000800
00000000
00000000
00000000
00000000
80000040
80000040
80000040
80000040
80000040
80000040
80000040
80000040
80000040
80000040
80000040
80000040
80000040
80000040
80000040
80000040
80000040
80000040
80000040
FFFFFFC0
80000040
80000040
80000040
80000040
80000040
80000040
80000040
80000040
80000040
80000040
80000040
80000040
80000040
80000040
80000040
80000040
80000040
80000040
80000040
ENDCHAR
STARTCHAR 0125
ENCODING 293
SWIDTH 540 0
DWIDTH 30 0
BBX 27 50 -1 0
BITMAP
03800000
06C00000
0C600000
18300000
30180000
60080000
C0040000
80020000
00000000
01000000
01000000
01000000
01000000
01000000
01000000
01000000
01000000
01000000
01000000
01000000
01000000
0103F000
011E1C00
01300300
01400180
01800080
018000C0
01000040
01000040
01000040
01000060
01000060
01000060
01000060
01000060
01000060
01000060
01000060
01000060
01000060
01000060
01000060
01000060
01000060
01000060
01000060
01000060
01000060
01000060
01000060
ENDCHAR
STARTCHAR 0126
ENCODING 294
SWIDTH 684 0
DWIDTH 38 0
BBX 35 39 2 0
BITMAP
0800000600
0800000600
0800000600
0800000600
0800000600
0800000600
0800000600
0800000600
FFFFFFFFE0
0800000600
0800000600
0800000600
0800000600
0800000600
0800000600
0800000600
0800000600
0800000600
0800000600
0FFFFFFE00
0800000600
0800000600
0800000600
0800000600
0800000600
0800000600
0800000600
0800000600
0800000600
0800000600
0800000600
0800000600
0800000600
0800000600
0800000600
0800000600
0800000600
0800000600
0800000600
ENDCHAR
STARTCHAR 0127
ENCODING 295
SWIDTH 558 0
DWIDTH 31 0
BBX 24 41 2 0
BITMAP
080000
080000
080000
080000
080000
FFFC00
080000
080000
080000
080000
080000
080000
080F80
0870F0
098018
0A000C
0A0004
0C0002
0C0002
080002
080003
080001
080001
080001
080001
080001
080001
080001
080001
080001
080001
080001
080001
080001
080001
080001
080001
080001
080001
080001
080001
ENDCHAR
STARTCHAR 0128
ENCODING 296
SWIDTH 360 0
DWIDTH 20 0
BBX 16 49 2 0
BITMAP
3E00
4300
80C3
003E
0000
0000
0000
0000
0000
0000
3FFE
0080
0080
0080
0080
0080
0080
0080
0080
0080
0080
0080
0080
0080
0080
0080
0080
0080
0080
0080
0080
0080
0080
0080
0080
0080
0080
0080
0080
0080
0080
0080
0080
0080
0080
0080
0080
0080
3FFE
ENDCHAR
STARTCHAR 0129
ENCODING 297
SWIDTH 216 0
DWIDTH 12 0
BBX 15 39 -1 0
BITMAP
7C00
C700
0182
007C
0000
0000
0000
0000
0000
0000
0000
0100
0100
0100
0100
0100
0100
0100
0100
0100
0100
0100
0100
0100
0100
0100
0100
0100
0100
0100
0100
0100
0100
0100
0100
0100
0100
0100
0100
ENDCHAR
STARTCHAR 012A
ENCODING 298
SWIDTH 360 0
DWIDTH 20 0
BBX 15 48 3 0
BITMAP
FFFE
0000
0000
0000
0000
0000
0000
0000
0000
7FFC
0100
0100
0100
0100
0100
0100
0100
0100
0100
0100
0100
0100
0100
0100
0100
0100
0100
0100
0100
0100
0100
0100
0100
0100
0100
0100
0100
0100
0100
0100
0100
0100
0100
0100
0100
0100
0100
7FFC
ENDCHAR
STARTCHAR 012B
ENCODING 299
SWIDTH 216 0
DWIDTH 12 0
BBX 15 38 -1 0
BITMAP
FFFE
0000
0000
0000
0000
0000
0000
0000
0000
0000
0100
0100
0100
0100
0100
0100
0100
0100
0100
0100
0100
0100
0100
0100
0100
0100
0100
0100
0100
0100
0100
0100
0100
0100
0100
0100
0100
0100
ENDCHAR
STARTCHAR 012C
ENCODING 300
SWIDTH 360 0
DWIDTH 20 0
BBX 14 50 3 1
BITMAP
8004
4004
6008
2018
1030
0FE0
0000
0000
0000
0000
0000
7FFC
0100
0100
0100
0100
0100
0100
0100
0100
0100
0100
0100
0100
0100
0100
0100
0100
0100
0100
0100
0100
0100
0100
0100
0100
0100
0100
0100
0100
0100
0100
0100
0100
0100
0100
0100
0100
0100
7FFC
ENDCHAR
STARTCHAR 012D
ENCODING 301
SWIDTH 216 0
DWIDTH 12 0
BBX 14 40 -1 1
BITMAP
C004
4004
2008
3018
1830
0FE0
0000
0000
0000
0000
0000
0000
0100
0100
0100
0100
0100
0100
0100
0100
0100
0100
0100
0100
0100
0100
0100
0100
0100
0100
0100
0100
0100
0100
0100
0100
0100
0100
0100
0100
ENDCHAR
STARTCHAR 012E
ENCODING 302
SWIDTH 360 0
DWIDTH 20 0
BBX 14 50 4 -11
BITMAP
FFF8
0200
0200
0200
0200
0200
0200
0200
0200
0200
0200
0200
0200
0200
0200
0200
0200
0200
0200
0200
0200
0200
0200
0200
0200
0200
0200
0200
0200
0200
0200
0200
0200
0200
0200
0200
0200
0200
FFF8
0010
0060
0080
0100
0200
0200
0400
0400
0400
020C
01F0
ENDCHAR
STARTCHAR 012F
ENCODING 303
SWIDTH 216 0
DWIDTH 12 0
BBX 8 51 1 -11
BITMAP
0E
0E
04
00
00
00
00
00
00
00
00
00
04
04
04
04
04
04
04
04
04
04
04
04
04
04
04
04
04
04
04
04
04
04
04
04
04
04
04
04
08
10
20
60
40
80
80
80
80
C1
3E
ENDCHAR
STARTCHAR 0130
ENCODING 304
SWIDTH 360 0
DWIDTH 20 0
BBX 13 48 4 0
BITMAP
0700
0700
0000
0000
0000
0000
0000
0000
0000
FFF8
0200
0200
0200
0200
0200
0200
0200
0200
0200
0200
0200
0200
0200
0200
0200
0200
0200
0200
0200
0200
0200
0200
0200
0200
0200
0200
0200
0200
0200
0200
0200
0200
0200
0200
0200
0200
0200
FFF8
ENDCHAR
STARTCHAR 0131
ENCODING 305
SWIDTH 216 0
DWIDTH 12 0
BBX 1 28 6 0
BITMAP
80
80
80
80
80
80
80
80
80
80
80
80
80
80
80
80
80
80
80
80
80
80
80
80
80
80
80
80
ENDCHAR
STARTCHAR 0132
ENCODING 306
SWIDTH 630 0
DWIDTH 35 0
BBX 24 40 6 -1
BITMAP
801FFF
800003
800003
800003
800003
800003
800003
800003
800003
800003
800003
800003
800003
800003
800003
800003
800003
800003
800003
800003
800003
800003
800003
000003
000003
000003
000003
000003
000002
000002
000002
800002
800006
800004
40000C
600008
300010
180060
07EFC0
003C00
ENDCHAR
STARTCHAR 0133
ENCODING 307
SWIDTH 450 0
DWIDTH 25 0
BBX 16 51 5 -11
BITMAP
E006
E007
4002
0000
0000
0000
0000
0000
0000
0000
0000
0000
4002
4002
4002
4002
4002
4002
4002
4002
4002
4002
4002
4002
4002
4002
4002
4002
4002
4002
4002
4002
4002
4002
4002
4002
4002
4002
4002
4002
0002
0002
0002
0002
0002
0002
0002
0002
0002
0002
007E
ENDCHAR
STARTCHAR 0134
ENCODING 308
SWIDTH 450 0
DWIDTH 25 0
BBX 19 52 1 -1
BITMAP
001800
002400
004200
008100
010080
020040
040020
000000
000000
000000
000000
000000
0FFFE0
000020
000020
000020
000020
000020
000020
000020
000020
000020
000020
000020
000020
000020
000020
000020
000020
000020
000020
000020
000020
000020
000020
000020
000020
000020
000020
000020
000020
000020
000020
000020
000020
C00060
400040
6000C0
300180
180300
07BE00
00F000
ENDCHAR
STARTCHAR 0135
ENCODING 309
SWIDTH 216 0
DWIDTH 12 0
BBX 15 52 -1 -11
BITMAP
0380
06C0
0C60
1830
3018
600C
C006
8002
0000
0000
0000
0000
0000
0100
0100
0100
0100
0100
0100
0100
0100
0100
0100
0100
0100
0100
0100
0100
0100
0100
0100
0100
0100
0100
0100
0100
0100
0100
0100
0100
0100
0100
0100
0100
0100
0100
0100
0100
0100
0100
0100
3F00
ENDCHAR
STARTCHAR 0136
ENCODING 310
SWIDTH 558 0
DWIDTH 31 0
BBX 24 51 6 -12
BITMAP
800001
800002
800004
80000C
800018
800030
800060
8000C0
800180
800100
800200
800400
800800
801000
803000
806000
80C000
81C000
836000
863000
8C1000
881800
900C00
A00400
C00600
800300
800100
800180
8000C0
800040
800060
800030
800010
800018
80000C
800004
800002
800003
800001
000000
000000
000000
000000
003800
003800
000800
001000
001000
001000
002000
006000
ENDCHAR
STARTCHAR 0137
ENCODING 311
SWIDTH 486 0
DWIDTH 27 0
BBX 20 53 6 -12
BITMAP
800000
800000
800000
800000
800000
800000
800000
800000
800000
800000
800000
800000
800000
8000C0
800180
800300
800600
800C00
801800
803000
806000
80C000
818000
830000
860000
8E0000
990000
B18000
E0C000
C06000
802000
801000
800800
800C00
800600
800300
800100
800080
800040
800060
800030
000000
000000
000000
000000
00C000
00C000
004000
004000
004000
008000
008000
010000
ENDCHAR
STARTCHAR 0138
ENCODING 312
SWIDTH 486 0
DWIDTH 27 0
BBX 20 28 6 0
BITMAP
800060
8000C0
800180
800300
800600
800C00
801800
803000
806000
80C000
818000
830000
860000
8F0000
998000
B0C000
E04000
C02000
801000
801800
800C00
800600
800200
800100
800080
800040
800060
800030
ENDCHAR
STARTCHAR 0139
ENCODING 313
SWIDTH 468 0
DWIDTH 26 0
BBX 20 51 5 1
BITMAP
060000
0C0000
080000
100000
300000
600000
400000
800000
000000
000000
000000
000000
400000
400000
400000
400000
400000
400000
400000
400000
400000
400000
400000
400000
400000
400000
400000
400000
400000
400000
400000
400000
400000
400000
400000
400000
400000
400000
400000
400000
400000
400000
400000
400000
400000
400000
400000
400000
400000
400000
7FFFF0
ENDCHAR
STARTCHAR 013A
ENCODING 314
SWIDTH 234 0
DWIDTH 13 0
BBX 7 52 5 1
BITMAP
04
0C
18
10
20
60
C0
80
00
00
00
40
40
40
40
40
40
40
40
40
40
40
40
40
40
40
40
40
40
40
40
40
40
40
40
40
40
40
40
40
40
40
40
40
40
40
40
40
40
40
40
7E
ENDCHAR
STARTCHAR 013B
ENCODING 315
SWIDTH 468 0
DWIDTH 26 0
BBX 19 51 6 -12
BITMAP
800000
800000
800000
800000
800000
800000
800000
800000
800000
800000
800000
800000
800000
800000
800000
800000
800000
800000
800000
800000
800000
800000
800000
800000
800000
800000
800000
800000
800000
800000
800000
800000
800000
800000
800000
800000
800000
800000
FFFFE0
000000
000000
000000
000000
006000
007000
002000
002000
002000
004000
004000
008000
ENDCHAR
STARTCHAR 013C
ENCODING 316
SWIDTH 234 0
DWIDTH 13 0
BBX 6 53 6 -12
BITMAP
80
80
80
80
80
80
80
80
80
80
80
80
80
80
80
80
80
80
80
80
80
80
80
80
80
80
80
80
80
80
80
80
80
80
80
80
80
80
80
80
FC
00
00
00
00
30
30
10
10
10
20
20
40
ENDCHAR
STARTCHAR 013D
ENCODING 317
SWIDTH 468 0
DWIDTH 26 0
BBX 19 41 6 0
BITMAP
008000
008000
818000
818000
818000
810000
810000
810000
810000
810000
800000
800000
800000
800000
800000
800000
800000
800000
800000
800000
800000
800000
800000
800000
800000
800000
800000
800000
800000
800000
800000
800000
800000
800000
800000
800000
800000
800000
800000
800000
FFFFE0
ENDCHAR
STARTCHAR 013E
ENCODING 318
SWIDTH 234 0
DWIDTH 13 0
BBX 8 41 6 0
BITMAP
81
81
81
81
81
81
81
83
82
82
80
80
80
80
80
80
80
80
80
80
80
80
80
80
80
80
80
80
80
80
80
80
80
80
80
80
80
80
80
80
FC
ENDCHAR
STARTCHAR 013F
ENCODING 319
SWIDTH 468 0
DWIDTH 26 0
BBX 19 39 6 0
BITMAP
800000
800000
800000
800000
800000
800000
800000
800000
800000
800000
800000
800000
800000
800000
800000
800000
800000
800000
800000
800000
800000
800600
800600
800600
800000
800000
800000
800000
800000
800000
800000
800000
800000
800000
800000
800000
800000
800000
FFFFE0
ENDCHAR
STARTCHAR 0140
ENCODING 320
SWIDTH 270 0
DWIDTH 15 0
BBX 9 41 6 0
BITMAP
8000
8000
8000
8000
8000
8000
8000
8000
8000
8000
8000
8000
8000
8000
8000
8000
8000
8000
8000
8000
8000
8000
8000
8000
8000
8180
8180
8100
8000
8000
8000
8000
8000
8000
8000
8000
8000
8000
8000
8000
FC00
ENDCHAR
STARTCHAR 0141
ENCODING 321
SWIDTH 468 0
DWIDTH 26 0
BBX 24 39 1 0
BITMAP
040000
040000
040000
040000
040000
040000
040000
040000
040000
040000
040000
040000
040000
040000
040000
040000
040000
0400C0
040780
043C00
05C000
0E0000
740000
840000
040000
040000
040000
040000
040000
040000
040000
040000
040000
040000
040000
040000
040000
040000
07FFFF
ENDCHAR
STARTCHAR 0142
ENCODING 322
SWIDTH 252 0
DWIDTH 14 0
BBX 10 41 2 0
BITMAP
0800
0800
0800
0800
0800
0800
0800
0800
0800
0800
0800
0800
0800
0800
0800
0800
0800
0800
0800
09C0
0E00
7800
8800
0800
0800
0800
0800
0800
0800
0800
0800
0800
0800
0800
0800
0800
0800
0800
0800
0800
0FC0
ENDCHAR
STARTCHAR 0143
ENCODING 323
SWIDTH 684 0
DWIDTH 38 0
BBX 26 52 6 0
BITMAP
00004000
00004000
00008000
00018000
00030000
00020000
00040000
000C0000
00080000
00000000
00000000
00000000
00000000
C0000040
E0000040
A0000040
B0000040
90000040
88000040
8C000040
84000040
82000040
83000040
81000040
81800040
80800040
80400040
80600040
80200040
80100040
80180040
80080040
800C0040
80040040
80020040
80030040
80010040
80008040
8000C040
80004040
80006040
80002040
80001040
80001840
80000840
80000440
80000640
80000240
80000340
80000140
800000C0
800000C0
ENDCHAR
STARTCHAR 0144
ENCODING 324
SWIDTH 540 0
DWIDTH 30 0
BBX 20 42 6 0
BITMAP
000200
000600
000400
000800
001800
003000
002000
004000
00C000
000000
000000
000000
000000
01F800
8F0E00
980180
A000C0
C00040
C00060
800020
800020
800020
800030
800030
800030
800030
800030
800030
800030
800030
800030
800030
800030
800030
800030
800030
800030
800030
800030
800030
800030
800030
ENDCHAR
STARTCHAR 0145
ENCODING 325
SWIDTH 684 0
DWIDTH 38 0
BBX 26 51 6 -12
BITMAP
C0000040
E0000040
A0000040
B0000040
90000040
88000040
8C000040
84000040
82000040
83000040
81000040
81800040
80800040
80400040
80600040
80200040
80100040
80180040
80080040
800C0040
80040040
80020040
80030040
80010040
80008040
8000C040
80004040
80006040
80002040
80001040
80001840
80000840
80000440
80000640
80000240
80000340
80000140
800000C0
800000C0
00000000
00000000
00000000
00000000
000C0000
000E0000
00040000
00040000
00040000
00080000
00080000
00100000
ENDCHAR
STARTCHAR 0146
ENCODING 326
SWIDTH 540 0
DWIDTH 30 0
BBX 20 41 6 -12
BITMAP
01F800
8F0E00
980180
A000C0
C00040
C00060
800020
800020
800020
800030
800030
800030
800030
800030
800030
800030
800030
800030
800030
800030
800030
800030
800030
800030
800030
800030
800030
800030
800030
000000
000000
000000
000000
00E000
00E000
002000
002000
004000
004000
008000
008000
ENDCHAR
STARTCHAR 0147
ENCODING 327
SWIDTH 684 0
DWIDTH 38 0
BBX 26 51 6 1
BITMAP
02001800
01003000
00806000
0040C000
00218000
00130000
000E0000
00040000
00000000
00000000
00000000
00000000
C0000040
E0000040
A0000040
B0000040
90000040
88000040
8C000040
84000040
82000040
83000040
81000040
81800040
80800040
80400040
80600040
80200040
80100040
80180040
80080040
800C0040
80040040
80020040
80030040
80010040
80008040
8000C040
80004040
80006040
80002040
80001040
80001840
80000840
80000440
80000640
80000240
80000340
80000140
800000C0
800000C0
ENDCHAR
STARTCHAR 0148
ENCODING 328
SWIDTH 540 0
DWIDTH 30 0
BBX 20 41 6 1
BITMAP
300080
180100
0C0200
060400
030800
019000
00E000
006000
000000
000000
000000
000000
01F800
8F0E00
980180
A000C0
C00040
C00060
800020
800020
800020
800030
800030
800030
800030
800030
800030
800030
800030
800030
800030
800030
800030
800030
800030
800030
800030
800030
800030
800030
800030
ENDCHAR
STARTCHAR 0149
ENCODING 329
SWIDTH 756 0
DWIDTH 42 0
BBX 33 42 4 0
BITMAP
1000000000
3800000000
3800000000
1800000000
1000000000
1000000000
1000000000
2000000000
2000000000
4000000000
8000000000
0000000000
0000000000
000007C000
00043C7800
0004C00C00
0005800600
0005000300
0006000100
0006000100
0004000180
0004000080
0004000080
0004000080
0004000080
0004000080
0004000080
0004000080
0004000080
0004000080
0004000080
0004000080
0004000080
0004000080
0004000080
0004000080
0004000080
0004000080
0004000080
0004000080
0004000080
0004000080
ENDCHAR
STARTCHAR 014A
ENCODING 330
SWIDTH 684 0
DWIDTH 38 0
BBX 26 50 6 -11
BITMAP
C0000040
E0000040
A0000040
B0000040
90000040
88000040
8C000040
84000040
82000040
83000040
81000040
81800040
80800040
80400040
80600040
80200040
80100040
80180040
80080040
800C0040
80040040
80020040
80030040
80010040
80008040
8000C040
80004040
80006040
80002040
80001040
80001840
80000840
80000440
80000640
80000240
80000340
80000140
800000C0
800000C0
00000040
00000040
00000040
00000040
00000040
00000040
00000040
00000040
00000040
00000040
000007C0
ENDCHAR
STARTCHAR 014B
ENCODING 331
SWIDTH 540 0
DWIDTH 30 0
BBX 20 40 6 -11
BITMAP
01F800
8F0E00
980180
A000C0
C00040
C00060
800020
800020
800020
800030
800030
800030
800030
800030
800030
800030
800030
800030
800030
800030
800030
800030
800030
800030
800030
800030
800030
800030
800030
000030
000030
000030
000030
000030
000030
000030
000030
000030
000030
0003E0
ENDCHAR
STARTCHAR 014C
ENCODING 332
SWIDTH 666 0
DWIDTH 37 0
BBX 30 49 4 -1
BITMAP
00FFFC00
00000000
00000000
00000000
00000000
00000000
00000000
00000000
00000000
007FF800
01C00E00
03000300
06000180
080000C0
18000060
30000020
20000030
20000010
40000018
40000008
40000008
C0000008
C0000008
8000000C
8000000C
8000000C
80000004
80000004
80000004
80000004
80000004
8000000C
8000000C
8000000C
C0000008
C0000008
40000008
40000008
40000018
60000010
20000010
30000020
10000060
08000040
0C000080
06000300
01800E00
007CF800
0007C000
ENDCHAR
STARTCHAR 014D
ENCODING 333
SWIDTH 540 0
DWIDTH 30 0
BBX 24 39 3 -1
BITMAP
07FFE0
000000
000000
000000
000000
000000
000000
000000
000000
007E00
03C3C0
060060
080010
100008
30000C
200004
600006
400002
400002
400002
400002
C00003
C00003
C00003
C00003
C00003
C00003
400002
400002
400002
400002
600006
200004
30000C
100008
080010
060060
03E7C0
003C00
ENDCHAR
STARTCHAR 014E
ENCODING 334
SWIDTH 666 0
DWIDTH 37 0
BBX 30 51 4 0
BITMAP
00800400
00C00800
00400800
00201000
00302000
000FC000
00000000
00000000
00000000
00000000
00000000
007FF800
01C00E00
03000300
06000180
080000C0
18000060
30000020
20000030
20000010
40000018
40000008
40000008
C0000008
C0000008
8000000C
8000000C
8000000C
80000004
80000004
80000004
80000004
80000004
8000000C
8000000C
8000000C
C0000008
C0000008
40000008
40000008
40000018
60000010
20000010
30000020
10000060
08000040
0C000080
06000300
01800E00
007CF800
0007C000
ENDCHAR
STARTCHAR 014F
ENCODING 335
SWIDTH 540 0
DWIDTH 30 0
BBX 24 42 3 -1
BITMAP
040020
040020
020040
020040
010080
008180
007E00
000000
000000
000000
000000
000000
007E00
03C3C0
060060
080010
100008
30000C
200004
600006
400002
400002
400002
400002
C00003
C00003
C00003
C00003
C00003
C00003
400002
400002
400002
400002
600006
200004
30000C
100008
080010
060060
03E7C0
003C00
ENDCHAR
STARTCHAR 0150
ENCODING 336
SWIDTH 666 0
DWIDTH 37 0
BBX 30 53 4 -1
BITMAP
00000080
00010080
00030180
00060300
00040200
00080400
00180C00
00101800
00201000
00000000
00000000
00000000
00000000
007FF800
01C00E00
03000300
06000180
080000C0
18000060
30000020
20000030
20000010
40000018
40000008
40000008
C0000008
C0000008
8000000C
8000000C
8000000C
80000004
80000004
80000004
80000004
80000004
8000000C
8000000C
8000000C
C0000008
C0000008
40000008
40000008
40000018
60000010
20000010
30000020
10000060
08000040
0C000080
06000300
01800E00
007CF800
0007C000
ENDCHAR
STARTCHAR 0151
ENCODING 337
SWIDTH 540 0
DWIDTH 30 0
BBX 24 42 3 0
BITMAP
000C04
00180C
001018
002010
006020
00C060
008040
010080
000000
000000
000000
000000
007E00
03C3C0
060060
080010
100008
30000C
200004
600006
400002
400002
400002
400002
C00003
C00003
C00003
C00003
C00003
C00003
400002
400002
400002
400002
600006
200004
30000C
100008
080010
060060
03E7C0
003C00
ENDCHAR
STARTCHAR 0152
ENCODING 338
SWIDTH 954 0
DWIDTH 53 0
BBX 46 40 4 -1
BITMAP
003FFFFFFFFC
00E000400000
038000400000
060000400000
0C0000400000
180000400000
100000400000
300000400000
200000400000
600000400000
400000400000
400000400000
400000400000
C00000400000
800000400000
800000400000
800000400000
800000400000
800000400000
8000007FFFF8
800000400000
800000400000
800000400000
800000400000
800000400000
C00000400000
C00000400000
400000400000
400000400000
600000400000
200000400000
200000400000
100000400000
180000400000
0C0000400000
060000400000
030000400000
00C000400000
003F3FFFFFFC
0003F0000000
ENDCHAR
STARTCHAR 0153
ENCODING 339
SWIDTH 918 0
DWIDTH 51 0
BBX 45 30 3 -1
BITMAP
007E0001F800
03C3C00F0E00
060060180180
0800102000C0
100008400060
30000CC00020
200004800030
600006800010
400003000010
400003000008
400003000008
400003000008
C00003000008
C00003000008
C00003FFFFF8
C00003000000
C00003000000
C00003000000
400003000000
400003000000
400003000000
400003000000
600004800018
200004800010
300008C00030
100008400020
080010300040
060060180180
03E780079F00
003C0000F000
ENDCHAR
STARTCHAR 0154
ENCODING 340
SWIDTH 630 0
DWIDTH 35 0
BBX 25 52 6 0
BITMAP
00010000
00030000
00020000
00040000
000C0000
00180000
00100000
00200000
00600000
00000000
00000000
00000000
00000000
FFFFC000
80007000
80001C00
80000400
80000200
80000300
80000100
80000100
80000100
80000180
80000180
80000180
80000100
80000100
80000100
80000300
80000200
80000600
80000C00
80003800
FFFFE000
80020000
80030000
80010000
80018000
80008000
80004000
80006000
80002000
80003000
80001000
80000800
80000C00
80000400
80000600
80000200
80000100
80000180
80000080
ENDCHAR
STARTCHAR 0155
ENCODING 341
SWIDTH 324 0
DWIDTH 18 0
BBX 12 42 6 0
BITMAP
0020
0020
0060
00C0
0080
0100
0300
0600
0400
0000
0000
0000
0000
0000
83F0
8C00
9000
A000
C000
C000
8000
8000
8000
8000
8000
8000
8000
8000
8000
8000
8000
8000
8000
8000
8000
8000
8000
8000
8000
8000
8000
8000
ENDCHAR
STARTCHAR 0156
ENCODING 342
SWIDTH 630 0
DWIDTH 35 0
BBX 25 51 6 -12
BITMAP
FFFFC000
80007000
80001C00
80000400
80000200
80000300
80000100
80000100
80000100
80000180
80000180
80000180
80000100
80000100
80000100
80000300
80000200
80000600
80000C00
80003800
FFFFE000
80020000
80030000
80010000
80018000
80008000
80004000
80006000
80002000
80003000
80001000
80000800
80000C00
80000400
80000600
80000200
80000100
80000180
80000080
00000000
00000000
00000000
00000000
00300000
00300000
00100000
00100000
00100000
00200000
00200000
00400000
ENDCHAR
STARTCHAR 0157
ENCODING 343
SWIDTH 324 0
DWIDTH 18 0
BBX 14 40 4 -12
BITMAP
20FC
2300
2400
2800
3000
3000
2000
2000
2000
2000
2000
2000
2000
2000
2000
2000
2000
2000
2000
2000
2000
2000
2000
2000
2000
2000
2000
2000
0000
0000
0000
0000
7000
7000
1000
2000
2000
2000
4000
8000
ENDCHAR
STARTCHAR 0158
ENCODING 344
SWIDTH 630 0
DWIDTH 35 0
BBX 25 51 6 1
BITMAP
18004000
0C008000
06010000
03020000
01840000
00C80000
00780000
00300000
00000000
00000000
00000000
00000000
FFFFC000
80007000
80001C00
80000400
80000200
80000300
80000100
80000100
80000100
80000180
80000180
80000180
80000100
80000100
80000100
80000300
80000200
80000600
80000C00
80003800
FFFFE000
80020000
80030000
80010000
80018000
80008000
80004000
80006000
80002000
80003000
80001000
80000800
80000C00
80000400
80000600
80000200
80000100
80000180
80000080
ENDCHAR
STARTCHAR 0159
ENCODING 345
SWIDTH 324 0
DWIDTH 18 0
BBX 15 41 5 1
BITMAP
8006
400C
2018
1030
0860
04C0
0380
0100
0000
0000
0000
0000
0000
41F8
4600
4800
5000
6000
6000
4000
4000
4000
4000
4000
4000
4000
4000
4000
4000
4000
4000
4000
4000
4000
4000
4000
4000
4000
4000
4000
4000
ENDCHAR
STARTCHAR 015A
ENCODING 346
SWIDTH 540 0
DWIDTH 30 0
BBX 25 53 2 -1
BITMAP
00004000
0000C000
00008000
00010000
00030000
00060000
00040000
00080000
00180000
00000000
00000000
00000000
00000000
01FFE000
07003800
0C000C00
10000200
30000100
20000100
20000000
60000000
40000000
40000000
40000000
60000000
20000000
20000000
10000000
18000000
0C000000
03800000
00F80000
000FC000
00007000
00000C00
00000600
00000300
00000100
00000180
00000080
00000080
00000080
00000080
00000080
00000080
00000180
C0000100
60000100
30000200
18000600
06001800
01FBF000
002F0000
ENDCHAR
STARTCHAR 015B
ENCODING 347
SWIDTH 450 0
DWIDTH 25 0
BBX 19 42 3 0
BITMAP
000400
000C00
001800
001000
002000
006000
004000
008000
000000
000000
000000
000000
01F800
0F0E00
100180
2000C0
400060
400000
400000
400000
400000
400000
400000
200000
100000
0E0000
03F800
000F00
000180
0000C0
000060
000020
000020
000020
000020
000020
800020
C00060
600040
180180
0F9F00
00F000
ENDCHAR
STARTCHAR 015C
ENCODING 348
SWIDTH 540 0
DWIDTH 30 0
BBX 25 52 2 -1
BITMAP
000C0000
00120000
00210000
00408000
00804000
01002000
02001000
00000000
00000000
00000000
00000000
00000000
01FFE000
07003800
0C000C00
10000200
30000100
20000100
20000000
60000000
40000000
40000000
40000000
60000000
20000000
20000000
10000000
18000000
0C000000
03800000
00F80000
000FC000
00007000
00000C00
00000600
00000300
00000100
00000180
00000080
00000080
00000080
00000080
00000080
00000080
00000180
C0000100
60000100
30000200
18000600
06001800
01FBF000
002F0000
ENDCHAR
STARTCHAR 015D
ENCODING 349
SWIDTH 450 0
DWIDTH 25 0
BBX 19 42 3 -1
BITMAP
00E000
01B000
031800
060C00
0C0600
180300
300180
200080
000000
000000
000000
000000
01F800
0F0E00
100180
2000C0
400060
400000
400000
400000
400000
400000
400000
200000
100000
0E0000
03F800
000F00
000180
0000C0
000060
000020
000020
000020
000020
000020
800020
C00060
600040
180180
0F9F00
00F000
ENDCHAR
STARTCHAR 015E
ENCODING 350
SWIDTH 540 0
DWIDTH 30 0
BBX 25 50 2 -11
BITMAP
01FFE000
07003800
0C000C00
10000200
30000100
20000100
20000000
60000000
40000000
40000000
40000000
60000000
20000000
20000000
10000000
18000000
0C000000
03800000
00F80000
000FC000
00007000
00000C00
00000600
00000300
00000100
00000180
00000080
00000080
00000080
00000080
00000080
00000080
00000180
C0000100
60000100
30000200
18000600
06001800
01FBF000
003F0000
00080000
00080000
00080000
000F8000
0000C000
00004000
00004000
00004000
0060C000
003F8000
ENDCHAR
STARTCHAR 015F
ENCODING 351
SWIDTH 450 0
DWIDTH 25 0
BBX 19 40 3 -11
BITMAP
01F800
0F0E00
100180
2000C0
400060
400000
400000
400000
400000
400000
400000
200000
100000
0E0000
03F800
000F00
000180
0000C0
000060
000020
000020
000020
000020
000020
800020
C00060
600040
180180
0F9F00
01F000
004000
004000
004000
007C00
000600
000200
000200
000200
030600
01F800
ENDCHAR
STARTCHAR 0160
ENCODING 352
SWIDTH 540 0
DWIDTH 30 0
BBX 25 52 2 0
BITMAP
02001000
03002000
01804000
00C08000
00618000
00330000
001E0000
000C0000
00000000
00000000
00000000
00000000
01FFE000
07003800
0C000C00
10000200
30000100
20000100
20000000
60000000
40000000
40000000
40000000
60000000
20000000
20000000
10000000
18000000
0C000000
03800000
00F80000
000FC000
00007000
00000C00
00000600
00000300
00000100
00000180
00000080
00000080
00000080
00000080
00000080
00000080
00000180
C0000100
60000100
30000200
18000600
06001800
01FBF000
002F0000
ENDCHAR
STARTCHAR 0161
ENCODING 353
SWIDTH 450 0
DWIDTH 25 0
BBX 19 42 3 0
BITMAP
200180
100300
080600
040C00
021800
013000
00E000
004000
000000
000000
000000
000000
01F800
0F0E00
100180
2000C0
400060
400000
400000
400000
400000
400000
400000
200000
100000
0E0000
03F800
000F00
000180
0000C0
000060
000020
000020
000020
000020
000020
800020
C00060
600040
180180
0F9F00
00F000
ENDCHAR
STARTCHAR 0162
ENCODING 354
SWIDTH 558 0
DWIDTH 31 0
BBX 29 51 1 -12
BITMAP
FFFFFFF8
00020000
00020000
00020000
00020000
00020000
00020000
00020000
00020000
00020000
00020000
00020000
00020000
00020000
00020000
00020000
00020000
00020000
00020000
00020000
00020000
00020000
00020000
00020000
00020000
00020000
00020000
00020000
00020000
00020000
00020000
00020000
00020000
00020000
00020000
00020000
00020000
00020000
00020000
00000000
00000000
00000000
00000000
00070000
00070000
00010000
00010000
00020000
00020000
00040000
00040000
ENDCHAR
STARTCHAR 0163
ENCODING 355
SWIDTH 306 0
DWIDTH 17 0
BBX 13 48 2 -12
BITMAP
0400
0400
0400
0400
0400
0400
0400
0400
FFF8
0400
0400
0400
0400
0400
0400
0400
0400
0400
0400
0400
0400
0400
0400
0400
0400
0400
0400
0400
0400
0400
0400
0400
0400
0400
0400
07F0
0000
0000
0000
0000
01C0
01C0
0040
0040
0080
0080
0100
0100
ENDCHAR
STARTCHAR 0164
ENCODING 356
SWIDTH 558 0
DWIDTH 31 0
BBX 29 51 1 1
BITMAP
01800400
00C00800
00601000
00302000
00184000
000C8000
00070000
00020000
00000000
00000000
00000000
00000000
FFFFFFF8
00020000
00020000
00020000
00020000
00020000
00020000
00020000
00020000
00020000
00020000
00020000
00020000
00020000
00020000
00020000
00020000
00020000
00020000
00020000
00020000
00020000
00020000
00020000
00020000
00020000
00020000
00020000
00020000
00020000
00020000
00020000
00020000
00020000
00020000
00020000
00020000
00020000
00020000
ENDCHAR
STARTCHAR 0165
ENCODING 357
SWIDTH 306 0
DWIDTH 17 0
BBX 14 41 2 0
BITMAP
000C
000C
000C
0008
0008
0408
0408
0408
0408
0408
0400
0400
0400
FFF8
0400
0400
0400
0400
0400
0400
0400
0400
0400
0400
0400
0400
0400
0400
0400
0400
0400
0400
0400
0400
0400
0400
0400
0400
0400
0400
07F0
ENDCHAR
STARTCHAR 0166
ENCODING 358
SWIDTH 558 0
DWIDTH 31 0
BBX 29 39 1 0
BITMAP
FFFFFFF8
00020000
00020000
00020000
00020000
00020000
00020000
00020000
00020000
00020000
00020000
00020000
00020000
00020000
00020000
00020000
00020000
00020000
0FFFFFC0
00020000
00020000
00020000
00020000
00020000
00020000
00020000
00020000
00020000
00020000
00020000
00020000
00020000
00020000
00020000
00020000
00020000
00020000
00020000
00020000
ENDCHAR
STARTCHAR 0167
ENCODING 359
SWIDTH 306 0
DWIDTH 17 0
BBX 13 36 2 0
BITMAP
0400
0400
0400
0400
0400
0400
0400
0400
FFF8
0400
0400
0400
0400
0400
0400
0400
0400
0400
0400
7FF0
0400
0400
0400
0400
0400
0400
0400
0400
0400
0400
0400
0400
0400
0400
0400
07F8
ENDCHAR
STARTCHAR 0168
ENCODING 360
SWIDTH 648 0
DWIDTH 36 0
BBX 25 50 6 -1
BITMAP
03C00000
0C301000
080C3000
0007C000
00000000
00000000
00000000
00000000
00000000
00000000
80000180
80000180
80000180
80000180
80000180
80000180
80000180
80000180
80000180
80000180
80000180
80000180
80000180
80000180
80000180
80000180
80000180
80000180
80000180
80000180
80000180
80000180
80000180
80000180
80000180
80000180
80000180
80000180
80000100
80000100
80000100
80000100
C0000300
40000200
60000200
20000400
10000C00
0C003000
07E7E000
007E0000
ENDCHAR
STARTCHAR 0169
ENCODING 361
SWIDTH 540 0
DWIDTH 30 0
BBX 20 40 5 -1
BITMAP
0F8000
10C000
2030C0
000F80
000000
000000
000000
000000
000000
000000
000000
800010
800010
800010
800010
800010
800010
800010
800010
800010
800010
800010
800010
800010
800010
800010
800010
800010
800010
800010
800010
C00010
400010
400010
400030
200050
3000D0
180190
079E10
01F000
ENDCHAR
STARTCHAR 016A
ENCODING 362
SWIDTH 648 0
DWIDTH 36 0
BBX 25 49 6 -1
BITMAP
07FFE000
00000000
00000000
00000000
00000000
00000000
00000000
00000000
00000000
80000180
80000180
80000180
80000180
80000180
80000180
80000180
80000180
80000180
80000180
80000180
80000180
80000180
80000180
80000180
80000180
80000180
80000180
80000180
80000180
80000180
80000180
80000180
80000180
80000180
80000180
80000180
80000180
80000100
80000100
80000100
80000100
C0000300
40000200
60000200
20000400
10000C00
0C003000
07E7E000
007E0000
ENDCHAR
STARTCHAR 016B
ENCODING 363
SWIDTH 540 0
DWIDTH 30 0
BBX 20 39 5 -1
BITMAP
1FFF80
000000
000000
000000
000000
000000
000000
000000
000000
000000
800010
800010
800010
800010
800010
800010
800010
800010
800010
800010
800010
800010
800010
800010
800010
800010
800010
800010
800010
800010
C00010
400010
400010
400030
200050
3000D0
180190
079E10
01F000
ENDCHAR
STARTCHAR 016C
ENCODING 364
SWIDTH 648 0
DWIDTH 36 0
BBX 25 52 6 -1
BITMAP
04002000
04002000
02004000
02004000
01008000
00818000
007E0000
00000000
00000000
00000000
00000000
00000000
80000180
80000180
80000180
80000180
80000180
80000180
80000180
80000180
80000180
80000180
80000180
80000180
80000180
80000180
80000180
80000180
80000180
80000180
80000180
80000180
80000180
80000180
80000180
80000180
80000180
80000180
80000180
80000180
80000100
80000100
80000100
80000100
C0000300
40000200
60000200
20000400
10000C00
0C003000
07E7E000
007E0000
ENDCHAR
STARTCHAR 016D
ENCODING 365
SWIDTH 540 0
DWIDTH 30 0
BBX 20 41 5 0
BITMAP
100080
080080
0C0100
040200
020600
01F800
000000
000000
000000
000000
000000
000000
800010
800010
800010
800010
800010
800010
800010
800010
800010
800010
800010
800010
800010
800010
800010
800010
800010
800010
800010
800010
C00010
400010
400010
400030
200050
3000D0
180190
079E10
01F000
ENDCHAR
STARTCHAR 016E
ENCODING 366
SWIDTH 648 0
DWIDTH 36 0
BBX 25 54 6 -1
BITMAP
003C0000
00C30000
00810000
01008000
01008000
01008000
01008000
01818000
00C10000
007E0000
00000000
00000000
00000000
00000000
80000180
80000180
80000180
80000180
80000180
80000180
80000180
80000180
80000180
80000180
80000180
80000180
80000180
80000180
80000180
80000180
80000180
80000180
80000180
80000180
80000180
80000180
80000180
80000180
80000180
80000180
80000180
80000180
80000100
80000100
80000100
80000100
C0000300
40000200
60000200
20000400
10000C00
0C003000
07E7E000
007E0000
ENDCHAR
STARTCHAR 016F
ENCODING 367
SWIDTH 540 0
DWIDTH 30 0
BBX 20 44 5 -1
BITMAP
00F000
010C00
020600
060200
040200
040200
040200
020200
030400
01F800
000000
000000
000000
000000
000000
800010
800010
800010
800010
800010
800010
800010
800010
800010
800010
800010
800010
800010
800010
800010
800010
800010
800010
800010
800010
C00010
400010
400010
400030
200050
3000D0
180190
079E10
01F000
ENDCHAR
STARTCHAR 0170
ENCODING 368
SWIDTH 648 0
DWIDTH 36 0
BBX 25 52 6 0
BITMAP
000C0400
00180C00
00101800
00201000
00602000
00C06000
00804000
01008000
00000000
00000000
00000000
00000000
80000180
80000180
80000180
80000180
80000180
80000180
80000180
80000180
80000180
80000180
80000180
80000180
80000180
80000180
80000180
80000180
80000180
80000180
80000180
80000180
80000180
80000180
80000180
80000180
80000180
80000180
80000180
80000180
80000100
80000100
80000100
80000100
C0000300
40000200
60000200
20000400
10000C00
0C003000
07E7E000
007E0000
ENDCHAR
STARTCHAR 0171
ENCODING 369
SWIDTH 540 0
DWIDTH 30 0
BBX 21 43 5 -1
BITMAP
001000
003018
006030
004020
008040
0180C0
010080
020100
040200
000000
000000
000000
000000
000000
800010
800010
800010
800010
800010
800010
800010
800010
800010
800010
800010
800010
800010
800010
800010
800010
800010
800010
800010
800010
C00010
400010
400010
400030
200050
3000D0
180190
079E10
01F000
ENDCHAR
STARTCHAR 0172
ENCODING 370
SWIDTH 648 0
DWIDTH 36 0
BBX 25 50 6 -11
BITMAP
80000180
80000180
80000180
80000180
80000180
80000180
80000180
80000180
80000180
80000180
80000180
80000180
80000180
80000180
80000180
80000180
80000180
80000180
80000180
80000180
80000180
80000180
80000180
80000180
80000180
80000180
80000180
80000180
80000100
80000100
80000100
80000100
C0000300
40000200
60000200
20000400
10000C00
0C003000
07E7E000
007E8000
00030000
00040000
00080000
00180000
00100000
00100000
00100000
00100000
00186000
000FC000
ENDCHAR
STARTCHAR 0173
ENCODING 371
SWIDTH 540 0
DWIDTH 30 0
BBX 22 39 5 -11
BITMAP
800010
800010
800010
800010
800010
800010
800010
800010
800010
800010
800010
800010
800010
800010
800010
800010
800010
800010
800010
800010
C00010
400010
400010
400030
200050
3000D0
180190
079E10
01F020
000040
000080
000100
000200
000200
000600
000600
000200
00030C
0001F8
ENDCHAR
STARTCHAR 0174
ENCODING 372
SWIDTH 864 0
DWIDTH 48 0
BBX 45 51 2 0
BITMAP
000006000000
000009000000
000010800000
000020400000
000040200000
000080100000
000100080000
000000000000
000000000000
000000000000
000000000000
000000000000
800006000018
800006000010
C00005000010
40000D000010
400009000030
400009800020
600008800020
200010800020
200010800060
200010400040
300030400040
1000204000C0
1000206000C0
180020200080
180060200080
080040200180
080040300100
0C00C0100100
040080100100
040080180300
040080080200
060180080200
020100080200
0201000C0600
020100040400
030200040400
010200040400
010200020C00
010600020800
018400020800
008400031800
008400011000
00C800011000
004800011000
00480000B000
00580000A000
00700000A000
00300000E000
003000006000
ENDCHAR
STARTCHAR 0175
ENCODING 373
SWIDTH 720 0
DWIDTH 40 0
BBX 36 41 2 0
BITMAP
0000700000
0000980000
00010C0000
0002040000
0004020000
0008010000
0010008000
0000000000
0000000000
0000000000
0000000000
0000000000
0000000000
8000600010
C000600010
4000700030
4000D00020
6000900020
2000980060
2000880040
2001080040
1001080040
1001040080
1002040080
1802040080
0802020180
0804020100
0C04020100
0404030300
040C010200
0408010200
0208018200
0218008400
0210008400
0110008400
0110004800
0120004800
01A0004800
00A0003800
00C0003000
00C0003000
ENDCHAR
STARTCHAR 0176
ENCODING 374
SWIDTH 540 0
DWIDTH 30 0
BBX 28 51 1 0
BITMAP
00070000
00098000
0010C000
00204000
00402000
00801000
01000800
00000000
00000000
00000000
00000000
00000000
C0000010
40000020
20000060
30000040
100000C0
18000080
08000100
04000300
06000200
02000600
03000400
01000800
01801800
00C01000
00403000
00602000
00204000
0030C000
00108000
00098000
000D0000
00060000
00060000
00020000
00020000
00020000
00020000
00020000
00020000
00020000
00020000
00020000
00020000
00020000
00020000
00020000
00020000
00020000
00020000
ENDCHAR
STARTCHAR 0177
ENCODING 375
SWIDTH 450 0
DWIDTH 25 0
BBX 22 52 2 -11
BITMAP
007000
00C800
018400
030200
060100
0C0080
080040
100000
000000
000000
000000
000000
000000
80000C
800008
C00008
400010
400010
600030
200020
200020
100060
100040
180040
080080
080080
0C0080
040100
040100
020300
020200
020200
010400
010400
018400
008800
008800
005800
005000
005000
003000
002000
002000
004000
004000
00C000
008000
008000
018000
010000
010000
7E0000
ENDCHAR
STARTCHAR 0178
ENCODING 376
SWIDTH 540 0
DWIDTH 30 0
BBX 28 48 1 0
BITMAP
00C03000
00C03000
00000000
00000000
00000000
00000000
00000000
00000000
00000000
C0000010
40000020
20000060
30000040
100000C0
18000080
08000100
04000300
06000200
02000600
03000400
01000800
01801800
00C01000
00403000
00602000
00204000
0030C000
00108000
00098000
000D0000
00060000
00060000
00020000
00020000
00020000
00020000
00020000
00020000
00020000
00020000
00020000
00020000
00020000
00020000
00020000
00020000
00020000
00020000
ENDCHAR
STARTCHAR 0179
ENCODING 377
SWIDTH 540 0
DWIDTH 30 0
BBX 27 51 2 1
BITMAP
00006000
0000C000
00008000
00010000
00030000
00020000
00040000
00080000
00000000
00000000
00000000
00000000
7FFFFFC0
00000040
00000080
00000180
00000100
00000200
00000600
00000400
00000800
00001800
00001000
00002000
00006000
00004000
00008000
00018000
00010000
00020000
00060000
000C0000
00080000
00180000
00300000
00200000
00600000
00C00000
00800000
01800000
03000000
02000000
06000000
0C000000
08000000
10000000
30000000
20000000
40000000
C0000000
FFFFFFE0
ENDCHAR
STARTCHAR 017A
ENCODING 378
SWIDTH 414 0
DWIDTH 23 0
BBX 21 41 1 1
BITMAP
000300
000600
000400
000800
001800
003000
002000
004000
000000
000000
000000
000000
000000
7FFFF0
000010
000020
000060
000040
000080
000180
000300
000200
000400
000C00
000800
001000
002000
006000
004000
008000
018000
010000
020000
040000
0C0000
080000
100000
200000
600000
400000
FFFFF8
ENDCHAR
STARTCHAR 017B
ENCODING 379
SWIDTH 540 0
DWIDTH 30 0
BBX 27 48 2 0
BITMAP
000E0000
00060000
00000000
00000000
00000000
00000000
00000000
00000000
00000000
7FFFFFC0
00000040
00000080
00000180
00000100
00000200
00000600
00000400
00000800
00001800
00001000
00002000
00006000
00004000
00008000
00018000
00010000
00020000
00060000
000C0000
00080000
00180000
00300000
00200000
00600000
00C00000
00800000
01800000
03000000
02000000
06000000
0C000000
08000000
10000000
30000000
20000000
40000000
C0000000
FFFFFFE0
ENDCHAR
STARTCHAR 017C
ENCODING 380
SWIDTH 414 0
DWIDTH 23 0
BBX 21 38 1 0
BITMAP
007000
007000
000000
000000
000000
000000
000000
000000
000000
000000
7FFFF0
000010
000020
000060
000040
000080
000180
000300
000200
000400
000C00
000800
001000
002000
006000
004000
008000
018000
010000
020000
040000
0C0000
080000
100000
200000
600000
400000
FFFFF8
ENDCHAR
STARTCHAR 017D
ENCODING 381
SWIDTH 540 0
DWIDTH 30 0
BBX 27 51 2 1
BITMAP
03000800
01801000
00C02000
00604000
00308000
00190000
000E0000
00040000
00000000
00000000
00000000
00000000
7FFFFFC0
00000040
00000080
00000180
00000100
00000200
00000600
00000400
00000800
00001800
00001000
00002000
00006000
00004000
00008000
00018000
00010000
00020000
00060000
000C0000
00080000
00180000
00300000
00200000
00600000
00C00000
00800000
01800000
03000000
02000000
06000000
0C000000
08000000
10000000
30000000
20000000
40000000
C0000000
FFFFFFE0
ENDCHAR
STARTCHAR 017E
ENCODING 382
SWIDTH 414 0
DWIDTH 23 0
BBX 21 41 1 1
BITMAP
180040
0C0080
060100
030200
018400
00C800
007000
002000
000000
000000
000000
000000
000000
7FFFF0
000010
000020
000060
000040
000080
000180
000300
000200
000400
000C00
000800
001000
002000
006000
004000
008000
018000
010000
020000
040000
0C0000
080000
100000
200000
600000
400000
FFFFF8
ENDCHAR
STARTCHAR 018F
ENCODING 399
SWIDTH 666 0
DWIDTH 37 0
BBX 30 40 4 -1
BITMAP
007FF800
01C00E00
03000300
04000180
080000C0
18000060
10000020
20000030
20000010
60000018
00000008
00000008
00000008
00000008
0000000C
0000000C
0000000C
00000004
00000004
FFFFFFFC
FFFFFFFC
80000004
8000000C
8000000C
8000000C
C0000008
C0000008
40000008
40000008
40000018
60000010
20000010
30000020
10000060
08000040
0C000080
06000300
01800E00
007CF800
0007C000
ENDCHAR
STARTCHAR 0192
ENCODING 402
SWIDTH 486 0
DWIDTH 27 0
BBX 26 46 0 -7
BITMAP
0001FFC0
00020000
00020000
00020000
00020000
00020000
00020000
00020000
00060000
00060000
00040000
00040000
00040000
00040000
00040000
00040000
00040000
00040000
000C0000
000C0000
00080000
1FFFFF80
00080000
00080000
00080000
00080000
00080000
00080000
00180000
00180000
00100000
00100000
00100000
00100000
00100000
00100000
00100000
00100000
00100000
00300000
00300000
00200000
00200000
00200000
00200000
FFE00000
ENDCHAR
STARTCHAR 01A0
ENCODING 416
SWIDTH 666 0
DWIDTH 37 0
BBX 30 46 4 -1
BITMAP
00000004
00000004
00000004
00000004
00000004
00000004
007FFFFC
01C00E00
03000300
06000180
080000C0
18000060
30000020
20000030
20000010
40000018
40000008
40000008
C0000008
C0000008
8000000C
8000000C
8000000C
80000004
80000004
80000004
80000004
80000004
8000000C
8000000C
8000000C
C0000008
C0000008
40000008
40000008
40000018
60000010
20000010
30000020
10000060
08000040
0C000080
06000300
01800E00
007CF800
0007C000
ENDCHAR
STARTCHAR 01A1
ENCODING 417
SWIDTH 540 0
DWIDTH 30 0
BBX 24 35 3 -1
BITMAP
000002
000002
000002
000002
000002
007E02
03C3FE
060060
080010
100008
30000C
200004
600006
400002
400002
400002
400002
C00003
C00003
C00003
C00003
C00003
C00003
400002
400002
400002
400002
600006
200004
30000C
100008
080010
060060
03E7C0
003C00
ENDCHAR
STARTCHAR 01AF
ENCODING 431
SWIDTH 648 0
DWIDTH 36 0
BBX 29 46 6 -1
BITMAP
00000008
00000008
00000008
00000008
00000008
00000008
800001F8
80000180
80000180
80000180
80000180
80000180
80000180
80000180
80000180
80000180
80000180
80000180
80000180
80000180
80000180
80000180
80000180
80000180
80000180
80000180
80000180
80000180
80000180
80000180
80000180
80000180
80000180
80000180
80000100
80000100
80000100
80000100
C0000300
40000200
60000200
20000400
10000C00
0C003000
07E7E000
007E0000
ENDCHAR
STARTCHAR 01B0
ENCODING 432
SWIDTH 540 0
DWIDTH 30 0
BBX 24 35 5 -1
BITMAP
000001
000001
000001
000001
000001
000001
80001F
800010
800010
800010
800010
800010
800010
800010
800010
800010
800010
800010
800010
800010
800010
800010
800010
800010
800010
800010
C00010
400010
400010
400030
200050
3000D0
180190
079E10
01F000
ENDCHAR
STARTCHAR 01FA
ENCODING 506
SWIDTH 594 0
DWIDTH 33 0
BBX 29 60 2 1
BITMAP
00006000
00004000
00008000
00010000
00030000
00020000
00000000
00078000
0018C000
00302000
00202000
00201000
00201000
00203000
00202000
00106000
000FC000
00000000
00000000
00000000
00000000
00030000
00070000
00050000
00058000
000C8000
00088000
00084000
00104000
00106000
00302000
00202000
00203000
00601000
00401000
00401800
00C00800
00800800
00800C00
01000400
01000400
03000200
02000200
02000300
06000100
04000100
07FFFF80
0C000080
08000080
080000C0
18000040
10000040
30000020
20000020
20000030
60000010
40000010
40000018
C0000008
80000008
ENDCHAR
STARTCHAR 01FB
ENCODING 507
SWIDTH 504 0
DWIDTH 28 0
BBX 25 52 3 -1
BITMAP
00020000
00020000
00040000
000C0000
00180000
00100000
00000000
00000000
00780000
01840000
01020000
02010000
02010000
02010000
02010000
02020000
01060000
00FC0000
00000000
00000000
00000000
00000000
00FC0000
07870000
0C00C000
10004000
20002000
20002000
00003000
00001000
00001000
00001000
00001000
00001000
00001000
00001000
07FFF000
1C001000
30001000
60001000
40001000
40001000
C0001000
C0001000
C0001000
40003000
40003000
40005000
20009000
10011000
0F9E1F80
01E00000
ENDCHAR
STARTCHAR 01FC
ENCODING 508
SWIDTH 846 0
DWIDTH 47 0
BBX 44 51 0 1
BITMAP
000000000400
000000000C00
000000001800
000000001000
000000002000
000000006000
000000004000
000000008000
000000000000
000000000000
000000000000
000000000000
000007FFFFF0
000005000000
000009000000
000009000000
000011000000
000031000000
000021000000
000061000000
000041000000
0000C1000000
000081000000
000181000000
000101000000
000201000000
000201000000
000401000000
000C01000000
000801000000
001801000000
001001FFFFE0
003001000000
002001000000
006001000000
004001000000
008001000000
00FFFF000000
010001000000
030001000000
020001000000
060001000000
040001000000
0C0001000000
080001000000
100001000000
100001000000
200001000000
600001000000
400001000000
C00001FFFFF0
ENDCHAR
STARTCHAR 01FD
ENCODING 509
SWIDTH 846 0
DWIDTH 47 0
BBX 42 42 3 0
BITMAP
000000C00000
000001800000
000001000000
000002000000
000006000000
000004000000
000008000000
000010000000
000000000000
000000000000
000000000000
000000000000
00F8000F8000
07070070E000
180181801800
100043000C00
200066000600
600024000200
000028000100
000028000100
000018000080
000010000080
000010000080
000010000080
000010000080
000010000080
07FFFFFFFFC0
180010000000
300010000000
600010000000
400010000000
C00010000000
800010000000
800018000000
800028000080
800028000100
C00024000100
400046000200
600083000400
300301801800
0F1E0079F000
01E000070000
ENDCHAR
STARTCHAR 01FE
ENCODING 510
SWIDTH 666 0
DWIDTH 37 0
BBX 30 53 4 -2
BITMAP
00001000
00003000
00002000
00004000
0000C000
00018000
00010000
00020000
00060000
00000000
00000000
00000000
0000000C
007FF818
01C00E10
03000320
060001E0
080000C0
180000E0
300001A0
20000130
20000210
40000618
40000408
40000808
C0001808
C0003008
8000200C
8000400C
8000C00C
80008004
80010004
80030004
80020004
80040004
800C000C
8018000C
8010000C
C0200008
C0600008
40400008
40800008
41800018
21000010
22000010
36000020
1C000060
08000040
1C000080
36000300
21800E00
407CF800
C007C000
ENDCHAR
STARTCHAR 01FF
ENCODING 511
SWIDTH 540 0
DWIDTH 30 0
BBX 26 43 2 -1
BITMAP
00004000
00004000
0000C000
00018000
00010000
00020000
00040000
000C0000
00080000
00000000
00000000
00000000
00000040
003F0080
00E1E180
03003300
04000A00
0C000400
18000E00
10001200
10003100
20002100
20004100
20008100
20010180
20030080
20060080
60040080
60080080
20100080
20300080
20600180
20400100
20800100
21000100
12000300
16000200
0C000600
0C000400
16000800
23003000
60F3E000
C01E0000
ENDCHAR
STARTCHAR 0218
ENCODING 536
SWIDTH 540 0
DWIDTH 30 0
BBX 25 51 2 -12
BITMAP
01FFE000
07003800
0C000C00
10000200
30000100
20000100
20000000
60000000
40000000
40000000
40000000
60000000
20000000
20000000
10000000
18000000
0C000000
03800000
00F80000
000FC000
00007000
00000C00
00000600
00000300
00000100
00000180
00000080
00000080
00000080
00000080
00000080
00000080
00000180
C0000100
60000100
30000200
18000600
06001800
01FBF000
002F0000
00000000
00000000
00000000
000C0000
000E0000
00040000
00040000
00040000
00080000
00080000
00100000
ENDCHAR
STARTCHAR 0219
ENCODING 537
SWIDTH 450 0
DWIDTH 25 0
BBX 19 41 3 -12
BITMAP
01F800
0F0E00
100180
2000C0
400060
400000
400000
400000
400000
400000
400000
200000
100000
0E0000
03F800
000F00
000180
0000C0
000060
000020
000020
000020
000020
000020
800020
C00060
600040
180180
0F9F00
00F000
000000
000000
000000
006000
006000
002000
002000
002000
004000
004000
008000
ENDCHAR
STARTCHAR 021A
ENCODING 538
SWIDTH 558 0
DWIDTH 31 0
BBX 29 51 1 -12
BITMAP
FFFFFFF8
00020000
00020000
00020000
00020000
00020000
00020000
00020000
00020000
00020000
00020000
00020000
00020000
00020000
00020000
00020000
00020000
00020000
00020000
00020000
00020000
00020000
00020000
00020000
00020000
00020000
00020000
00020000
00020000
00020000
00020000
00020000
00020000
00020000
00020000
00020000
00020000
00020000
00020000
00000000
00000000
00000000
00000000
00070000
00070000
00010000
00010000
00020000
00020000
00040000
00040000
ENDCHAR
STARTCHAR 021B
ENCODING 539
SWIDTH 306 0
DWIDTH 17 0
BBX 13 48 2 -12
BITMAP
0400
0400
0400
0400
0400
0400
0400
0400
FFF8
0400
0400
0400
0400
0400
0400
0400
0400
0400
0400
0400
0400
0400
0400
0400
0400
0400
0400
0400
0400
0400
0400
0400
0400
0400
0400
07F0
0000
0000
0000
0000
01C0
01C0
0040
0040
0080
0080
0100
0100
ENDCHAR
STARTCHAR 0237
ENCODING 567
SWIDTH 216 0
DWIDTH 12 0
BBX 6 39 1 -11
BITMAP
04
04
04
04
04
04
04
04
04
04
04
04
04
04
04
04
04
04
04
04
04
04
04
04
04
04
04
04
04
04
04
04
04
04
04
04
04
04
FC
ENDCHAR
STARTCHAR 0259
ENCODING 601
SWIDTH 522 0
DWIDTH 29 0
BBX 23 30 3 -1
BITMAP
007C00
03C380
0C0060
180030
100018
200008
400004
400004
000004
000002
000002
000002
000002
000002
000002
FFFFFE
C00002
C00002
C00002
400002
400002
400004
200004
20000C
300008
180018
0C0030
060060
01E780
003C00
ENDCHAR
STARTCHAR 02BB
ENCODING 699
SWIDTH 594 0
DWIDTH 33 0
BBX 3 8 15 33
BITMAP
20
20
40
40
80
E0
E0
40
ENDCHAR
STARTCHAR 02BC
ENCODING 700
SWIDTH 594 0
DWIDTH 33 0
BBX 2 10 13 31
BITMAP
40
40
40
40
40
40
C0
80
80
80
ENDCHAR
STARTCHAR 02C6
ENCODING 710
SWIDTH 594 0
DWIDTH 33 0
BBX 15 8 9 33
BITMAP
0380
06C0
0C60
1830
3018
600C
C006
8002
ENDCHAR
STARTCHAR 02C7
ENCODING 711
SWIDTH 594 0
DWIDTH 33 0
BBX 15 8 9 34
BITMAP
C002
6004
3008
1810
0C20
0640
0380
0100
ENDCHAR
STARTCHAR 02D8
ENCODING 728
SWIDTH 594 0
DWIDTH 33 0
BBX 14 6 10 35
BITMAP
8004
8008
4018
6010
3060
1FC0
ENDCHAR
STARTCHAR 02D9
ENCODING 729
SWIDTH 594 0
DWIDTH 33 0
BBX 3 2 15 36
BITMAP
E0
E0
ENDCHAR
STARTCHAR 02DA
ENCODING 730
SWIDTH 594 0
DWIDTH 33 0
BBX 10 10 12 33
BITMAP
1E00
6300
C080
8080
8040
8040
80C0
8080
4180
3F00
ENDCHAR
STARTCHAR 02DB
ENCODING 731
SWIDTH 594 0
DWIDTH 33 0
BBX 8 12 9 -11
BITMAP
02
06
08
10
20
40
80
80
80
80
C1
7E
ENDCHAR
STARTCHAR 02DC
ENCODING 732
SWIDTH 594 0
DWIDTH 33 0
BBX 16 4 9 35
BITMAP
3C00
C301
0182
007C
ENDCHAR
STARTCHAR 02DD
ENCODING 733
SWIDTH 594 0
DWIDTH 33 0
BBX 15 9 12 33
BITMAP
0402
0402
0804
180C
3018
2010
4020
C060
8040
ENDCHAR
STARTCHAR 0300
ENCODING 768
SWIDTH 0 0
DWIDTH 0 0
BBX 7 9 -5 33
BITMAP
80
C0
40
20
30
10
08
04
06
ENDCHAR
STARTCHAR 0301
ENCODING 769
SWIDTH 0 0
DWIDTH 0 0
BBX 7 9 -2 33
BITMAP
02
06
04
0C
18
10
20
60
C0
ENDCHAR
STARTCHAR 0302
ENCODING 770
SWIDTH 0 0
DWIDTH 0 0
BBX 14 7 -7 33
BITMAP
0300
0480
0840
1020
2010
4008
8004
ENDCHAR
STARTCHAR 0303
ENCODING 771
SWIDTH 0 0
DWIDTH 0 0
BBX 16 4 -8 35
BITMAP
3C00
C301
80C3
007C
ENDCHAR
STARTCHAR 0304
ENCODING 772
SWIDTH 0 0
DWIDTH 0 0
BBX 14 1 -7 37
BITMAP
FFFC
ENDCHAR
STARTCHAR 0306
ENCODING 774
SWIDTH 0 0
DWIDTH 0 0
BBX 14 7 -7 34
BITMAP
8004
8004
4008
4008
2010
1030
0FC0
ENDCHAR
STARTCHAR 0307
ENCODING 775
SWIDTH 0 0
DWIDTH 0 0
BBX 2 2 -1 36
BITMAP
C0
C0
ENDCHAR
STARTCHAR 0308
ENCODING 776
SWIDTH 0 0
DWIDTH 0 0
BBX 12 2 -6 36
BITMAP
C030
C030
ENDCHAR
STARTCHAR 0309
ENCODING 777
SWIDTH 0 0
DWIDTH 0 0
BBX 9 8 -4 32
BITMAP
FF80
0180
0100
0300
0200
0400
0C00
0800
ENDCHAR
STARTCHAR 030A
ENCODING 778
SWIDTH 0 0
DWIDTH 0 0
BBX 10 10 -5 33
BITMAP
1E00
6180
4080
8040
8040
8040
8040
C0C0
6080
3F00
ENDCHAR
STARTCHAR 030B
ENCODING 779
SWIDTH 0 0
DWIDTH 0 0
BBX 15 8 -5 34
BITMAP
0602
0C06
080C
1008
3010
6030
4020
8040
ENDCHAR
STARTCHAR 030C
ENCODING 780
SWIDTH 0 0
DWIDTH 0 0
BBX 14 8 -7 34
BITMAP
8004
400C
2018
1030
1860
0CC0
0780
0300
ENDCHAR
STARTCHAR 0312
ENCODING 786
SWIDTH 0 0
DWIDTH 0 0
BBX 3 8 -1 33
BITMAP
20
40
80
80
80
C0
C0
C0
ENDCHAR
STARTCHAR 0315
ENCODING 789
SWIDTH 0 0
DWIDTH 0 0
BBX 2 10 0 31
BITMAP
40
40
40
40
40
C0
80
80
80
80
ENDCHAR
STARTCHAR 031B
ENCODING 795
SWIDTH 0 0
DWIDTH 0 0
BBX 5 7 -4 27
BITMAP
08
08
08
08
08
08
F8
ENDCHAR
STARTCHAR 0323
ENCODING 803
SWIDTH 0 0
DWIDTH 0 0
BBX 2 2 -1 -7
BITMAP
C0
C0
ENDCHAR
STARTCHAR 0326
ENCODING 806
SWIDTH 0 0
DWIDTH 0 0
BBX 3 8 -2 -12
BITMAP
60
60
20
20
20
40
40
80
ENDCHAR
STARTCHAR 0327
ENCODING 807
SWIDTH 0 0
DWIDTH 0 0
BBX 9 11 -4 -11
BITMAP
1800
1000
1000
1000
1F00
0180
0080
0080
0080
C100
7E00
ENDCHAR
STARTCHAR 0328
ENCODING 808
SWIDTH 0 0
DWIDTH 0 0
BBX 9 12 -8 -11
BITMAP
0100
0200
0C00
1000
2000
4000
4000
C000
8000
C000
4180
3F00
ENDCHAR
STARTCHAR 037E
ENCODING 894
SWIDTH 252 0
DWIDTH 14 0
BBX 5 35 4 -8
BITMAP
38
38
30
00
00
00
00
00
00
00
00
00
00
00
00
00
00
00
00
00
00
00
00
00
30
38
38
18
10
10
10
20
60
40
80
ENDCHAR
STARTCHAR 0384
ENCODING 900
SWIDTH 594 0
DWIDTH 33 0
BBX 5 8 16 34
BITMAP
18
10
30
20
20
40
40
80
ENDCHAR
STARTCHAR 0385
ENCODING 901
SWIDTH 594 0
DWIDTH 33 0
BBX 13 9 10 33
BITMAP
0080
0080
0100
0100
E238
E218
0600
0400
0400
ENDCHAR
STARTCHAR 0386
ENCODING 902
SWIDTH 594 0
DWIDTH 33 0
BBX 29 41 2 1
BITMAP
03000000
02000000
06030000
04070000
0C050000
08058000
080C8000
10088000
00084000
00104000
00106000
00302000
00202000
00203000
00601000
00401000
00401800
00C00800
00800800
00800C00
01000400
01000400
03000200
02000200
02000300
06000100
04000100
07FFFF80
0C000080
08000080
080000C0
18000040
10000040
30000020
20000020
20000030
60000010
40000010
40000018
C0000008
80000008
ENDCHAR
STARTCHAR 0387
ENCODING 903
SWIDTH 252 0
DWIDTH 14 0
BBX 3 3 6 24
BITMAP
E0
E0
C0
ENDCHAR
STARTCHAR 0388
ENCODING 904
SWIDTH 576 0
DWIDTH 32 0
BBX 29 42 -1 0
BITMAP
10000000
10000000
10000000
30FFFFF8
20800000
60800000
40800000
C0800000
80800000
00800000
00800000
00800000
00800000
00800000
00800000
00800000
00800000
00800000
00800000
00800000
00800000
00800000
00FFFFF8
00800000
00800000
00800000
00800000
00800000
00800000
00800000
00800000
00800000
00800000
00800000
00800000
00800000
00800000
00800000
00800000
00800000
00800000
00FFFFF8
ENDCHAR
STARTCHAR 0389
ENCODING 905
SWIDTH 702 0
DWIDTH 39 0
BBX 35 42 -1 0
BITMAP
1000000000
1000000000
1000000000
3080000060
2080000060
6080000060
4080000060
C080000060
8080000060
0080000060
0080000060
0080000060
0080000060
0080000060
0080000060
0080000060
0080000060
0080000060
0080000060
0080000060
0080000060
0080000060
00FFFFFFE0
0080000060
0080000060
0080000060
0080000060
0080000060
0080000060
0080000060
0080000060
0080000060
0080000060
0080000060
0080000060
0080000060
0080000060
0080000060
0080000060
0080000060
0080000060
0080000060
ENDCHAR
STARTCHAR 038A
ENCODING 906
SWIDTH 414 0
DWIDTH 23 0
BBX 21 42 -1 0
BITMAP
100000
100000
100000
30FFF8
200200
600200
400200
C00200
800200
000200
000200
000200
000200
000200
000200
000200
000200
000200
000200
000200
000200
000200
000200
000200
000200
000200
000200
000200
000200
000200
000200
000200
000200
000200
000200
000200
000200
000200
000200
000200
000200
00FFF8
ENDCHAR
STARTCHAR 038C
ENCODING 908
SWIDTH 666 0
DWIDTH 37 0
BBX 35 43 -1 -1
BITMAP
1000000000
1000000000
1000000000
3003FFC000
200E007000
6018001800
4030000C00
C040000600
80C0000300
0180000100
0100000180
0100000080
02000000C0
0200000040
0200000040
0600000040
0600000040
0400000060
0400000060
0400000060
0400000020
0400000020
0400000020
0400000020
0400000020
0400000060
0400000060
0400000060
0600000040
0600000040
0200000040
0200000040
02000000C0
0300000080
0100000080
0180000100
0080000300
0040000200
0060000400
0030001800
000C007000
0003E7C000
00003E0000
ENDCHAR
STARTCHAR 038E
ENCODING 910
SWIDTH 612 0
DWIDTH 34 0
BBX 34 42 -1 0
BITMAP
1000000000
1000000000
1000000000
3100000040
2180000040
6080000080
4040000180
C060000100
8020000200
0030000200
0010000400
0008000C00
000C000800
0004001000
0006001000
0002002000
0001006000
0001804000
000080C000
0000C08000
0000410000
0000230000
0000320000
0000160000
00001C0000
0000080000
0000080000
0000080000
0000080000
0000080000
0000080000
0000080000
0000080000
0000080000
0000080000
0000080000
0000080000
0000080000
0000080000
0000080000
0000080000
0000080000
ENDCHAR
STARTCHAR 038F
ENCODING 911
SWIDTH 684 0
DWIDTH 38 0
BBX 36 42 -1 0
BITMAP
1000000000
1000000000
1000000000
3003FFC000
200E007000
6018000C00
4030000600
C060000300
80C0000180
0080000080
01000000C0
0100000040
0300000040
0200000020
0200000020
0200000020
0600000020
0600000020
0600000030
0600000030
0600000030
0600000030
0600000030
0600000030
0600000020
0600000020
0200000020
0200000020
0200000060
0300000060
0100000040
01000000C0
0080000080
00C0000180
0040000300
0020000600
0010000C00
0008001800
0006003000
000180C000
0001808000
03FF80FFE0
ENDCHAR
STARTCHAR 0390
ENCODING 912
SWIDTH 252 0
DWIDTH 14 0
BBX 13 41 1 1
BITMAP
0100
0100
0300
C238
C638
0400
0400
0800
0000
0000
0000
0000
0000
0400
0400
0400
0400
0400
0400
0400
0400
0400
0400
0400
0400
0400
0400
0400
0400
0400
0400
0400
0400
0400
0400
0400
0400
0400
0400
0400
07F0
ENDCHAR
STARTCHAR 0391
ENCODING 913
SWIDTH 594 0
DWIDTH 33 0
BBX 29 39 2 0
BITMAP
00030000
00070000
00050000
00058000
000C8000
00088000
00084000
00104000
00106000
00302000
00202000
00203000
00601000
00401000
00401800
00C00800
00800800
00800C00
01000400
01000400
03000200
02000200
02000300
06000100
04000100
07FFFF80
0C000080
08000080
080000C0
18000040
10000040
30000020
20000020
20000030
60000010
40000010
40000018
C0000008
80000008
ENDCHAR
STARTCHAR 0392
ENCODING 914
SWIDTH 612 0
DWIDTH 34 0
BBX 25 39 6 0
BITMAP
FFFF0000
8000E000
80003000
80000800
80000C00
80000400
80000400
80000600
80000600
80000600
80000600
80000600
80000600
80000400
80000400
80000800
80001800
80006000
FFFF8000
80007000
80000C00
80000600
80000200
80000300
80000100
80000100
80000100
80000180
80000180
80000180
80000100
80000100
80000100
80000300
80000200
80000600
80000C00
80003800
FFFFE000
ENDCHAR
STARTCHAR 0393
ENCODING 915
SWIDTH 504 0
DWIDTH 28 0
BBX 20 39 6 0
BITMAP
FFFFF0
800000
800000
800000
800000
800000
800000
800000
800000
800000
800000
800000
800000
800000
800000
800000
800000
800000
800000
800000
800000
800000
800000
800000
800000
800000
800000
800000
800000
800000
800000
800000
800000
800000
800000
800000
800000
800000
800000
ENDCHAR
STARTCHAR 0394
ENCODING 916
SWIDTH 594 0
DWIDTH 33 0
BBX 29 39 2 0
BITMAP
00030000
00070000
00050000
00058000
00088000
00088000
00084000
00104000
00106000
00302000
00202000
00203000
00601000
00401000
00401800
00C00800
00800800
00800C00
01000400
01000400
03000200
02000200
02000300
06000100
04000100
04000180
0C000080
08000080
080000C0
10000040
10000040
30000020
20000020
20000030
60000010
40000010
40000018
C0000008
FFFFFFF8
ENDCHAR
STARTCHAR 0395
ENCODING 917
SWIDTH 558 0
DWIDTH 31 0
BBX 21 39 6 0
BITMAP
FFFFF8
800000
800000
800000
800000
800000
800000
800000
800000
800000
800000
800000
800000
800000
800000
800000
800000
800000
800000
FFFFF8
800000
800000
800000
800000
800000
800000
800000
800000
800000
800000
800000
800000
800000
800000
800000
800000
800000
800000
FFFFF8
ENDCHAR
STARTCHAR 0396
ENCODING 918
SWIDTH 540 0
DWIDTH 30 0
BBX 27 39 2 0
BITMAP
7FFFFFC0
00000040
00000080
00000180
00000100
00000200
00000600
00000400
00000800
00001800
00001000
00002000
00006000
00004000
00008000
00018000
00010000
00020000
00060000
000C0000
00080000
00180000
00300000
00200000
00600000
00C00000
00800000
01800000
03000000
02000000
06000000
0C000000
08000000
10000000
30000000
20000000
40000000
C0000000
FFFFFFE0
ENDCHAR
STARTCHAR 0397
ENCODING 919
SWIDTH 684 0
DWIDTH 38 0
BBX 26 39 6 0
BITMAP
80000040
80000040
80000040
80000040
80000040
80000040
80000040
80000040
80000040
80000040
80000040
80000040
80000040
80000040
80000040
80000040
80000040
80000040
80000040
FFFFFFC0
80000040
80000040
80000040
80000040
80000040
80000040
80000040
80000040
80000040
80000040
80000040
80000040
80000040
80000040
80000040
80000040
80000040
80000040
80000040
ENDCHAR
STARTCHAR 0398
ENCODING 920
SWIDTH 666 0
DWIDTH 37 0
BBX 30 40 4 -1
BITMAP
007FF800
01C00E00
03000300
06000180
080000C0
18000060
30000020
20000030
20000010
40000018
40000008
40000008
C0000008
C0000008
8000000C
8000000C
8000000C
80000004
80000004
83FFFF04
80000004
80000004
8000000C
8000000C
8000000C
C0000008
C0000008
40000008
40000008
40000018
60000010
20000010
30000020
10000060
08000040
0C000080
06000300
01800E00
007CF800
0007C000
ENDCHAR
STARTCHAR 0399
ENCODING 921
SWIDTH 360 0
DWIDTH 20 0
BBX 13 39 4 0
BITMAP
FFF8
0200
0200
0200
0200
0200
0200
0200
0200
0200
0200
0200
0200
0200
0200
0200
0200
0200
0200
0200
0200
0200
0200
0200
0200
0200
0200
0200
0200
0200
0200
0200
0200
0200
0200
0200
0200
0200
FFF8
ENDCHAR
STARTCHAR 039A
ENCODING 922
SWIDTH 558 0
DWIDTH 31 0
BBX 24 39 6 0
BITMAP
800001
800002
800004
80000C
800018
800030
800060
8000C0
800180
800100
800200
800400
800800
801000
803000
806000
80C000
81C000
836000
863000
8C1000
881800
900C00
A00400
C00600
800300
800100
800180
8000C0
800040
800060
800030
800010
800018
80000C
800004
800002
800003
800001
ENDCHAR
STARTCHAR 039B
ENCODING 923
SWIDTH 576 0
DWIDTH 32 0
BBX 29 39 2 0
BITMAP
00060000
00070000
00050000
000D0000
00088000
00088000
00188000
00104000
00104000
00206000
00202000
00202000
00403000
00401000
00C01000
00801800
00800800
01800800
01000C00
01000400
03000400
02000200
02000200
06000200
04000100
04000100
08000180
08000080
18000080
100000C0
10000040
30000040
20000060
20000020
60000020
40000030
40000010
C0000010
80000008
ENDCHAR
STARTCHAR 039C
ENCODING 924
SWIDTH 792 0
DWIDTH 44 0
BBX 32 39 6 0
BITMAP
C0000003
E0000003
A0000005
B000000D
90000009
88000019
8C000011
84000021
82000061
83000041
81000081
81800081
80800101
80400301
80600201
80200401
80300C01
80100801
80081801
800C1001
80042001
80066001
80024001
8001C001
80018001
80000001
80000001
80000001
80000001
80000001
80000001
80000001
80000001
80000001
80000001
80000001
80000001
80000001
80000001
ENDCHAR
STARTCHAR 039D
ENCODING 925
SWIDTH 684 0
DWIDTH 38 0
BBX 26 39 6 0
BITMAP
C0000040
E0000040
A0000040
B0000040
90000040
88000040
8C000040
84000040
82000040
83000040
81000040
81800040
80800040
80400040
80600040
80200040
80100040
80180040
80080040
800C0040
80040040
80020040
80030040
80010040
80008040
8000C040
80004040
80006040
80002040
80001040
80001840
80000840
80000440
80000640
80000240
80000340
80000140
800000C0
800000C0
ENDCHAR
STARTCHAR 039E
ENCODING 926
SWIDTH 540 0
DWIDTH 30 0
BBX 23 39 4 0
BITMAP
FFFFFE
000000
000000
000000
000000
000000
000000
000000
000000
000000
000000
000000
000000
000000
000000
000000
000000
000000
000000
3FFFF8
000000
000000
000000
000000
000000
000000
000000
000000
000000
000000
000000
000000
000000
000000
000000
000000
000000
000000
FFFFFE
ENDCHAR
STARTCHAR 039F
ENCODING 927
SWIDTH 666 0
DWIDTH 37 0
BBX 30 40 4 -1
BITMAP
007FF800
01C00E00
03000300
06000180
080000C0
18000060
30000020
20000030
20000010
40000018
40000008
40000008
C0000008
C0000008
8000000C
8000000C
8000000C
80000004
80000004
80000004
80000004
80000004
8000000C
8000000C
8000000C
C0000008
C0000008
40000008
40000008
40000018
60000010
20000010
30000020
10000060
08000040
0C000080
06000300
01800E00
007CF800
0007C000
ENDCHAR
STARTCHAR 03A0
ENCODING 928
SWIDTH 666 0
DWIDTH 37 0
BBX 26 39 6 0
BITMAP
FFFFFFC0
800000C0
800000C0
800000C0
800000C0
800000C0
800000C0
800000C0
800000C0
800000C0
800000C0
800000C0
800000C0
800000C0
800000C0
800000C0
800000C0
800000C0
800000C0
800000C0
800000C0
800000C0
800000C0
800000C0
800000C0
800000C0
800000C0
800000C0
800000C0
800000C0
800000C0
800000C0
800000C0
800000C0
800000C0
800000C0
800000C0
800000C0
800000C0
ENDCHAR
STARTCHAR 03A1
ENCODING 929
SWIDTH 594 0
DWIDTH 33 0
BBX 25 39 6 0
BITMAP
FFFFC000
80007000
80001C00
80000400
80000200
80000300
80000100
80000100
80000100
80000180
80000180
80000180
80000100
80000100
80000100
80000300
80000200
80000600
80000C00
80003800
FFFFE000
80000000
80000000
80000000
80000000
80000000
80000000
80000000
80000000
80000000
80000000
80000000
80000000
80000000
80000000
80000000
80000000
80000000
80000000
ENDCHAR
STARTCHAR 03A3
ENCODING 931
SWIDTH 558 0
DWIDTH 31 0
BBX 25 39 3 0
BITMAP
FFFFFF80
C0000000
40000000
20000000
10000000
08000000
0C000000
06000000
02000000
01000000
00800000
00400000
00600000
00300000
00180000
00080000
00040000
00020000
00030000
00010000
00030000
00060000
000C0000
00080000
00100000
00200000
00600000
00C00000
01800000
01000000
02000000
04000000
0C000000
18000000
30000000
20000000
40000000
80000000
FFFFFF80
ENDCHAR
STARTCHAR 03A4
ENCODING 932
SWIDTH 558 0
DWIDTH 31 0
BBX 29 39 1 0
BITMAP
FFFFFFF8
00020000
00020000
00020000
00020000
00020000
00020000
00020000
00020000
00020000
00020000
00020000
00020000
00020000
00020000
00020000
00020000
00020000
00020000
00020000
00020000
00020000
00020000
00020000
00020000
00020000
00020000
00020000
00020000
00020000
00020000
00020000
00020000
00020000
00020000
00020000
00020000
00020000
00020000
ENDCHAR
STARTCHAR 03A5
ENCODING 933
SWIDTH 540 0
DWIDTH 30 0
BBX 28 39 1 0
BITMAP
C0000010
40000020
20000060
30000040
100000C0
18000080
08000100
04000300
06000200
02000600
03000400
01000800
01801800
00C01000
00403000
00602000
00204000
0030C000
00108000
00098000
000D0000
00060000
00060000
00020000
00020000
00020000
00020000
00020000
00020000
00020000
00020000
00020000
00020000
00020000
00020000
00020000
00020000
00020000
00020000
ENDCHAR
STARTCHAR 03A6
ENCODING 934
SWIDTH 810 0
DWIDTH 45 0
BBX 38 42 4 -2
BITMAP
0000300000
0000300000
0000300000
001FFFE000
00E0301C00
0380300700
0600300180
0C003000C0
1800300060
3000300020
2000300010
6000300018
4000300008
4000300008
C00030000C
8000300004
8000300004
8000300004
8000300004
8000300004
8000300004
8000300004
8000300004
8000300004
8000300004
800030000C
C000300008
4000300008
4000300008
6000300010
2000300030
1000300020
1800300060
0C003000C0
0600300380
0180300E00
0078307800
000FFFC000
0000300000
0000300000
0000300000
0000300000
ENDCHAR
STARTCHAR 03A7
ENCODING 935
SWIDTH 558 0
DWIDTH 31 0
BBX 27 39 2 0
BITMAP
C0000060
40000040
20000080
30000180
10000100
08000200
0C000600
04000400
02000800
03001800
01001000
00802000
00C06000
00404000
00208000
00318000
00110000
000A0000
000E0000
00060000
000A0000
001B0000
00118000
00208000
0060C000
00404000
00802000
01803000
01001000
02000800
06000C00
04000400
08000200
18000300
10000100
20000080
600000C0
40000040
80000020
ENDCHAR
STARTCHAR 03A8
ENCODING 936
SWIDTH 738 0
DWIDTH 41 0
BBX 33 39 4 0
BITMAP
C000800080
C000800080
C000800080
C000800080
C000800080
C000800080
C000800080
C000800080
C000800080
C000800080
C000800080
C000800080
C000800080
C000800080
4000800080
4000800080
4000800080
4000800180
4000800100
2000800100
2000800300
3000800200
1800800600
0C00800C00
0600803800
01C080E000
007FFF8000
0000800000
0000800000
0000800000
0000800000
0000800000
0000800000
0000800000
0000800000
0000800000
0000800000
0000800000
0000800000
ENDCHAR
STARTCHAR 03A9
ENCODING 937
SWIDTH 684 0
DWIDTH 38 0
BBX 31 39 4 0
BITMAP
007FF800
01C00E00
03000180
060000C0
0C000060
18000030
10000010
20000018
20000008
60000008
40000004
40000004
40000004
C0000004
C0000004
C0000006
C0000006
C0000006
C0000006
C0000006
C0000006
C0000004
C0000004
40000004
40000004
4000000C
6000000C
20000008
20000018
10000010
18000030
08000060
040000C0
02000180
01000300
00C00600
00301800
00301000
7FF01FFC
ENDCHAR
STARTCHAR 03AA
ENCODING 938
SWIDTH 360 0
DWIDTH 20 0
BBX 13 48 4 0
BITMAP
C038
E038
0000
0000
0000
0000
0000
0000
0000
FFF8
0200
0200
0200
0200
0200
0200
0200
0200
0200
0200
0200
0200
0200
0200
0200
0200
0200
0200
0200
0200
0200
0200
0200
0200
0200
0200
0200
0200
0200
0200
0200
0200
0200
0200
0200
0200
0200
FFF8
ENDCHAR
STARTCHAR 03AB
ENCODING 939
SWIDTH 540 0
DWIDTH 30 0
BBX 28 48 1 0
BITMAP
00C03000
00C03000
00000000
00000000
00000000
00000000
00000000
00000000
00000000
C0000010
40000020
20000060
30000040
100000C0
18000080
08000100
04000300
06000200
02000600
03000400
01000800
01801800
00C01000
00403000
00602000
00204000
0030C000
00108000
00098000
000D0000
00060000
00060000
00020000
00020000
00020000
00020000
00020000
00020000
00020000
00020000
00020000
00020000
00020000
00020000
00020000
00020000
00020000
00020000
ENDCHAR
STARTCHAR 03AC
ENCODING 940
SWIDTH 630 0
DWIDTH 35 0
BBX 30 43 3 -1
BITMAP
00010000
00030000
00020000
00020000
00040000
00040000
00080000
00080000
00180000
00000000
00000000
00000000
00000000
00FC0000
03870030
0400C020
08004020
10002060
30003040
20001040
600018C0
40000880
40000880
40000580
40000500
C0000500
C0000700
C0000200
C0000200
C0000500
C0000500
40000500
40000900
40000980
40000880
60001080
20001080
30002080
100060C0
0800C040
06018040
03CF007C
00780000
ENDCHAR
STARTCHAR 03AD
ENCODING 941
SWIDTH 522 0
DWIDTH 29 0
BBX 21 43 5 -1
BITMAP
000400
000400
000800
000800
001800
001000
003000
002000
002000
000000
000000
000000
000000
00FC00
0F0780
180060
200030
600010
400000
400000
400000
400000
400000
600000
200000
100000
0C0000
03FF00
1C0000
200000
400000
C00000
800000
800000
800000
800000
800000
800008
C00018
600030
3000C0
0F9F80
01F000
ENDCHAR
STARTCHAR 03AE
ENCODING 942
SWIDTH 558 0
DWIDTH 31 0
BBX 24 53 2 -11
BITMAP
000040
000040
0000C0
000080
000180
000100
000100
000200
000200
000000
000000
000000
000000
000F80
F87870
0C8018
0D0004
0E0006
0C0002
0C0003
0C0001
0C0001
0C0001
0C0001
0C0001
0C0001
0C0001
0C0001
0C0001
0C0001
0C0001
0C0001
0C0001
0C0001
0C0001
0C0001
0C0001
0C0001
0C0001
0C0001
0C0001
0C0001
000001
000001
000001
000001
000001
000001
000001
000001
000001
000001
000001
ENDCHAR
STARTCHAR 03AF
ENCODING 943
SWIDTH 252 0
DWIDTH 14 0
BBX 7 41 6 1
BITMAP
18
10
30
20
20
40
40
80
00
00
00
00
00
80
80
80
80
80
80
80
80
80
80
80
80
80
80
80
80
80
80
80
80
80
80
80
80
80
80
80
FE
ENDCHAR
STARTCHAR 03B0
ENCODING 944
SWIDTH 540 0
DWIDTH 30 0
BBX 20 43 5 -1
BITMAP
000800
001800
001000
001000
0E2380
0E2380
004000
004000
008000
000000
000000
000000
000000
000000
800010
800010
800010
800010
800010
800010
800010
800010
800010
800010
800010
800010
800010
800010
800010
800010
800010
800010
C00010
C00010
400010
400020
400020
600020
200040
1000C0
180180
078F00
00F800
ENDCHAR
STARTCHAR 03B1
ENCODING 945
SWIDTH 630 0
DWIDTH 35 0
BBX 30 30 3 -1
BITMAP
00FC0000
03870030
0400C020
08004020
10002060
30003040
20001040
600018C0
40000880
40000880
40000580
40000500
C0000500
C0000700
C0000200
C0000200
C0000500
C0000500
40000500
40000900
40000980
40000880
60001080
20001080
30002080
100060C0
0800C040
06018040
03CF007C
00780000
ENDCHAR
STARTCHAR 03B2
ENCODING 946
SWIDTH 558 0
DWIDTH 31 0
BBX 22 53 6 -11
BITMAP
01F800
070E00
180180
3000C0
200040
400020
400020
C00030
800010
800010
800010
800010
800010
800030
800020
800060
800040
800180
800600
83FC00
800380
800040
800020
800010
800008
800008
800008
800004
800004
800004
800004
800004
800004
800004
80000C
800008
800008
C00010
A00030
B00060
9801C0
878F00
807000
800000
800000
800000
800000
800000
800000
800000
800000
800000
800000
ENDCHAR
STARTCHAR 03B3
ENCODING 947
SWIDTH 468 0
DWIDTH 26 0
BBX 24 39 0 -11
BITMAP
F00001
180001
080001
080002
040002
040006
040004
020004
020008
030008
010008
010010
018010
008030
008020
00C020
004040
004040
002040
002080
002080
001180
001100
001100
000A00
000A00
000A00
000400
000400
000400
000400
000400
000400
000400
000400
000400
000400
000400
000400
ENDCHAR
STARTCHAR 03B4
ENCODING 948
SWIDTH 540 0
DWIDTH 30 0
BBX 24 42 3 -1
BITMAP
1FFFFC
180000
0C0000
020000
010000
008000
004000
002000
001000
000800
000600
000200
000100
003F80
00C040
030020
040030
080010
100008
20000C
200004
400006
400002
400002
400002
C00003
C00003
C00003
C00003
C00003
C00003
400002
400002
400002
600006
200004
30000C
180008
0C0010
060060
03E7C0
003C00
ENDCHAR
STARTCHAR 03B5
ENCODING 949
SWIDTH 522 0
DWIDTH 29 0
BBX 21 30 5 -1
BITMAP
00FC00
0F0780
180060
200030
600010
400000
400000
400000
400000
400000
600000
200000
100000
0C0000
03FF00
1C0000
200000
400000
C00000
800000
800000
800000
800000
800000
800008
C00018
600030
3000C0
0F9F80
01F000
ENDCHAR
STARTCHAR 03B6
ENCODING 950
SWIDTH 414 0
DWIDTH 23 0
BBX 19 50 3 -9
BITMAP
7FFFE0
000020
000040
000080
000180
000300
000200
000400
000800
001800
003000
006000
004000
008000
010000
030000
060000
040000
080000
180000
100000
200000
200000
400000
400000
400000
C00000
C00000
C00000
C00000
C00000
400000
400000
600000
200000
100000
080000
060000
01C000
007800
000F80
0000C0
000040
000040
000080
000080
000080
000180
000100
000100
ENDCHAR
STARTCHAR 03B7
ENCODING 951
SWIDTH 558 0
DWIDTH 31 0
BBX 24 40 2 -11
BITMAP
000F80
F87870
0C8018
0D0004
0E0006
0C0002
0C0003
0C0001
0C0001
0C0001
0C0001
0C0001
0C0001
0C0001
0C0001
0C0001
0C0001
0C0001
0C0001
0C0001
0C0001
0C0001
0C0001
0C0001
0C0001
0C0001
0C0001
0C0001
0C0001
000001
000001
000001
000001
000001
000001
000001
000001
000001
000001
000001
ENDCHAR
STARTCHAR 03B8
ENCODING 952
SWIDTH 540 0
DWIDTH 30 0
BBX 23 43 4 -1
BITMAP
007C00
038700
0600C0
080060
100020
300010
200010
200008
400008
400008
40000C
400004
C00004
800004
800004
800004
800004
800004
800004
800006
800006
FFFFFE
800006
800006
800006
800004
800004
800004
800004
C00004
C00004
400004
40000C
400008
600008
200008
200010
100010
100020
080060
0600C0
03CF00
003800
ENDCHAR
STARTCHAR 03B9
ENCODING 953
SWIDTH 252 0
DWIDTH 14 0
BBX 7 28 6 0
BITMAP
80
80
80
80
80
80
80
80
80
80
80
80
80
80
80
80
80
80
80
80
80
80
80
80
80
80
80
FE
ENDCHAR
STARTCHAR 03BA
ENCODING 954
SWIDTH 486 0
DWIDTH 27 0
BBX 20 28 6 0
BITMAP
8000F0
800180
800300
800200
800400
800800
801000
802000
804000
808000
810000
820000
860000
8B0000
918000
A0C000
C04000
C02000
801000
801800
800C00
800600
800300
800180
800080
800040
800020
800010
ENDCHAR
STARTCHAR 03BB
ENCODING 955
SWIDTH 468 0
DWIDTH 26 0
BBX 24 41 1 0
BITMAP
1E0000
010000
010000
018000
008000
008000
00C000
004000
004000
006000
002000
002000
003000
003000
003000
003800
004800
004800
00C400
008400
008400
010200
010200
010200
020100
020100
060180
040080
040080
0800C0
080040
180040
100060
100020
300020
200030
200010
400010
400018
C00008
80000F
ENDCHAR
STARTCHAR 03BC
ENCODING 956
SWIDTH 576 0
DWIDTH 32 0
BBX 24 39 6 -11
BITMAP
800030
800030
800030
800030
800030
800030
800030
800030
800030
800030
800030
800030
800030
800030
800030
800030
800030
800030
800030
800030
800030
800030
C00030
C00030
E00070
A000B0
980130
8F3E1F
80E000
800000
800000
800000
800000
800000
800000
800000
800000
800000
800000
ENDCHAR
STARTCHAR 03BD
ENCODING 957
SWIDTH 468 0
DWIDTH 26 0
BBX 24 28 0 0
BITMAP
F00001
180001
080001
080002
040002
040006
040004
020004
020008
020008
010008
010010
018010
008030
008020
00C020
004060
004040
006040
002080
002080
001080
001100
001100
000B00
000A00
000A00
000400
ENDCHAR
STARTCHAR 03BE
ENCODING 958
SWIDTH 450 0
DWIDTH 25 0
BBX 19 50 4 -9
BITMAP
FFFFE0
018000
060000
080000
100000
100000
200000
200000
200000
200000
200000
200000
200000
300000
100000
180000
0C0000
030000
00FF00
070000
180000
300000
600000
400000
C00000
800000
800000
800000
800000
800000
800000
800000
800000
400000
600000
200000
180000
0E0000
038000
007800
000F80
0000C0
000040
0000C0
000080
000080
000080
000180
000100
000100
ENDCHAR
STARTCHAR 03BF
ENCODING 959
SWIDTH 540 0
DWIDTH 30 0
BBX 24 30 3 -1
BITMAP
007E00
03C3C0
060060
080010
100008
30000C
200004
600006
400002
400002
400002
400002
C00003
C00003
C00003
C00003
C00003
C00003
400002
400002
400002
400002
600006
200004
30000C
100008
080010
060060
03E7C0
003C00
ENDCHAR
STARTCHAR 03C0
ENCODING 960
SWIDTH 576 0
DWIDTH 32 0
BBX 29 28 2 0
BITMAP
FFFFFFF8
04000200
04000200
04000200
04000200
04000200
04000200
04000200
04000200
04000200
04000200
04000200
04000200
04000200
04000200
04000200
04000200
04000200
04000200
04000200
04000200
04000200
04000200
04000200
04000200
04000200
04000200
040003E0
ENDCHAR
STARTCHAR 03C1
ENCODING 961
SWIDTH 522 0
DWIDTH 29 0
BBX 22 40 4 -11
BITMAP
007C00
038780
0C00C0
180020
100030
200010
200008
400008
40000C
400004
C00004
800004
800004
800004
800004
800004
800004
800004
800004
800004
800004
80000C
800008
C00008
C00010
A00030
900060
8C00C0
878F00
807800
800000
800000
800000
800000
800000
800000
800000
800000
800000
800000
ENDCHAR
STARTCHAR 03C2
ENCODING 962
SWIDTH 486 0
DWIDTH 27 0
BBX 21 38 3 -9
BITMAP
007C00
03C380
060060
080030
100010
300008
200000
600000
400000
400000
400000
C00000
C00000
C00000
C00000
C00000
C00000
400000
400000
400000
200000
300000
100000
080000
060000
038000
00E000
003C00
0003C0
000020
000020
000020
000020
000060
000040
000040
000040
0000C0
ENDCHAR
STARTCHAR 03C3
ENCODING 963
SWIDTH 540 0
DWIDTH 30 0
BBX 26 29 3 -1
BITMAP
00FFFFC0
03804000
04002000
08001000
10000800
20000400
20000400
40000600
40000200
40000200
40000200
C0000300
C0000300
C0000300
C0000300
C0000300
C0000300
40000200
40000200
40000200
40000200
60000600
20000400
30000C00
10000800
0C003000
06006000
03E78000
003C0000
ENDCHAR
STARTCHAR 03C4
ENCODING 964
SWIDTH 468 0
DWIDTH 26 0
BBX 23 28 2 0
BITMAP
FFFFFE
002000
002000
002000
002000
002000
002000
002000
002000
002000
002000
002000
002000
002000
002000
002000
002000
002000
002000
002000
002000
002000
002000
002000
002000
002000
002000
001FC0
ENDCHAR
STARTCHAR 03C5
ENCODING 965
SWIDTH 540 0
DWIDTH 30 0
BBX 20 29 5 -1
BITMAP
800010
800010
800010
800010
800010
800010
800010
800010
800010
800010
800010
800010
800010
800010
800010
800010
800010
800010
C00010
C00010
400010
400020
400020
600020
200040
1000C0
180180
078F00
00F800
ENDCHAR
STARTCHAR 03C6
ENCODING 966
SWIDTH 666 0
DWIDTH 37 0
BBX 31 40 3 -11
BITMAP
00000780
060038E0
0C006010
18004008
10008008
20008004
20010004
60010004
40010006
40010006
40010002
C0010002
C0010002
C0030002
C0030002
C0030002
C0030002
C0030002
40030006
40030004
40030004
40030004
20030008
20030008
10030010
18030030
0C030040
03030180
00FB7E00
001FC000
00030000
00030000
00030000
00030000
00030000
00030000
00030000
00030000
00030000
00030000
ENDCHAR
STARTCHAR 03C7
ENCODING 967
SWIDTH 450 0
DWIDTH 25 0
BBX 24 39 1 -11
BITMAP
F00004
100004
180008
080018
080010
040030
040020
020060
020040
010080
010080
018100
008100
00C200
004200
004400
002C00
002800
001800
001800
002800
006800
004400
00C400
008200
018200
010300
030100
020100
040080
040080
080040
080040
100060
100020
200030
200010
400010
40000F
ENDCHAR
STARTCHAR 03C8
ENCODING 968
SWIDTH 684 0
DWIDTH 38 0
BBX 28 50 5 -11
BITMAP
00020000
00020000
00020000
00020000
00020000
00020000
00020000
00020000
00020000
00020000
00020000
80020010
80020010
80020010
80020010
80020010
80020010
80020010
80020010
80020010
80020010
80020010
80020010
80020010
80020010
80020010
80020010
80020010
80020010
C0020010
40020010
40020010
40020020
60020020
20020060
10020040
18020180
06020300
03E27C00
003FC000
00020000
00020000
00020000
00020000
00020000
00020000
00020000
00020000
00020000
00020000
ENDCHAR
STARTCHAR 03C9
ENCODING 969
SWIDTH 684 0
DWIDTH 38 0
BBX 31 30 4 -1
BITMAP
02000080
060000C0
08000020
10000010
20000018
60000008
40000004
40000004
C0000004
80000006
80010002
80010002
80010002
80010002
80010002
80010002
80010002
80010002
80010002
80010002
80010002
80030002
80028006
C0028004
40028004
4004C00C
20044008
10082010
0E701CE0
03C00780
ENDCHAR
STARTCHAR 03CA
ENCODING 970
SWIDTH 252 0
DWIDTH 14 0
BBX 12 38 1 0
BITMAP
C030
C030
0000
0000
0000
0000
0000
0000
0000
0000
0400
0400
0400
0400
0400
0400
0400
0400
0400
0400
0400
0400
0400
0400
0400
0400
0400
0400
0400
0400
0400
0400
0400
0400
0400
0400
0400
07F0
ENDCHAR
STARTCHAR 03CB
ENCODING 971
SWIDTH 540 0
DWIDTH 30 0
BBX 20 39 5 -1
BITMAP
0C0380
0C0380
000000
000000
000000
000000
000000
000000
000000
000000
800010
800010
800010
800010
800010
800010
800010
800010
800010
800010
800010
800010
800010
800010
800010
800010
800010
800010
C00010
C00010
400010
400020
400020
600020
200040
1000C0
180180
078F00
00F800
ENDCHAR
STARTCHAR 03CC
ENCODING 972
SWIDTH 540 0
DWIDTH 30 0
BBX 24 43 3 -1
BITMAP
000100
000300
000200
000200
000400
000400
000800
000800
001800
000000
000000
000000
000000
007E00
03C3C0
060060
080010
100008
30000C
200004
600006
400002
400002
400002
400002
C00003
C00003
C00003
C00003
C00003
C00003
400002
400002
400002
400002
600006
200004
30000C
100008
080010
060060
03E7C0
003C00
ENDCHAR
STARTCHAR 03CD
ENCODING 973
SWIDTH 540 0
DWIDTH 30 0
BBX 20 43 5 -1
BITMAP
000400
000400
000800
000800
001800
001000
003000
002000
002000
000000
000000
000000
000000
000000
800010
800010
800010
800010
800010
800010
800010
800010
800010
800010
800010
800010
800010
800010
800010
800010
800010
800010
C00010
C00010
400010
400020
400020
600020
200040
1000C0
180180
078F00
00F800
ENDCHAR
STARTCHAR 03CE
ENCODING 974
SWIDTH 684 0
DWIDTH 38 0
BBX 31 43 4 -1
BITMAP
00002000
00002000
00006000
00004000
0000C000
00008000
00008000
00010000
00010000
00000000
00000000
00000000
00000000
02000080
060000C0
08000020
10000010
20000018
60000008
40000004
40000004
C0000004
80000006
80010002
80010002
80010002
80010002
80010002
80010002
80010002
80010002
80010002
80010002
80010002
80030002
80028006
C0028004
40028004
4004C00C
20044008
10082010
0E701CE0
03C00780
ENDCHAR
STARTCHAR 0400
ENCODING 1024
SWIDTH 558 0
DWIDTH 31 0
BBX 21 51 6 1
BITMAP
020000
030000
018000
008000
004000
006000
002000
001000
000000
000000
000000
000000
FFFFF8
800000
800000
800000
800000
800000
800000
800000
800000
800000
800000
800000
800000
800000
800000
800000
800000
800000
800000
FFFFF8
800000
800000
800000
800000
800000
800000
800000
800000
800000
800000
800000
800000
800000
800000
800000
800000
800000
800000
FFFFF8
ENDCHAR
STARTCHAR 0401
ENCODING 1025
SWIDTH 558 0
DWIDTH 31 0
BBX 21 48 6 0
BITMAP
0E0180
0E0380
040100
000000
000000
000000
000000
000000
000000
FFFFF8
800000
800000
800000
800000
800000
800000
800000
800000
800000
800000
800000
800000
800000
800000
800000
800000
800000
800000
FFFFF8
800000
800000
800000
800000
800000
800000
800000
800000
800000
800000
800000
800000
800000
800000
800000
800000
800000
800000
FFFFF8
ENDCHAR
STARTCHAR 0402
ENCODING 1026
SWIDTH 756 0
DWIDTH 42 0
BBX 38 48 1 -9
BITMAP
FFFFFFF800
0002000000
0002000000
0002000000
0002000000
0002000000
0002000000
0002000000
0002000000
0002000000
0002000000
0002000000
0002000000
0002000000
0002000000
0002000000
00023FFE00
0003C00180
0002000060
0002000030
0002000010
0002000018
0002000008
000200000C
0002000004
0002000004
0002000004
0002000004
0002000004
0002000004
0002000004
0002000004
0002000004
0002000004
0002000004
0002000004
0002000004
0002000004
0002000004
0000000004
0000000004
000000000C
000000000C
0000000008
0000000018
0000000010
0000000020
0000000FC0
ENDCHAR
STARTCHAR 0403
ENCODING 1027
SWIDTH 504 0
DWIDTH 28 0
BBX 20 52 6 0
BITMAP
000200
000600
000400
000800
001800
003000
002000
004000
00C000
000000
000000
000000
000000
FFFFF0
800000
800000
800000
800000
800000
800000
800000
800000
800000
800000
800000
800000
800000
800000
800000
800000
800000
800000
800000
800000
800000
800000
800000
800000
800000
800000
800000
800000
800000
800000
800000
800000
800000
800000
800000
800000
800000
800000
ENDCHAR
STARTCHAR 0404
ENCODING 1028
SWIDTH 594 0
DWIDTH 33 0
BBX 26 40 4 -1
BITMAP
007FE000
01801800
06000600
0C000300
08000100
10000080
300000C0
20000040
60000000
40000000
40000000
40000000
C0000000
C0000000
80000000
80000000
80000000
80000000
80000000
FFFFF800
80000000
80000000
80000000
80000000
80000000
80000000
C0000000
40000000
40000000
40000000
60000000
20000040
30000040
10000080
18000180
0C000300
06000600
03800C00
00FDF000
000F8000
ENDCHAR
STARTCHAR 0405
ENCODING 1029
SWIDTH 540 0
DWIDTH 30 0
BBX 25 40 2 -1
BITMAP
01FFE000
07003800
0C000C00
10000200
30000100
20000100
20000000
60000000
40000000
40000000
40000000
60000000
20000000
20000000
10000000
18000000
0C000000
03800000
00F80000
000FC000
00007000
00000C00
00000600
00000300
00000100
00000180
00000080
00000080
00000080
00000080
00000080
00000080
00000180
C0000100
60000100
30000200
18000600
06001800
01FBF000
002F0000
ENDCHAR
STARTCHAR 0406
ENCODING 1030
SWIDTH 360 0
DWIDTH 20 0
BBX 13 39 4 0
BITMAP
FFF8
0200
0200
0200
0200
0200
0200
0200
0200
0200
0200
0200
0200
0200
0200
0200
0200
0200
0200
0200
0200
0200
0200
0200
0200
0200
0200
0200
0200
0200
0200
0200
0200
0200
0200
0200
0200
0200
FFF8
ENDCHAR
STARTCHAR 0407
ENCODING 1031
SWIDTH 360 0
DWIDTH 20 0
BBX 13 48 4 0
BITMAP
C038
E038
0000
0000
0000
0000
0000
0000
0000
FFF8
0200
0200
0200
0200
0200
0200
0200
0200
0200
0200
0200
0200
0200
0200
0200
0200
0200
0200
0200
0200
0200
0200
0200
0200
0200
0200
0200
0200
0200
0200
0200
0200
0200
0200
0200
0200
0200
FFF8
ENDCHAR
STARTCHAR 0408
ENCODING 1032
SWIDTH 450 0
DWIDTH 25 0
BBX 19 40 1 -1
BITMAP
0FFFE0
000020
000020
000020
000020
000020
000020
000020
000020
000020
000020
000020
000020
000020
000020
000020
000020
000020
000020
000020
000020
000020
000020
000020
000020
000020
000020
000020
000020
000020
000020
000020
000020
C00060
400040
6000C0
300180
180300
07BE00
00F000
ENDCHAR
STARTCHAR 0409
ENCODING 1033
SWIDTH 972 0
DWIDTH 54 0
BBX 51 39 0 0
BITMAP
003FFFF0000000
00200010000000
00200010000000
00200010000000
00200010000000
00200010000000
00200010000000
00200010000000
00200010000000
00200010000000
00200010000000
00200010000000
00200010000000
00200010000000
00200010000000
00200010000000
00200010000000
0020001FFFF800
00200010000E00
00200010000300
00200010000180
002000100000C0
00600010000040
00600010000040
00400010000060
00400010000020
00400010000020
00400010000020
00C00010000020
00800010000020
00800010000020
00800010000060
01000010000040
01000010000040
030000100000C0
02000010000180
06000010000300
0C000010000E00
F800001FFFF800
ENDCHAR
STARTCHAR 040A
ENCODING 1034
SWIDTH 1026 0
DWIDTH 57 0
BBX 48 39 6 0
BITMAP
800000800000
800000800000
800000800000
800000800000
800000800000
800000800000
800000800000
800000800000
800000800000
800000800000
800000800000
800000800000
800000800000
800000800000
800000800000
800000800000
800000800000
800000800000
FFFFFFFFFFC0
800000800070
800000800018
800000800004
800000800006
800000800002
800000800003
800000800001
800000800001
800000800001
800000800001
800000800001
800000800001
800000800001
800000800003
800000800002
800000800006
800000800004
800000800018
800000800070
800000FFFFC0
ENDCHAR
STARTCHAR 040B
ENCODING 1035
SWIDTH 774 0
DWIDTH 43 0
BBX 39 39 1 0
BITMAP
FFFFFFF800
0002000000
0002000000
0002000000
0002000000
0002000000
0002000000
0002000000
0002000000
0002000000
0002000000
0002000000
0002000000
0002000000
0002000000
0002000000
00023FFF00
0003C001C0
0002000060
0002000030
0002000018
0002000008
000200000C
0002000004
0002000004
0002000004
0002000006
0002000006
0002000006
0002000006
0002000006
0002000006
0002000006
0002000006
0002000006
0002000006
0002000006
0002000006
0002000006
ENDCHAR
STARTCHAR 040C
ENCODING 1036
SWIDTH 612 0
DWIDTH 34 0
BBX 26 52 6 0
BITMAP
00010000
00030000
00020000
00040000
000C0000
00080000
00100000
00200000
00600000
00000000
00000000
00000000
00000000
80000780
80000C00
80000800
80001800
80001000
80002000
80006000
80004000
8000C000
80008000
80010000
80030000
80020000
80060000
80040000
80080000
80080000
80100000
80300000
FFC00000
80100000
80180000
80080000
800C0000
80040000
80020000
80030000
80010000
80018000
80008000
80004000
80006000
80002000
80003000
80001000
80000800
80000C00
80000400
800003C0
ENDCHAR
STARTCHAR 040D
ENCODING 1037
SWIDTH 684 0
DWIDTH 38 0
BBX 26 52 6 0
BITMAP
00800000
00C00000
00400000
00200000
00300000
00180000
00080000
00040000
00060000
00000000
00000000
00000000
00000000
80000040
80000040
800000C0
80000140
80000140
80000240
80000640
80000440
80000840
80001840
80001040
80002040
80006040
80004040
80008040
80018040
80010040
80020040
80060040
80040040
80080040
80180040
80100040
80200040
80600040
80400040
80800040
81800040
81000040
82000040
86000040
84000040
88000040
98000040
90000040
A0000040
A0000040
C0000040
80000040
ENDCHAR
STARTCHAR 040E
ENCODING 1038
SWIDTH 558 0
DWIDTH 31 0
BBX 28 50 2 1
BITMAP
00800C00
00800800
00401800
00601000
00302000
001FC000
00000000
00000000
00000000
00000000
00000000
80000010
C0000030
40000020
60000020
20000040
30000040
100000C0
18000080
08000080
0C000100
04000100
06000300
02000200
03000200
01000400
01800400
00800C00
00C00800
00400800
00601000
00201000
00203000
00102000
00102000
00084000
00084000
0004C000
00048000
00028000
00030000
00010000
00030000
00020000
00020000
00040000
00040000
000C0000
00080000
01F80000
ENDCHAR
STARTCHAR 040F
ENCODING 1039
SWIDTH 666 0
DWIDTH 37 0
BBX 26 47 6 -8
BITMAP
800000C0
800000C0
800000C0
800000C0
800000C0
800000C0
800000C0
800000C0
800000C0
800000C0
800000C0
800000C0
800000C0
800000C0
800000C0
800000C0
800000C0
800000C0
800000C0
800000C0
800000C0
800000C0
800000C0
800000C0
800000C0
800000C0
800000C0
800000C0
800000C0
800000C0
800000C0
800000C0
800000C0
800000C0
800000C0
800000C0
800000C0
800000C0
FFFFFFC0
00080000
00080000
00080000
00080000
00080000
00080000
00080000
00080000
ENDCHAR
STARTCHAR 0410
ENCODING 1040
SWIDTH 594 0
DWIDTH 33 0
BBX 29 39 2 0
BITMAP
00030000
00070000
00050000
00058000
000C8000
00088000
00084000
00104000
00106000
00302000
00202000
00203000
00601000
00401000
00401800
00C00800
00800800
00800C00
01000400
01000400
03000200
02000200
02000300
06000100
04000100
07FFFF80
0C000080
08000080
080000C0
18000040
10000040
30000020
20000020
20000030
60000010
40000010
40000018
C0000008
80000008
ENDCHAR
STARTCHAR 0411
ENCODING 1041
SWIDTH 594 0
DWIDTH 33 0
BBX 24 39 6 0
BITMAP
FFFFF8
800000
800000
800000
800000
800000
800000
800000
800000
800000
800000
800000
800000
800000
800000
800000
800000
FFFFC0
800070
800018
80000C
800006
800002
800002
800003
800001
800001
800001
800001
800001
800001
800003
800002
800002
800006
80000C
800018
800070
FFFFC0
ENDCHAR
STARTCHAR 0412
ENCODING 1042
SWIDTH 612 0
DWIDTH 34 0
BBX 25 39 6 0
BITMAP
FFFF0000
8000E000
80003000
80000800
80000C00
80000400
80000400
80000600
80000600
80000600
80000600
80000600
80000600
80000400
80000400
80000800
80001800
80006000
FFFF8000
80007000
80000C00
80000600
80000200
80000300
80000100
80000100
80000100
80000180
80000180
80000180
80000100
80000100
80000100
80000300
80000200
80000600
80000C00
80003800
FFFFE000
ENDCHAR
STARTCHAR 0413
ENCODING 1043
SWIDTH 504 0
DWIDTH 28 0
BBX 20 39 6 0
BITMAP
FFFFF0
800000
800000
800000
800000
800000
800000
800000
800000
800000
800000
800000
800000
800000
800000
800000
800000
800000
800000
800000
800000
800000
800000
800000
800000
800000
800000
800000
800000
800000
800000
800000
800000
800000
800000
800000
800000
800000
800000
ENDCHAR
STARTCHAR 0414
ENCODING 1044
SWIDTH 666 0
DWIDTH 37 0
BBX 33 47 1 -8
BITMAP
007FFFF000
0040001000
0040001000
0040001000
0040001000
0040001000
0040001000
0040001000
0040001000
0040001000
0040001000
0040001000
0040001000
0040001000
0040001000
0040001000
0040001000
0040001000
0040001000
0040001000
00C0001000
00C0001000
00C0001000
0080001000
0080001000
0080001000
0080001000
0180001000
0100001000
0100001000
0100001000
0300001000
0200001000
0200001000
0600001000
0400001000
0C00001000
0800001000
FFFFFFFF80
8000000080
8000000080
8000000080
8000000080
8000000080
8000000080
8000000080
8000000080
ENDCHAR
STARTCHAR 0415
ENCODING 1045
SWIDTH 558 0
DWIDTH 31 0
BBX 21 39 6 0
BITMAP
FFFFF8
800000
800000
800000
800000
800000
800000
800000
800000
800000
800000
800000
800000
800000
800000
800000
800000
800000
800000
FFFFF8
800000
800000
800000
800000
800000
800000
800000
800000
800000
800000
800000
800000
800000
800000
800000
800000
800000
800000
FFFFF8
ENDCHAR
STARTCHAR 0416
ENCODING 1046
SWIDTH 900 0
DWIDTH 50 0
BBX 46 39 2 0
BITMAP
780003000078
0C00030000C0
040003000080
020003000180
020003000100
010003000300
010003000200
008003000600
00C003000400
004003000C00
006003000800
002003001000
003003001000
001003002000
001803002000
000803004000
000C0300C000
000403008000
000603018000
0001FFFF0000
000603008000
00040300C000
000C03004000
000803006000
001003002000
003003003000
002003001000
006003001800
004003000800
00C003000400
008003000400
018003000200
010003000300
030003000100
020003000180
040003000080
0C00030000C0
080003000040
F8000300003C
ENDCHAR
STARTCHAR 0417
ENCODING 1047
SWIDTH 558 0
DWIDTH 31 0
BBX 24 40 4 -1
BITMAP
03FF80
0E0060
180018
30000C
600004
400006
000002
000002
000002
000003
000002
000002
000002
000006
000004
00000C
000018
000030
0001C0
03FF00
0000F0
000018
000004
000006
000003
000001
000001
000001
000001
000001
000001
000001
000003
800002
800006
400004
300018
1C0070
07E7C0
003E00
ENDCHAR
STARTCHAR 0418
ENCODING 1048
SWIDTH 684 0
DWIDTH 38 0
BBX 26 39 6 0
BITMAP
80000040
80000040
800000C0
80000140
80000140
80000240
80000640
80000440
80000840
80001840
80001040
80002040
80006040
80004040
80008040
80018040
80010040
80020040
80060040
80040040
80080040
80180040
80100040
80200040
80600040
80400040
80800040
81800040
81000040
82000040
86000040
84000040
88000040
98000040
90000040
A0000040
A0000040
C0000040
80000040
ENDCHAR
STARTCHAR 0419
ENCODING 1049
SWIDTH 684 0
DWIDTH 38 0
BBX 26 51 6 0
BITMAP
00001000
02001000
01003000
01002000
00804000
0040C000
003F0000
00000000
00000000
00000000
00000000
00000000
80000040
80000040
800000C0
80000140
80000140
80000240
80000640
80000440
80000840
80001840
80001040
80002040
80006040
80004040
80008040
80018040
80010040
80020040
80060040
80040040
80080040
80180040
80100040
80200040
80600040
80400040
80800040
81800040
81000040
82000040
86000040
84000040
88000040
98000040
90000040
A0000040
A0000040
C0000040
80000040
ENDCHAR
STARTCHAR 041A
ENCODING 1050
SWIDTH 612 0
DWIDTH 34 0
BBX 26 39 6 0
BITMAP
80000780
80000C00
80000800
80001800
80001000
80002000
80006000
80004000
8000C000
80008000
80010000
80030000
80020000
80060000
80040000
80080000
80080000
80100000
80300000
FFC00000
80100000
80180000
80080000
800C0000
80040000
80020000
80030000
80010000
80018000
80008000
80004000
80006000
80002000
80003000
80001000
80000800
80000C00
80000400
800003C0
ENDCHAR
STARTCHAR 041B
ENCODING 1051
SWIDTH 630 0
DWIDTH 35 0
BBX 30 39 0 0
BITMAP
003FFFFC
0020000C
0020000C
0020000C
0020000C
0020000C
0020000C
0020000C
0020000C
0020000C
0020000C
0020000C
0020000C
0020000C
0020000C
0020000C
0020000C
0020000C
0020000C
0020000C
0020000C
0020000C
0060000C
0060000C
0040000C
0040000C
0040000C
0040000C
00C0000C
0080000C
0080000C
0080000C
0100000C
0100000C
0300000C
0200000C
0600000C
0C00000C
F800000C
ENDCHAR
STARTCHAR 041C
ENCODING 1052
SWIDTH 792 0
DWIDTH 44 0
BBX 32 39 6 0
BITMAP
C0000003
E0000003
A0000005
B000000D
90000009
88000019
8C000011
84000021
82000061
83000041
81000081
81800081
80800101
80400301
80600201
80200401
80300C01
80100801
80081801
800C1001
80042001
80066001
80024001
8001C001
80018001
80000001
80000001
80000001
80000001
80000001
80000001
80000001
80000001
80000001
80000001
80000001
80000001
80000001
80000001
ENDCHAR
STARTCHAR 041D
ENCODING 1053
SWIDTH 684 0
DWIDTH 38 0
BBX 26 39 6 0
BITMAP
80000040
80000040
80000040
80000040
80000040
80000040
80000040
80000040
80000040
80000040
80000040
80000040
80000040
80000040
80000040
80000040
80000040
80000040
80000040
FFFFFFC0
80000040
80000040
80000040
80000040
80000040
80000040
80000040
80000040
80000040
80000040
80000040
80000040
80000040
80000040
80000040
80000040
80000040
80000040
80000040
ENDCHAR
STARTCHAR 041E
ENCODING 1054
SWIDTH 666 0
DWIDTH 37 0
BBX 30 40 4 -1
BITMAP
007FF800
01C00E00
03000300
06000180
080000C0
18000060
30000020
20000030
20000010
40000018
40000008
40000008
C0000008
C0000008
8000000C
8000000C
8000000C
80000004
80000004
80000004
80000004
80000004
8000000C
8000000C
8000000C
C0000008
C0000008
40000008
40000008
40000018
60000010
20000010
30000020
10000060
08000040
0C000080
06000300
01800E00
007CF800
0007C000
ENDCHAR
STARTCHAR 041F
ENCODING 1055
SWIDTH 666 0
DWIDTH 37 0
BBX 26 39 6 0
BITMAP
FFFFFFC0
800000C0
800000C0
800000C0
800000C0
800000C0
800000C0
800000C0
800000C0
800000C0
800000C0
800000C0
800000C0
800000C0
800000C0
800000C0
800000C0
800000C0
800000C0
800000C0
800000C0
800000C0
800000C0
800000C0
800000C0
800000C0
800000C0
800000C0
800000C0
800000C0
800000C0
800000C0
800000C0
800000C0
800000C0
800000C0
800000C0
800000C0
800000C0
ENDCHAR
STARTCHAR 0420
ENCODING 1056
SWIDTH 594 0
DWIDTH 33 0
BBX 25 39 6 0
BITMAP
FFFFC000
80007000
80001C00
80000400
80000200
80000300
80000100
80000100
80000100
80000180
80000180
80000180
80000100
80000100
80000100
80000300
80000200
80000600
80000C00
80003800
FFFFE000
80000000
80000000
80000000
80000000
80000000
80000000
80000000
80000000
80000000
80000000
80000000
80000000
80000000
80000000
80000000
80000000
80000000
80000000
ENDCHAR
STARTCHAR 0421
ENCODING 1057
SWIDTH 594 0
DWIDTH 33 0
BBX 26 40 4 -1
BITMAP
007FE000
01801800
06000600
0C000300
08000100
10000080
300000C0
20000040
60000000
40000000
40000000
40000000
C0000000
C0000000
80000000
80000000
80000000
80000000
80000000
80000000
80000000
80000000
80000000
80000000
80000000
80000000
C0000000
40000000
40000000
40000000
60000000
20000040
30000040
10000080
18000180
0C000300
06000600
03800C00
00FDF000
000F8000
ENDCHAR
STARTCHAR 0422
ENCODING 1058
SWIDTH 558 0
DWIDTH 31 0
BBX 29 39 1 0
BITMAP
FFFFFFF8
00020000
00020000
00020000
00020000
00020000
00020000
00020000
00020000
00020000
00020000
00020000
00020000
00020000
00020000
00020000
00020000
00020000
00020000
00020000
00020000
00020000
00020000
00020000
00020000
00020000
00020000
00020000
00020000
00020000
00020000
00020000
00020000
00020000
00020000
00020000
00020000
00020000
00020000
ENDCHAR
STARTCHAR 0423
ENCODING 1059
SWIDTH 558 0
DWIDTH 31 0
BBX 28 39 2 0
BITMAP
80000010
C0000030
40000020
60000020
20000040
30000040
100000C0
18000080
08000080
0C000100
04000100
06000300
02000200
03000200
01000400
01800400
00800C00
00C00800
00400800
00601000
00201000
00203000
00102000
00102000
00084000
00084000
0004C000
00048000
00028000
00030000
00010000
00030000
00020000
00020000
00040000
00040000
000C0000
00080000
01F80000
ENDCHAR
STARTCHAR 0424
ENCODING 1060
SWIDTH 810 0
DWIDTH 45 0
BBX 39 42 3 -2
BITMAP
0000100000
0000100000
0000100000
0000100000
0000100000
001FFFF800
00E0100E00
0180100380
06001000C0
0C00100060
1800100030
1000100010
3000100008
2000100008
6000100004
4000100004
4000100004
4000100006
C000100002
C000100002
C000100002
C000100002
C000100002
4000100006
4000100006
4000100004
4000100004
200010000C
2000100008
1000100018
1800100030
0C00100020
06001000C0
0300100180
00C0100700
003FFFFC00
0001FF8000
0000100000
0000100000
0000100000
0000100000
0000100000
ENDCHAR
STARTCHAR 0425
ENCODING 1061
SWIDTH 558 0
DWIDTH 31 0
BBX 27 39 2 0
BITMAP
C0000060
40000040
20000080
30000180
10000100
08000200
0C000600
04000400
02000800
03001800
01001000
00802000
00C06000
00404000
00208000
00318000
00110000
000A0000
000E0000
00060000
000A0000
001B0000
00118000
00208000
0060C000
00404000
00802000
01803000
01001000
02000800
06000C00
04000400
08000200
18000300
10000100
20000080
600000C0
40000040
80000020
ENDCHAR
STARTCHAR 0426
ENCODING 1062
SWIDTH 702 0
DWIDTH 39 0
BBX 31 47 6 -8
BITMAP
800000C0
800000C0
800000C0
800000C0
800000C0
800000C0
800000C0
800000C0
800000C0
800000C0
800000C0
800000C0
800000C0
800000C0
800000C0
800000C0
800000C0
800000C0
800000C0
800000C0
800000C0
800000C0
800000C0
800000C0
800000C0
800000C0
800000C0
800000C0
800000C0
800000C0
800000C0
800000C0
800000C0
800000C0
800000C0
800000C0
800000C0
800000C0
FFFFFFFE
00000006
00000006
00000006
00000006
00000006
00000006
00000006
00000006
ENDCHAR
STARTCHAR 0427
ENCODING 1063
SWIDTH 612 0
DWIDTH 34 0
BBX 25 39 4 0
BITMAP
80000180
80000180
80000180
80000180
80000180
80000180
80000180
80000180
80000180
80000180
80000180
80000180
80000180
80000180
80000180
C0000180
40000180
40000180
60000180
30000180
18000180
0E000780
03FFFD80
001C0180
00000180
00000180
00000180
00000180
00000180
00000180
00000180
00000180
00000180
00000180
00000180
00000180
00000180
00000180
00000180
ENDCHAR
STARTCHAR 0428
ENCODING 1064
SWIDTH 900 0
DWIDTH 50 0
BBX 38 39 6 0
BITMAP
8000300004
8000300004
8000300004
8000300004
8000300004
8000300004
8000300004
8000300004
8000300004
8000300004
8000300004
8000300004
8000300004
8000300004
8000300004
8000300004
8000300004
8000300004
8000300004
8000300004
8000300004
8000300004
8000300004
8000300004
8000300004
8000300004
8000300004
8000300004
8000300004
8000300004
8000300004
8000300004
8000300004
8000300004
8000300004
8000300004
8000300004
8000300004
FFFFFFFFFC
ENDCHAR
STARTCHAR 0429
ENCODING 1065
SWIDTH 918 0
DWIDTH 51 0
BBX 43 47 6 -8
BITMAP
800030000400
800030000400
800030000400
800030000400
800030000400
800030000400
800030000400
800030000400
800030000400
800030000400
800030000400
800030000400
800030000400
800030000400
800030000400
800030000400
800030000400
800030000400
800030000400
800030000400
800030000400
800030000400
800030000400
800030000400
800030000400
800030000400
800030000400
800030000400
800030000400
800030000400
800030000400
800030000400
800030000400
800030000400
800030000400
800030000400
800030000400
800030000400
FFFFFFFFFFE0
000000000020
000000000020
000000000020
000000000020
000000000020
000000000020
000000000020
000000000020
ENDCHAR
STARTCHAR 042A
ENCODING 1066
SWIDTH 720 0
DWIDTH 40 0
BBX 36 39 1 0
BITMAP
FFF8000000
0018000000
0018000000
0018000000
0018000000
0018000000
0018000000
0018000000
0018000000
0018000000
0018000000
0018000000
0018000000
0018000000
0018000000
0018000000
0018000000
001FFFFC00
0018000700
0018000180
00180000C0
0018000060
0018000020
0018000020
0018000030
0018000010
0018000010
0018000010
0018000010
0018000010
0018000010
0018000030
0018000020
0018000020
0018000060
00180000C0
0018000180
0018000700
001FFFFC00
ENDCHAR
STARTCHAR 042B
ENCODING 1067
SWIDTH 810 0
DWIDTH 45 0
BBX 34 39 6 0
BITMAP
80000000C0
80000000C0
80000000C0
80000000C0
80000000C0
80000000C0
80000000C0
80000000C0
80000000C0
80000000C0
80000000C0
80000000C0
80000000C0
80000000C0
80000000C0
80000000C0
80000000C0
FFFFC000C0
80007000C0
80001800C0
80000C00C0
80000600C0
80000200C0
80000200C0
80000300C0
80000100C0
80000100C0
80000100C0
80000100C0
80000100C0
80000100C0
80000300C0
80000200C0
80000200C0
80000600C0
80000C00C0
80001800C0
80007000C0
FFFFC000C0
ENDCHAR
STARTCHAR 042C
ENCODING 1068
SWIDTH 594 0
DWIDTH 33 0
BBX 25 39 6 0
BITMAP
80000000
80000000
80000000
80000000
80000000
80000000
80000000
80000000
80000000
80000000
80000000
80000000
80000000
80000000
80000000
80000000
80000000
FFFFE000
80003800
80000C00
80000600
80000200
80000300
80000100
80000100
80000100
80000100
80000180
80000180
80000100
80000100
80000100
80000100
80000300
80000200
80000600
80000C00
80003800
FFFFC000
ENDCHAR
STARTCHAR 042D
ENCODING 1069
SWIDTH 594 0
DWIDTH 33 0
BBX 27 40 3 -1
BITMAP
00FFC000
03007000
0C001800
18000400
30000200
20000100
40000100
40000080
00000080
000000C0
00000040
00000040
00000040
00000060
00000060
00000020
00000020
00000020
00000020
03FFFFE0
00000020
00000020
00000020
00000020
00000060
00000060
00000040
00000040
00000040
00000040
00000080
C0000080
40000180
60000100
30000200
10000600
0C000C00
06003000
01F7E000
003C0000
ENDCHAR
STARTCHAR 042E
ENCODING 1070
SWIDTH 900 0
DWIDTH 50 0
BBX 40 40 6 -1
BITMAP
80000FFE00
8000380380
8000600060
8000800030
8001000018
8002000008
800600000C
8004000004
800C000006
8008000002
8008000002
8008000003
8018000001
8010000001
8010000001
8010000001
8010000001
8010000001
8010000001
FFF0000001
8010000001
8010000001
8010000001
8010000001
8010000001
8010000001
8018000001
8008000003
8008000002
8008000002
800C000006
8004000004
8006000004
8002000008
8003000018
8001800030
8000C00060
80003001C0
80001FBF00
000000E000
ENDCHAR
STARTCHAR 042F
ENCODING 1071
SWIDTH 630 0
DWIDTH 35 0
BBX 27 39 2 0
BITMAP
007FFFE0
01C00020
07000020
04000020
08000020
18000020
10000020
10000020
10000020
30000020
30000020
30000020
10000020
10000020
10000020
18000020
08000020
0C000020
06000020
03800020
00FFFFE0
00080020
00180020
00100020
00300020
00200020
00600020
00400020
00C00020
00800020
01000020
01000020
02000020
06000020
04000020
0C000020
08000020
18000020
F0000020
ENDCHAR
STARTCHAR 0430
ENCODING 1072
SWIDTH 504 0
DWIDTH 28 0
BBX 25 30 3 -1
BITMAP
00FC0000
07870000
0C00C000
10004000
20002000
20002000
00003000
00001000
00001000
00001000
00001000
00001000
00001000
00001000
07FFF000
1C001000
30001000
60001000
40001000
40001000
C0001000
C0001000
C0001000
40003000
40003000
40005000
20009000
10011000
0F9E1F80
01E00000
ENDCHAR
STARTCHAR 0431
ENCODING 1073
SWIDTH 540 0
DWIDTH 30 0
BBX 23 42 4 -1
BITMAP
001FF8
00F000
030000
0C0000
180000
100000
300000
200000
600000
400000
400000
400000
C00000
C1FE00
8701C0
8C0060
900030
A00018
A00008
C0000C
C00004
800004
800004
800006
800002
800002
800002
800002
800002
800002
800006
800006
800004
800004
400004
400008
200008
300010
180020
0C00C0
03C780
003C00
ENDCHAR
STARTCHAR 0432
ENCODING 1074
SWIDTH 540 0
DWIDTH 30 0
BBX 20 28 6 0
BITMAP
FFFE00
800180
8000C0
800040
800040
800060
800060
800060
800060
800040
800040
800080
800100
FFFE00
800380
800040
800020
800030
800010
800010
800010
800010
800010
800030
800020
800060
8001C0
FFFF00
ENDCHAR
STARTCHAR 0433
ENCODING 1075
SWIDTH 432 0
DWIDTH 24 0
BBX 16 28 6 0
BITMAP
FFFF
8000
8000
8000
8000
8000
8000
8000
8000
8000
8000
8000
8000
8000
8000
8000
8000
8000
8000
8000
8000
8000
8000
8000
8000
8000
8000
8000
ENDCHAR
STARTCHAR 0434
ENCODING 1076
SWIDTH 540 0
DWIDTH 30 0
BBX 28 36 0 -8
BITMAP
00FFFF00
00800100
00800100
00800100
00800100
00800100
00800100
00800100
00800100
00800100
00800100
00800100
00800100
00800100
01800100
01000100
01000100
01000100
01000100
03000100
02000100
02000100
06000100
04000100
04000100
08000100
18000100
FFFFFFF0
80000010
80000010
80000010
80000010
80000010
80000010
80000010
80000010
ENDCHAR
STARTCHAR 0435
ENCODING 1077
SWIDTH 522 0
DWIDTH 29 0
BBX 23 30 3 -1
BITMAP
007E00
03C380
060060
080030
100018
300008
20000C
600004
400004
400002
400002
400002
C00002
C00002
FFFFFE
C00000
C00000
C00000
400000
400000
400000
400000
600006
200004
30000C
100008
0C0010
060060
01E7C0
003C00
ENDCHAR
STARTCHAR 0436
ENCODING 1078
SWIDTH 720 0
DWIDTH 40 0
BBX 37 28 2 0
BITMAP
78002000F0
0800200180
0400200100
0600200300
0200200200
0300200600
0100200400
0080200800
0080200800
0040201000
0040203000
0020202000
0030206000
001FFFC000
0020202000
0060202000
0040201000
00C0201800
0080200800
0180200C00
0100200400
0300200600
0200200200
0600200300
0400200100
0C00200180
0800200080
F0002000F8
ENDCHAR
STARTCHAR 0437
ENCODING 1079
SWIDTH 486 0
DWIDTH 27 0
BBX 20 30 3 -1
BITMAP
00F800
070F00
180180
300040
600060
400020
000020
000020
000020
000020
000060
000040
000080
000300
07FC00
000780
0000C0
000060
000020
000030
000010
000010
000010
000010
800020
400020
200040
180180
0F9F00
00F800
ENDCHAR
STARTCHAR 0438
ENCODING 1080
SWIDTH 576 0
DWIDTH 32 0
BBX 20 28 6 0
BITMAP
800010
800030
800050
800050
800090
800190
800110
800210
800410
800C10
800810
801010
803010
802010
804010
80C010
808010
810010
830010
860010
840010
880010
980010
900010
A00010
A00010
C00010
800010
ENDCHAR
STARTCHAR 0439
ENCODING 1081
SWIDTH 576 0
DWIDTH 32 0
BBX 20 40 6 1
BITMAP
100080
180100
080100
040200
060400
01F800
000000
000000
000000
000000
000000
000000
800010
800030
800050
800050
800090
800190
800110
800210
800410
800C10
800810
801010
803010
802010
804010
80C010
808010
810010
830010
860010
840010
880010
980010
900010
A00010
A00010
C00010
800010
ENDCHAR
STARTCHAR 043A
ENCODING 1082
SWIDTH 504 0
DWIDTH 28 0
BBX 21 28 6 0
BITMAP
8000F0
800180
800100
800200
800600
800400
800800
801800
801000
802000
806000
804000
808000
FF0000
80C000
804000
806000
802000
801000
801800
800800
800400
800600
800200
800300
800180
800080
8000F8
ENDCHAR
STARTCHAR 043B
ENCODING 1083
SWIDTH 522 0
DWIDTH 29 0
BBX 24 28 0 0
BITMAP
00FFFF
008001
008001
008001
008001
008001
008001
008001
008001
008001
008001
008001
008001
008001
008001
008001
008001
018001
010001
010001
010001
030001
020001
020001
040001
040001
080001
F00001
ENDCHAR
STARTCHAR 043C
ENCODING 1084
SWIDTH 666 0
DWIDTH 37 0
BBX 26 28 6 0
BITMAP
C00000C0
E00001C0
A0000140
90000240
98000640
88000440
8C000840
84000840
82001040
83003040
81002040
80804040
8080C040
80408040
80618040
80210040
80120040
80160040
800C0040
80080040
80000040
80000040
80000040
80000040
80000040
80000040
80000040
80000040
ENDCHAR
STARTCHAR 043D
ENCODING 1085
SWIDTH 576 0
DWIDTH 32 0
BBX 20 28 6 0
BITMAP
800010
800010
800010
800010
800010
800010
800010
800010
800010
800010
800010
800010
800010
FFFFF0
800010
800010
800010
800010
800010
800010
800010
800010
800010
800010
800010
800010
800010
800010
ENDCHAR
STARTCHAR 043E
ENCODING 1086
SWIDTH 540 0
DWIDTH 30 0
BBX 24 30 3 -1
BITMAP
007E00
03C3C0
060060
080010
100008
30000C
200004
600006
400002
400002
400002
400002
C00003
C00003
C00003
C00003
C00003
C00003
400002
400002
400002
400002
600006
200004
30000C
100008
080010
060060
03E7C0
003C00
ENDCHAR
STARTCHAR 043F
ENCODING 1087
SWIDTH 558 0
DWIDTH 31 0
BBX 20 28 6 0
BITMAP
FFFFF0
800030
800030
800030
800030
800030
800030
800030
800030
800030
800030
800030
800030
800030
800030
800030
800030
800030
800030
800030
800030
800030
800030
800030
800030
800030
800030
800030
ENDCHAR
STARTCHAR 0440
ENCODING 1088
SWIDTH 558 0
DWIDTH 31 0
BBX 22 40 6 -11
BITMAP
00F800
870700
9801C0
B00060
A00020
C00010
800018
800008
800008
80000C
800004
800004
800004
800004
800004
800004
800004
800004
800004
800004
80000C
800008
800008
800018
C00010
A00020
B00040
980180
878F00
807000
800000
800000
800000
800000
800000
800000
800000
800000
800000
800000
ENDCHAR
STARTCHAR 0441
ENCODING 1089
SWIDTH 486 0
DWIDTH 27 0
BBX 22 30 3 -1
BITMAP
007C00
03C380
060060
080030
100010
300008
200000
600000
400000
400000
400000
400000
C00000
C00000
C00000
C00000
C00000
C00000
400000
400000
400000
400000
600000
200000
30000C
100018
080030
060060
03E780
003C00
ENDCHAR
STARTCHAR 0442
ENCODING 1090
SWIDTH 468 0
DWIDTH 26 0
BBX 23 28 2 0
BITMAP
FFFFFE
001000
001000
001000
001000
001000
001000
001000
001000
001000
001000
001000
001000
001000
001000
001000
001000
001000
001000
001000
001000
001000
001000
001000
001000
001000
001000
001000
ENDCHAR
STARTCHAR 0443
ENCODING 1091
SWIDTH 450 0
DWIDTH 25 0
BBX 22 39 2 -11
BITMAP
80000C
800008
C00008
400010
400010
600030
200020
200020
100060
100040
180040
080080
080080
0C0080
040100
040100
020300
020200
020200
010400
010400
018400
008800
008800
005800
005000
005000
003000
002000
002000
004000
004000
00C000
008000
008000
018000
010000
010000
7E0000
ENDCHAR
STARTCHAR 0444
ENCODING 1092
SWIDTH 720 0
DWIDTH 40 0
BBX 33 50 4 -11
BITMAP
0000800000
0000800000
0000800000
0000800000
0000800000
0000800000
0000800000
0000800000
0000800000
0000800000
03E083C000
0E388C3000
100CB00C00
2002A00400
6002C00200
4001800200
4001800100
C000800100
8000800100
8000800100
8000800180
8000800180
8000800080
8000800080
8000800080
8000800080
8000800080
8000800080
8000800180
8000800180
8000800100
8000800100
C000800100
4001800100
4001800200
6002C00200
2002A00400
180C900C00
0F388E7000
01C0818000
0000800000
0000800000
0000800000
0000800000
0000800000
0000800000
0000800000
0000800000
0000800000
0000800000
ENDCHAR
STARTCHAR 0445
ENCODING 1093
SWIDTH 468 0
DWIDTH 26 0
BBX 22 28 2 0
BITMAP
40000C
600018
200010
100020
080060
0C0040
040080
020100
030300
018200
008400
004C00
007800
003000
003000
004800
00CC00
008600
010200
020100
060180
040080
080040
180020
300030
200010
400008
C00004
ENDCHAR
STARTCHAR 0446
ENCODING 1094
SWIDTH 576 0
DWIDTH 32 0
BBX 24 36 6 -8
BITMAP
800030
800030
800030
800030
800030
800030
800030
800030
800030
800030
800030
800030
800030
800030
800030
800030
800030
800030
800030
800030
800030
800030
800030
800030
800030
800030
800030
FFFFFF
000001
000001
000001
000001
000001
000001
000001
000001
ENDCHAR
STARTCHAR 0447
ENCODING 1095
SWIDTH 504 0
DWIDTH 28 0
BBX 20 28 3 0
BITMAP
C00010
C00010
C00010
C00010
C00010
C00010
C00010
C00010
C00010
C00010
C00010
400030
400030
600050
300090
1C0310
07FC10
000010
000010
000010
000010
000010
000010
000010
000010
000010
000010
000010
ENDCHAR
STARTCHAR 0448
ENCODING 1096
SWIDTH 774 0
DWIDTH 43 0
BBX 31 28 6 0
BITMAP
80010002
80010002
80010002
80010002
80010002
80010002
80010002
80010002
80010002
80010002
80010002
80010002
80010002
80010002
80010002
80010002
80010002
80010002
80010002
80010002
80010002
80010002
80010002
80010002
80010002
80010002
80010002
FFFFFFFE
ENDCHAR
STARTCHAR 0449
ENCODING 1097
SWIDTH 792 0
DWIDTH 44 0
BBX 36 36 6 -8
BITMAP
8001000200
8001000200
8001000200
8001000200
8001000200
8001000200
8001000200
8001000200
8001000200
8001000200
8001000200
8001000200
8001000200
8001000200
8001000200
8001000200
8001000200
8001000200
8001000200
8001000200
8001000200
8001000200
8001000200
8001000200
8001000200
8001000200
8001000200
FFFFFFFFF0
0000000030
0000000030
0000000030
0000000030
0000000030
0000000030
0000000030
0000000030
ENDCHAR
STARTCHAR 044A
ENCODING 1098
SWIDTH 576 0
DWIDTH 32 0
BBX 27 28 2 0
BITMAP
FF800000
00800000
00800000
00800000
00800000
00800000
00800000
00800000
00800000
00800000
00800000
00800000
00FFFE00
00800380
008000C0
00800040
00800020
00800020
00800020
00800020
00800020
00800020
00800020
00800060
00800040
008000C0
00800300
00FFFC00
ENDCHAR
STARTCHAR 044B
ENCODING 1099
SWIDTH 666 0
DWIDTH 37 0
BBX 26 28 6 0
BITMAP
800000C0
800000C0
800000C0
800000C0
800000C0
800000C0
800000C0
800000C0
800000C0
800000C0
800000C0
800000C0
FFFC00C0
800600C0
800100C0
800080C0
800080C0
800040C0
800040C0
800040C0
800040C0
800040C0
8000C0C0
800080C0
800180C0
800300C0
800E00C0
FFF800C0
ENDCHAR
STARTCHAR 044C
ENCODING 1100
SWIDTH 504 0
DWIDTH 28 0
BBX 19 28 6 0
BITMAP
800000
800000
800000
800000
800000
800000
800000
800000
800000
800000
800000
800000
FFFE00
800300
800080
800040
800040
800020
800020
800020
800020
800020
800060
800040
8000C0
800180
800700
FFFC00
ENDCHAR
STARTCHAR 044D
ENCODING 1101
SWIDTH 486 0
DWIDTH 27 0
BBX 21 30 3 -1
BITMAP
01F000
0F0E00
180180
3000C0
600060
400020
000010
000010
000018
000008
000008
000008
000008
000008
07FFF8
000008
000008
000008
000008
000008
000008
000010
000010
000030
800020
400060
2000C0
180180
0F9E00
00F000
ENDCHAR
STARTCHAR 044E
ENCODING 1102
SWIDTH 720 0
DWIDTH 40 0
BBX 31 30 6 -1
BITMAP
00007E00
8001C3C0
80060060
800C0030
80180018
8010000C
80300004
80200004
80200006
80400002
80400002
80400002
80400002
80400002
FFC00002
80400002
80400002
80400002
80400002
80400002
80400002
80200006
80200004
80300004
80100008
80180018
800C0030
80060060
8001E780
00003C00
ENDCHAR
STARTCHAR 044F
ENCODING 1103
SWIDTH 504 0
DWIDTH 28 0
BBX 21 28 2 0
BITMAP
03FFF8
060008
080008
100008
300008
200008
200008
200008
200008
200008
200008
300008
100008
080008
060008
03FFF8
004008
00C008
008008
018008
010008
030008
020008
040008
040008
080008
080008
F00008
ENDCHAR
STARTCHAR 0450
ENCODING 1104
SWIDTH 522 0
DWIDTH 29 0
BBX 23 43 3 -1
BITMAP
010000
010000
008000
00C000
006000
002000
001000
001800
000C00
000000
000000
000000
000000
007E00
03C380
060060
080030
100018
300008
20000C
600004
400004
400002
400002
400002
C00002
C00002
FFFFFE
C00000
C00000
C00000
400000
400000
400000
400000
600006
200004
30000C
100008
0C0010
060060
01E7C0
003C00
ENDCHAR
STARTCHAR 0451
ENCODING 1105
SWIDTH 522 0
DWIDTH 29 0
BBX 23 39 3 -1
BITMAP
0300C0
0300C0
000000
000000
000000
000000
000000
000000
000000
007E00
03C380
060060
080030
100018
300008
20000C
600004
400004
400002
400002
400002
C00002
C00002
FFFFFE
C00000
C00000
C00000
400000
400000
400000
400000
600006
200004
30000C
100008
0C0010
060060
01E7C0
003C00
ENDCHAR
STARTCHAR 0452
ENCODING 1106
SWIDTH 558 0
DWIDTH 31 0
BBX 24 52 2 -11
BITMAP
080000
080000
080000
080000
080000
FFFC00
080000
080000
080000
080000
080000
080000
080F80
0870F0
098018
0A000C
0A0004
0C0002
0C0002
080002
080003
080001
080001
080001
080001
080001
080001
080001
080001
080001
080001
080001
080001
080001
080001
080001
080001
080001
080001
080001
080001
000001
000001
000001
000001
000001
000001
000001
000001
000001
000001
00003F
ENDCHAR
STARTCHAR 0453
ENCODING 1107
SWIDTH 432 0
DWIDTH 24 0
BBX 16 42 6 0
BITMAP
0008
0008
0010
0030
0060
0040
0080
0180
0100
0000
0000
0000
0000
0000
FFFF
8000
8000
8000
8000
8000
8000
8000
8000
8000
8000
8000
8000
8000
8000
8000
8000
8000
8000
8000
8000
8000
8000
8000
8000
8000
8000
8000
ENDCHAR
STARTCHAR 0454
ENCODING 1108
SWIDTH 486 0
DWIDTH 27 0
BBX 22 30 3 -1
BITMAP
007C00
03C380
060060
080030
100010
300008
200000
600000
400000
400000
400000
400000
C00000
C00000
FFFF00
C00000
C00000
C00000
400000
400000
400000
400000
600000
200000
30000C
100018
080030
060060
03E780
003C00
ENDCHAR
STARTCHAR 0455
ENCODING 1109
SWIDTH 450 0
DWIDTH 25 0
BBX 19 30 3 -1
BITMAP
01F800
0F0E00
100180
2000C0
400060
400000
400000
400000
400000
400000
400000
200000
100000
0E0000
03F800
000F00
000180
0000C0
000060
000020
000020
000020
000020
000020
800020
C00060
600040
180180
0F9F00
00F000
ENDCHAR
STARTCHAR 0456
ENCODING 1110
SWIDTH 216 0
DWIDTH 12 0
BBX 3 40 5 0
BITMAP
E0
E0
40
00
00
00
00
00
00
00
00
00
40
40
40
40
40
40
40
40
40
40
40
40
40
40
40
40
40
40
40
40
40
40
40
40
40
40
40
40
ENDCHAR
STARTCHAR 0457
ENCODING 1111
SWIDTH 216 0
DWIDTH 12 0
BBX 13 38 0 0
BITMAP
E038
E038
0000
0000
0000
0000
0000
0000
0000
0000
0200
0200
0200
0200
0200
0200
0200
0200
0200
0200
0200
0200
0200
0200
0200
0200
0200
0200
0200
0200
0200
0200
0200
0200
0200
0200
0200
0200
ENDCHAR
STARTCHAR 0458
ENCODING 1112
SWIDTH 216 0
DWIDTH 12 0
BBX 7 51 1 -11
BITMAP
0E
0E
04
00
00
00
00
00
00
00
00
00
04
04
04
04
04
04
04
04
04
04
04
04
04
04
04
04
04
04
04
04
04
04
04
04
04
04
04
04
04
04
04
04
04
04
04
04
04
04
FC
ENDCHAR
STARTCHAR 0459
ENCODING 1113
SWIDTH 756 0
DWIDTH 42 0
BBX 39 28 0 0
BITMAP
00FFFC0000
0080040000
0080040000
0080040000
0080040000
0080040000
0080040000
0080040000
0080040000
0080040000
0080040000
0080040000
008007FFE0
0080040038
008004000C
0080040004
0080040002
0180040002
0100040002
0100040002
0100040002
0300040002
0200040002
0200040006
0400040004
0400040008
0800040030
F00007FFC0
ENDCHAR
ENDFONT
